if (_typeface_js && _typeface_js.loadFace) _typeface_js.loadFace({"glyphs":{"S":{"x_min":51.390625,"x_max":955.625,"ha":772,"o":"m 88 254 q 140 245 111 250 q 200 239 169 241 q 260 237 230 237 q 315 238 290 237 q 409 260 373 243 q 453 303 444 277 q 441 361 462 329 q 362 425 419 393 q 239 519 283 469 q 188 651 195 569 q 195 731 184 690 q 226 804 206 772 q 308 897 256 858 q 422 963 359 937 q 552 1004 484 990 q 682 1025 620 1019 q 818 1029 754 1032 q 955 1019 883 1026 l 883 736 q 824 745 859 741 q 751 747 788 748 q 678 740 713 745 q 619 723 643 734 q 552 670 581 704 q 523 591 522 636 q 543 547 523 566 q 591 511 563 527 q 647 481 619 494 q 693 455 676 468 q 738 422 715 438 q 781 385 762 405 q 809 340 800 365 q 815 283 819 315 q 802 237 812 261 q 780 194 793 213 q 635 75 723 118 q 446 16 547 33 q 242 3 345 0 q 51 23 138 6 l 88 254 "},"¦":{"x_min":46,"x_max":1028,"ha":1074,"o":"m 536 4 q 345 42 434 4 q 189 148 255 81 q 84 304 122 215 q 46 496 46 394 q 84 687 46 597 q 189 843 122 776 q 345 949 255 910 q 536 988 434 988 q 727 949 637 988 q 883 843 816 910 q 989 687 950 776 q 1028 496 1028 597 q 989 304 1028 394 q 883 148 950 215 q 727 42 816 81 q 536 4 637 4 m 536 71 q 702 104 625 71 q 836 196 779 137 q 926 331 893 254 q 960 496 960 408 q 926 660 960 583 q 836 795 893 737 q 702 886 779 853 q 536 920 625 920 q 371 886 448 920 q 236 795 294 853 q 144 660 177 737 q 111 496 111 583 q 144 331 111 408 q 236 196 177 254 q 371 104 294 137 q 536 71 448 71 m 536 100 q 382 131 454 100 q 256 216 311 162 q 171 341 202 269 q 140 496 140 414 q 171 648 140 576 q 256 773 202 719 q 382 857 311 826 q 536 887 454 887 q 688 857 616 887 q 814 773 761 826 q 899 648 868 719 q 930 496 930 576 q 899 341 930 414 q 814 216 868 269 q 688 131 761 162 q 536 100 616 100 m 536 161 q 611 175 576 161 q 673 211 646 190 q 723 259 701 233 q 758 309 744 286 q 537 281 647 280 q 314 309 426 281 q 348 259 327 286 q 398 211 369 233 q 460 175 426 190 q 536 161 494 161 m 300 330 q 773 330 534 276 l 848 450 l 223 450 l 300 330 m 590 496 l 537 622 l 484 496 l 590 496 m 408 593 q 418 592 411 590 q 434 598 426 594 q 448 606 443 602 q 454 612 454 611 q 422 693 434 651 q 386 768 409 734 q 368 768 381 773 q 339 752 354 762 q 313 733 325 743 q 305 720 302 723 l 408 593 m 766 720 q 759 733 769 723 q 734 752 748 743 q 705 768 719 762 q 687 768 691 773 q 650 693 661 734 q 622 612 638 651 q 625 606 619 611 q 638 598 630 602 q 654 592 645 594 q 666 593 662 590 l 766 720 m 895 70 l 875 70 l 875 85 l 932 85 l 932 70 l 911 70 l 911 17 l 895 17 l 895 70 m 939 84 l 960 84 l 972 31 l 984 84 l 1004 84 l 1004 16 l 991 16 l 991 69 l 978 16 l 966 16 l 952 69 l 952 16 l 939 16 l 939 84 "},"/":{"x_min":46,"x_max":1028,"ha":1074,"o":"m 536 4 q 345 42 434 4 q 189 148 255 81 q 84 304 122 215 q 46 496 46 394 q 84 687 46 597 q 189 843 122 776 q 345 949 255 910 q 536 988 434 988 q 727 949 637 988 q 883 843 816 910 q 989 687 950 776 q 1028 496 1028 597 q 989 304 1028 394 q 883 148 950 215 q 727 42 816 81 q 536 4 637 4 m 536 71 q 702 104 625 71 q 836 196 779 137 q 926 331 893 254 q 960 496 960 408 q 926 660 960 583 q 836 795 893 737 q 702 886 779 853 q 536 920 625 920 q 371 886 448 920 q 236 795 294 853 q 144 660 177 737 q 111 496 111 583 q 144 331 111 408 q 236 196 177 254 q 371 104 294 137 q 536 71 448 71 m 536 100 q 382 131 454 100 q 256 216 311 162 q 171 341 202 269 q 140 496 140 414 q 171 648 140 576 q 256 773 202 719 q 382 857 311 826 q 536 887 454 887 q 688 857 616 887 q 814 773 761 826 q 899 648 868 719 q 930 496 930 576 q 899 341 930 414 q 814 216 868 269 q 688 131 761 162 q 536 100 616 100 m 536 161 q 611 175 576 161 q 673 211 646 190 q 723 259 701 233 q 758 309 744 286 q 537 281 647 280 q 314 309 426 281 q 348 259 327 286 q 398 211 369 233 q 460 175 426 190 q 536 161 494 161 m 300 330 q 773 330 534 276 l 848 450 l 223 450 l 300 330 m 590 496 l 537 622 l 484 496 l 590 496 m 408 593 q 418 592 411 590 q 434 598 426 594 q 448 606 443 602 q 454 612 454 611 q 422 693 434 651 q 386 768 409 734 q 368 768 381 773 q 339 752 354 762 q 313 733 325 743 q 305 720 302 723 l 408 593 m 766 720 q 759 733 769 723 q 734 752 748 743 q 705 768 719 762 q 687 768 691 773 q 650 693 661 734 q 622 612 638 651 q 625 606 619 611 q 638 598 630 602 q 654 592 645 594 q 666 593 662 590 l 766 720 m 895 70 l 875 70 l 875 85 l 932 85 l 932 70 l 911 70 l 911 17 l 895 17 l 895 70 m 939 84 l 960 84 l 972 31 l 984 84 l 1004 84 l 1004 16 l 991 16 l 991 69 l 978 16 l 966 16 l 952 69 l 952 16 l 939 16 l 939 84 "},"y":{"x_min":291.6875,"x_max":1125.09375,"ha":885,"o":"m 1125 1014 q 989 769 1055 888 q 857 530 923 650 q 722 283 791 410 q 577 13 654 156 q 437 16 502 17 q 308 10 372 15 q 366 131 334 64 q 433 271 397 197 q 396 269 419 268 q 361 268 373 271 q 343 390 354 310 q 323 573 333 471 q 304 790 313 675 q 291 1014 295 906 q 366 1020 326 1018 q 445 1022 405 1022 q 525 1020 486 1022 q 597 1014 563 1018 q 589 904 591 961 q 587 788 587 846 q 589 672 587 729 q 595 564 591 615 q 652 679 622 620 q 710 796 682 738 q 766 908 738 854 q 816 1006 793 961 q 973 1017 898 1017 q 1125 1014 1047 1018 "},"Á":{"x_min":46,"x_max":1028,"ha":1074,"o":"m 536 4 q 345 42 434 4 q 189 148 255 81 q 84 304 122 215 q 46 496 46 394 q 84 687 46 597 q 189 843 122 776 q 345 949 255 910 q 536 988 434 988 q 727 949 637 988 q 883 843 816 910 q 989 687 950 776 q 1028 496 1028 597 q 989 304 1028 394 q 883 148 950 215 q 727 42 816 81 q 536 4 637 4 m 536 71 q 702 104 625 71 q 836 196 779 137 q 926 331 893 254 q 960 496 960 408 q 926 660 960 583 q 836 795 893 737 q 702 886 779 853 q 536 920 625 920 q 371 886 448 920 q 236 795 294 853 q 144 660 177 737 q 111 496 111 583 q 144 331 111 408 q 236 196 177 254 q 371 104 294 137 q 536 71 448 71 m 536 100 q 382 131 454 100 q 256 216 311 162 q 171 341 202 269 q 140 496 140 414 q 171 648 140 576 q 256 773 202 719 q 382 857 311 826 q 536 887 454 887 q 688 857 616 887 q 814 773 761 826 q 899 648 868 719 q 930 496 930 576 q 899 341 930 414 q 814 216 868 269 q 688 131 761 162 q 536 100 616 100 m 536 161 q 611 175 576 161 q 673 211 646 190 q 723 259 701 233 q 758 309 744 286 q 537 281 647 280 q 314 309 426 281 q 348 259 327 286 q 398 211 369 233 q 460 175 426 190 q 536 161 494 161 m 300 330 q 773 330 534 276 l 848 450 l 223 450 l 300 330 m 590 496 l 537 622 l 484 496 l 590 496 m 408 593 q 418 592 411 590 q 434 598 426 594 q 448 606 443 602 q 454 612 454 611 q 422 693 434 651 q 386 768 409 734 q 368 768 381 773 q 339 752 354 762 q 313 733 325 743 q 305 720 302 723 l 408 593 m 766 720 q 759 733 769 723 q 734 752 748 743 q 705 768 719 762 q 687 768 691 773 q 650 693 661 734 q 622 612 638 651 q 625 606 619 611 q 638 598 630 602 q 654 592 645 594 q 666 593 662 590 l 766 720 m 895 70 l 875 70 l 875 85 l 932 85 l 932 70 l 911 70 l 911 17 l 895 17 l 895 70 m 939 84 l 960 84 l 972 31 l 984 84 l 1004 84 l 1004 16 l 991 16 l 991 69 l 978 16 l 966 16 l 952 69 l 952 16 l 939 16 l 939 84 "},"g":{"x_min":148.375,"x_max":1162.953125,"ha":1025,"o":"m 1082 686 q 990 712 1042 702 q 880 721 939 722 q 726 695 805 719 q 582 626 646 672 q 480 512 518 580 q 449 355 442 444 q 496 259 453 299 q 611 218 539 219 q 685 223 653 218 q 746 247 717 229 q 758 294 750 265 q 774 357 765 323 q 793 425 783 390 q 811 487 803 460 q 937 496 868 493 q 1086 499 1007 499 q 1032 310 1062 415 q 965 103 1001 205 q 887 59 932 78 q 793 25 843 39 q 690 2 743 10 q 587 -6 637 -6 q 430 13 507 -7 q 291 78 353 34 q 191 188 229 121 q 149 345 153 255 q 187 578 143 470 q 310 770 232 686 q 492 914 387 855 q 714 998 597 972 q 833 1016 772 1011 q 951 1021 893 1022 q 1064 1014 1010 1021 q 1162 998 1118 1008 q 1144 916 1153 952 q 1127 844 1136 879 q 1108 772 1118 809 q 1082 686 1097 734 "},"²":{"x_min":46,"x_max":1028,"ha":1074,"o":"m 536 4 q 345 42 434 4 q 189 148 255 81 q 84 304 122 215 q 46 496 46 394 q 84 687 46 597 q 189 843 122 776 q 345 949 255 910 q 536 988 434 988 q 727 949 637 988 q 883 843 816 910 q 989 687 950 776 q 1028 496 1028 597 q 989 304 1028 394 q 883 148 950 215 q 727 42 816 81 q 536 4 637 4 m 536 71 q 702 104 625 71 q 836 196 779 137 q 926 331 893 254 q 960 496 960 408 q 926 660 960 583 q 836 795 893 737 q 702 886 779 853 q 536 920 625 920 q 371 886 448 920 q 236 795 294 853 q 144 660 177 737 q 111 496 111 583 q 144 331 111 408 q 236 196 177 254 q 371 104 294 137 q 536 71 448 71 m 536 100 q 382 131 454 100 q 256 216 311 162 q 171 341 202 269 q 140 496 140 414 q 171 648 140 576 q 256 773 202 719 q 382 857 311 826 q 536 887 454 887 q 688 857 616 887 q 814 773 761 826 q 899 648 868 719 q 930 496 930 576 q 899 341 930 414 q 814 216 868 269 q 688 131 761 162 q 536 100 616 100 m 536 161 q 611 175 576 161 q 673 211 646 190 q 723 259 701 233 q 758 309 744 286 q 537 281 647 280 q 314 309 426 281 q 348 259 327 286 q 398 211 369 233 q 460 175 426 190 q 536 161 494 161 m 300 330 q 773 330 534 276 l 848 450 l 223 450 l 300 330 m 590 496 l 537 622 l 484 496 l 590 496 m 408 593 q 418 592 411 590 q 434 598 426 594 q 448 606 443 602 q 454 612 454 611 q 422 693 434 651 q 386 768 409 734 q 368 768 381 773 q 339 752 354 762 q 313 733 325 743 q 305 720 302 723 l 408 593 m 766 720 q 759 733 769 723 q 734 752 748 743 q 705 768 719 762 q 687 768 691 773 q 650 693 661 734 q 622 612 638 651 q 625 606 619 611 q 638 598 630 602 q 654 592 645 594 q 666 593 662 590 l 766 720 m 895 70 l 875 70 l 875 85 l 932 85 l 932 70 l 911 70 l 911 17 l 895 17 l 895 70 m 939 84 l 960 84 l 972 31 l 984 84 l 1004 84 l 1004 16 l 991 16 l 991 69 l 978 16 l 966 16 l 952 69 l 952 16 l 939 16 l 939 84 "},"ë":{"x_min":46,"x_max":1028,"ha":1074,"o":"m 536 4 q 345 42 434 4 q 189 148 255 81 q 84 304 122 215 q 46 496 46 394 q 84 687 46 597 q 189 843 122 776 q 345 949 255 910 q 536 988 434 988 q 727 949 637 988 q 883 843 816 910 q 989 687 950 776 q 1028 496 1028 597 q 989 304 1028 394 q 883 148 950 215 q 727 42 816 81 q 536 4 637 4 m 536 71 q 702 104 625 71 q 836 196 779 137 q 926 331 893 254 q 960 496 960 408 q 926 660 960 583 q 836 795 893 737 q 702 886 779 853 q 536 920 625 920 q 371 886 448 920 q 236 795 294 853 q 144 660 177 737 q 111 496 111 583 q 144 331 111 408 q 236 196 177 254 q 371 104 294 137 q 536 71 448 71 m 536 100 q 382 131 454 100 q 256 216 311 162 q 171 341 202 269 q 140 496 140 414 q 171 648 140 576 q 256 773 202 719 q 382 857 311 826 q 536 887 454 887 q 688 857 616 887 q 814 773 761 826 q 899 648 868 719 q 930 496 930 576 q 899 341 930 414 q 814 216 868 269 q 688 131 761 162 q 536 100 616 100 m 536 161 q 611 175 576 161 q 673 211 646 190 q 723 259 701 233 q 758 309 744 286 q 537 281 647 280 q 314 309 426 281 q 348 259 327 286 q 398 211 369 233 q 460 175 426 190 q 536 161 494 161 m 300 330 q 773 330 534 276 l 848 450 l 223 450 l 300 330 m 590 496 l 537 622 l 484 496 l 590 496 m 408 593 q 418 592 411 590 q 434 598 426 594 q 448 606 443 602 q 454 612 454 611 q 422 693 434 651 q 386 768 409 734 q 368 768 381 773 q 339 752 354 762 q 313 733 325 743 q 305 720 302 723 l 408 593 m 766 720 q 759 733 769 723 q 734 752 748 743 q 705 768 719 762 q 687 768 691 773 q 650 693 661 734 q 622 612 638 651 q 625 606 619 611 q 638 598 630 602 q 654 592 645 594 q 666 593 662 590 l 766 720 m 895 70 l 875 70 l 875 85 l 932 85 l 932 70 l 911 70 l 911 17 l 895 17 l 895 70 m 939 84 l 960 84 l 972 31 l 984 84 l 1004 84 l 1004 16 l 991 16 l 991 69 l 978 16 l 966 16 l 952 69 l 952 16 l 939 16 l 939 84 "},"ƒ":{"x_min":46,"x_max":1028,"ha":1074,"o":"m 536 4 q 345 42 434 4 q 189 148 255 81 q 84 304 122 215 q 46 496 46 394 q 84 687 46 597 q 189 843 122 776 q 345 949 255 910 q 536 988 434 988 q 727 949 637 988 q 883 843 816 910 q 989 687 950 776 q 1028 496 1028 597 q 989 304 1028 394 q 883 148 950 215 q 727 42 816 81 q 536 4 637 4 m 536 71 q 702 104 625 71 q 836 196 779 137 q 926 331 893 254 q 960 496 960 408 q 926 660 960 583 q 836 795 893 737 q 702 886 779 853 q 536 920 625 920 q 371 886 448 920 q 236 795 294 853 q 144 660 177 737 q 111 496 111 583 q 144 331 111 408 q 236 196 177 254 q 371 104 294 137 q 536 71 448 71 m 536 100 q 382 131 454 100 q 256 216 311 162 q 171 341 202 269 q 140 496 140 414 q 171 648 140 576 q 256 773 202 719 q 382 857 311 826 q 536 887 454 887 q 688 857 616 887 q 814 773 761 826 q 899 648 868 719 q 930 496 930 576 q 899 341 930 414 q 814 216 868 269 q 688 131 761 162 q 536 100 616 100 m 536 161 q 611 175 576 161 q 673 211 646 190 q 723 259 701 233 q 758 309 744 286 q 537 281 647 280 q 314 309 426 281 q 348 259 327 286 q 398 211 369 233 q 460 175 426 190 q 536 161 494 161 m 300 330 q 773 330 534 276 l 848 450 l 223 450 l 300 330 m 590 496 l 537 622 l 484 496 l 590 496 m 408 593 q 418 592 411 590 q 434 598 426 594 q 448 606 443 602 q 454 612 454 611 q 422 693 434 651 q 386 768 409 734 q 368 768 381 773 q 339 752 354 762 q 313 733 325 743 q 305 720 302 723 l 408 593 m 766 720 q 759 733 769 723 q 734 752 748 743 q 705 768 719 762 q 687 768 691 773 q 650 693 661 734 q 622 612 638 651 q 625 606 619 611 q 638 598 630 602 q 654 592 645 594 q 666 593 662 590 l 766 720 m 895 70 l 875 70 l 875 85 l 932 85 l 932 70 l 911 70 l 911 17 l 895 17 l 895 70 m 939 84 l 960 84 l 972 31 l 984 84 l 1004 84 l 1004 16 l 991 16 l 991 69 l 978 16 l 966 16 l 952 69 l 952 16 l 939 16 l 939 84 "},"Î":{"x_min":46,"x_max":1028,"ha":1074,"o":"m 536 4 q 345 42 434 4 q 189 148 255 81 q 84 304 122 215 q 46 496 46 394 q 84 687 46 597 q 189 843 122 776 q 345 949 255 910 q 536 988 434 988 q 727 949 637 988 q 883 843 816 910 q 989 687 950 776 q 1028 496 1028 597 q 989 304 1028 394 q 883 148 950 215 q 727 42 816 81 q 536 4 637 4 m 536 71 q 702 104 625 71 q 836 196 779 137 q 926 331 893 254 q 960 496 960 408 q 926 660 960 583 q 836 795 893 737 q 702 886 779 853 q 536 920 625 920 q 371 886 448 920 q 236 795 294 853 q 144 660 177 737 q 111 496 111 583 q 144 331 111 408 q 236 196 177 254 q 371 104 294 137 q 536 71 448 71 m 536 100 q 382 131 454 100 q 256 216 311 162 q 171 341 202 269 q 140 496 140 414 q 171 648 140 576 q 256 773 202 719 q 382 857 311 826 q 536 887 454 887 q 688 857 616 887 q 814 773 761 826 q 899 648 868 719 q 930 496 930 576 q 899 341 930 414 q 814 216 868 269 q 688 131 761 162 q 536 100 616 100 m 536 161 q 611 175 576 161 q 673 211 646 190 q 723 259 701 233 q 758 309 744 286 q 537 281 647 280 q 314 309 426 281 q 348 259 327 286 q 398 211 369 233 q 460 175 426 190 q 536 161 494 161 m 300 330 q 773 330 534 276 l 848 450 l 223 450 l 300 330 m 590 496 l 537 622 l 484 496 l 590 496 m 408 593 q 418 592 411 590 q 434 598 426 594 q 448 606 443 602 q 454 612 454 611 q 422 693 434 651 q 386 768 409 734 q 368 768 381 773 q 339 752 354 762 q 313 733 325 743 q 305 720 302 723 l 408 593 m 766 720 q 759 733 769 723 q 734 752 748 743 q 705 768 719 762 q 687 768 691 773 q 650 693 661 734 q 622 612 638 651 q 625 606 619 611 q 638 598 630 602 q 654 592 645 594 q 666 593 662 590 l 766 720 m 895 70 l 875 70 l 875 85 l 932 85 l 932 70 l 911 70 l 911 17 l 895 17 l 895 70 m 939 84 l 960 84 l 972 31 l 984 84 l 1004 84 l 1004 16 l 991 16 l 991 69 l 978 16 l 966 16 l 952 69 l 952 16 l 939 16 l 939 84 "},"e":{"x_min":69.453125,"x_max":993.140625,"ha":770,"o":"m 483 580 q 561 587 518 585 q 650 591 605 590 q 736 592 694 592 q 809 590 777 591 q 781 493 794 537 q 748 396 768 448 q 675 398 718 397 q 586 399 632 400 q 499 397 541 398 q 426 395 456 396 q 404 324 415 358 q 381 253 393 289 q 461 254 415 253 q 555 257 506 255 q 652 263 604 259 q 738 271 700 266 q 686 145 713 205 q 626 21 659 84 q 479 15 556 16 q 327 13 402 14 q 185 13 252 12 q 69 14 118 14 q 129 257 100 136 q 189 500 158 377 q 256 745 220 622 q 333 998 291 869 q 491 1015 405 1009 q 663 1025 576 1022 q 836 1027 751 1027 q 993 1025 922 1026 q 938 886 965 956 q 884 746 911 815 q 804 747 850 747 q 711 745 759 747 q 616 742 662 744 q 531 736 569 740 q 506 658 519 698 q 483 580 494 619 "},"Ã":{"x_min":46,"x_max":1028,"ha":1074,"o":"m 536 4 q 345 42 434 4 q 189 148 255 81 q 84 304 122 215 q 46 496 46 394 q 84 687 46 597 q 189 843 122 776 q 345 949 255 910 q 536 988 434 988 q 727 949 637 988 q 883 843 816 910 q 989 687 950 776 q 1028 496 1028 597 q 989 304 1028 394 q 883 148 950 215 q 727 42 816 81 q 536 4 637 4 m 536 71 q 702 104 625 71 q 836 196 779 137 q 926 331 893 254 q 960 496 960 408 q 926 660 960 583 q 836 795 893 737 q 702 886 779 853 q 536 920 625 920 q 371 886 448 920 q 236 795 294 853 q 144 660 177 737 q 111 496 111 583 q 144 331 111 408 q 236 196 177 254 q 371 104 294 137 q 536 71 448 71 m 536 100 q 382 131 454 100 q 256 216 311 162 q 171 341 202 269 q 140 496 140 414 q 171 648 140 576 q 256 773 202 719 q 382 857 311 826 q 536 887 454 887 q 688 857 616 887 q 814 773 761 826 q 899 648 868 719 q 930 496 930 576 q 899 341 930 414 q 814 216 868 269 q 688 131 761 162 q 536 100 616 100 m 536 161 q 611 175 576 161 q 673 211 646 190 q 723 259 701 233 q 758 309 744 286 q 537 281 647 280 q 314 309 426 281 q 348 259 327 286 q 398 211 369 233 q 460 175 426 190 q 536 161 494 161 m 300 330 q 773 330 534 276 l 848 450 l 223 450 l 300 330 m 590 496 l 537 622 l 484 496 l 590 496 m 408 593 q 418 592 411 590 q 434 598 426 594 q 448 606 443 602 q 454 612 454 611 q 422 693 434 651 q 386 768 409 734 q 368 768 381 773 q 339 752 354 762 q 313 733 325 743 q 305 720 302 723 l 408 593 m 766 720 q 759 733 769 723 q 734 752 748 743 q 705 768 719 762 q 687 768 691 773 q 650 693 661 734 q 622 612 638 651 q 625 606 619 611 q 638 598 630 602 q 654 592 645 594 q 666 593 662 590 l 766 720 m 895 70 l 875 70 l 875 85 l 932 85 l 932 70 l 911 70 l 911 17 l 895 17 l 895 70 m 939 84 l 960 84 l 972 31 l 984 84 l 1004 84 l 1004 16 l 991 16 l 991 69 l 978 16 l 966 16 l 952 69 l 952 16 l 939 16 l 939 84 "},"J":{"x_min":102.78125,"x_max":1112.59375,"ha":921,"o":"m 377 459 q 371 390 372 431 q 380 311 370 349 q 413 245 390 272 q 477 218 436 218 q 536 234 508 218 q 583 279 563 251 q 634 380 612 320 q 675 505 657 440 q 709 635 694 571 q 736 752 723 700 q 688 753 715 753 q 633 753 662 753 q 563 752 600 753 q 492 751 526 752 q 427 748 458 750 q 373 745 395 746 q 397 809 383 774 q 428 881 412 844 q 461 952 444 918 q 495 1014 479 986 q 691 1024 590 1021 q 884 1028 791 1028 q 1009 1025 951 1028 q 1112 1018 1068 1022 q 1060 843 1087 936 q 1004 657 1033 751 q 947 473 976 563 q 887 303 918 383 q 816 170 858 230 q 716 69 773 110 q 589 6 659 27 q 434 -10 519 -14 q 301 23 359 -5 q 201 99 243 52 q 134 206 159 147 q 102 329 109 266 q 165 365 129 347 q 240 402 202 384 q 313 433 277 419 q 377 459 350 448 "},"»":{"x_min":46,"x_max":1028,"ha":1074,"o":"m 536 4 q 345 42 434 4 q 189 148 255 81 q 84 304 122 215 q 46 496 46 394 q 84 687 46 597 q 189 843 122 776 q 345 949 255 910 q 536 988 434 988 q 727 949 637 988 q 883 843 816 910 q 989 687 950 776 q 1028 496 1028 597 q 989 304 1028 394 q 883 148 950 215 q 727 42 816 81 q 536 4 637 4 m 536 71 q 702 104 625 71 q 836 196 779 137 q 926 331 893 254 q 960 496 960 408 q 926 660 960 583 q 836 795 893 737 q 702 886 779 853 q 536 920 625 920 q 371 886 448 920 q 236 795 294 853 q 144 660 177 737 q 111 496 111 583 q 144 331 111 408 q 236 196 177 254 q 371 104 294 137 q 536 71 448 71 m 536 100 q 382 131 454 100 q 256 216 311 162 q 171 341 202 269 q 140 496 140 414 q 171 648 140 576 q 256 773 202 719 q 382 857 311 826 q 536 887 454 887 q 688 857 616 887 q 814 773 761 826 q 899 648 868 719 q 930 496 930 576 q 899 341 930 414 q 814 216 868 269 q 688 131 761 162 q 536 100 616 100 m 536 161 q 611 175 576 161 q 673 211 646 190 q 723 259 701 233 q 758 309 744 286 q 537 281 647 280 q 314 309 426 281 q 348 259 327 286 q 398 211 369 233 q 460 175 426 190 q 536 161 494 161 m 300 330 q 773 330 534 276 l 848 450 l 223 450 l 300 330 m 590 496 l 537 622 l 484 496 l 590 496 m 408 593 q 418 592 411 590 q 434 598 426 594 q 448 606 443 602 q 454 612 454 611 q 422 693 434 651 q 386 768 409 734 q 368 768 381 773 q 339 752 354 762 q 313 733 325 743 q 305 720 302 723 l 408 593 m 766 720 q 759 733 769 723 q 734 752 748 743 q 705 768 719 762 q 687 768 691 773 q 650 693 661 734 q 622 612 638 651 q 625 606 619 611 q 638 598 630 602 q 654 592 645 594 q 666 593 662 590 l 766 720 m 895 70 l 875 70 l 875 85 l 932 85 l 932 70 l 911 70 l 911 17 l 895 17 l 895 70 m 939 84 l 960 84 l 972 31 l 984 84 l 1004 84 l 1004 16 l 991 16 l 991 69 l 978 16 l 966 16 l 952 69 l 952 16 l 939 16 l 939 84 "},"©":{"x_min":55.921875,"x_max":1081,"ha":1137,"o":"m 569 1010 q 765 971 672 1010 q 928 865 858 933 q 1040 703 999 797 q 1081 500 1081 609 q 1040 293 1081 387 q 928 131 999 200 q 765 24 858 62 q 569 -13 672 -13 q 372 24 465 -13 q 208 131 279 62 q 96 293 137 200 q 55 500 55 387 q 96 703 55 609 q 208 865 137 797 q 372 971 279 933 q 569 1010 465 1010 m 569 924 q 407 892 482 924 q 277 803 332 860 q 190 668 222 746 q 158 500 158 590 q 190 329 158 407 q 277 194 222 251 q 407 105 332 137 q 569 73 482 73 q 730 105 655 73 q 859 194 804 137 q 946 329 915 251 q 978 500 978 407 q 946 668 978 590 q 859 803 915 746 q 730 892 804 860 q 569 924 655 924 m 836 404 q 803 313 826 354 q 748 244 780 272 q 674 201 715 216 q 586 186 633 186 q 462 210 518 186 q 368 277 407 234 q 307 377 329 319 q 286 501 286 434 q 306 625 286 568 q 365 724 326 682 q 458 789 404 765 q 582 813 512 813 q 749 758 679 813 q 834 599 819 704 l 744 599 q 689 690 733 656 q 583 725 645 725 q 500 707 536 725 q 439 660 464 690 q 401 590 414 630 q 389 502 389 550 q 402 416 389 457 q 442 343 416 375 q 504 292 468 311 q 586 274 540 274 q 693 310 650 274 q 744 404 736 346 l 836 404 "},"ò":{"x_min":46,"x_max":1028,"ha":1074,"o":"m 536 4 q 345 42 434 4 q 189 148 255 81 q 84 304 122 215 q 46 496 46 394 q 84 687 46 597 q 189 843 122 776 q 345 949 255 910 q 536 988 434 988 q 727 949 637 988 q 883 843 816 910 q 989 687 950 776 q 1028 496 1028 597 q 989 304 1028 394 q 883 148 950 215 q 727 42 816 81 q 536 4 637 4 m 536 71 q 702 104 625 71 q 836 196 779 137 q 926 331 893 254 q 960 496 960 408 q 926 660 960 583 q 836 795 893 737 q 702 886 779 853 q 536 920 625 920 q 371 886 448 920 q 236 795 294 853 q 144 660 177 737 q 111 496 111 583 q 144 331 111 408 q 236 196 177 254 q 371 104 294 137 q 536 71 448 71 m 536 100 q 382 131 454 100 q 256 216 311 162 q 171 341 202 269 q 140 496 140 414 q 171 648 140 576 q 256 773 202 719 q 382 857 311 826 q 536 887 454 887 q 688 857 616 887 q 814 773 761 826 q 899 648 868 719 q 930 496 930 576 q 899 341 930 414 q 814 216 868 269 q 688 131 761 162 q 536 100 616 100 m 536 161 q 611 175 576 161 q 673 211 646 190 q 723 259 701 233 q 758 309 744 286 q 537 281 647 280 q 314 309 426 281 q 348 259 327 286 q 398 211 369 233 q 460 175 426 190 q 536 161 494 161 m 300 330 q 773 330 534 276 l 848 450 l 223 450 l 300 330 m 590 496 l 537 622 l 484 496 l 590 496 m 408 593 q 418 592 411 590 q 434 598 426 594 q 448 606 443 602 q 454 612 454 611 q 422 693 434 651 q 386 768 409 734 q 368 768 381 773 q 339 752 354 762 q 313 733 325 743 q 305 720 302 723 l 408 593 m 766 720 q 759 733 769 723 q 734 752 748 743 q 705 768 719 762 q 687 768 691 773 q 650 693 661 734 q 622 612 638 651 q 625 606 619 611 q 638 598 630 602 q 654 592 645 594 q 666 593 662 590 l 766 720 m 895 70 l 875 70 l 875 85 l 932 85 l 932 70 l 911 70 l 911 17 l 895 17 l 895 70 m 939 84 l 960 84 l 972 31 l 984 84 l 1004 84 l 1004 16 l 991 16 l 991 69 l 978 16 l 966 16 l 952 69 l 952 16 l 939 16 l 939 84 "},"^":{"x_min":46,"x_max":1028,"ha":1074,"o":"m 536 4 q 345 42 434 4 q 189 148 255 81 q 84 304 122 215 q 46 496 46 394 q 84 687 46 597 q 189 843 122 776 q 345 949 255 910 q 536 988 434 988 q 727 949 637 988 q 883 843 816 910 q 989 687 950 776 q 1028 496 1028 597 q 989 304 1028 394 q 883 148 950 215 q 727 42 816 81 q 536 4 637 4 m 536 71 q 702 104 625 71 q 836 196 779 137 q 926 331 893 254 q 960 496 960 408 q 926 660 960 583 q 836 795 893 737 q 702 886 779 853 q 536 920 625 920 q 371 886 448 920 q 236 795 294 853 q 144 660 177 737 q 111 496 111 583 q 144 331 111 408 q 236 196 177 254 q 371 104 294 137 q 536 71 448 71 m 536 100 q 382 131 454 100 q 256 216 311 162 q 171 341 202 269 q 140 496 140 414 q 171 648 140 576 q 256 773 202 719 q 382 857 311 826 q 536 887 454 887 q 688 857 616 887 q 814 773 761 826 q 899 648 868 719 q 930 496 930 576 q 899 341 930 414 q 814 216 868 269 q 688 131 761 162 q 536 100 616 100 m 536 161 q 611 175 576 161 q 673 211 646 190 q 723 259 701 233 q 758 309 744 286 q 537 281 647 280 q 314 309 426 281 q 348 259 327 286 q 398 211 369 233 q 460 175 426 190 q 536 161 494 161 m 300 330 q 773 330 534 276 l 848 450 l 223 450 l 300 330 m 590 496 l 537 622 l 484 496 l 590 496 m 408 593 q 418 592 411 590 q 434 598 426 594 q 448 606 443 602 q 454 612 454 611 q 422 693 434 651 q 386 768 409 734 q 368 768 381 773 q 339 752 354 762 q 313 733 325 743 q 305 720 302 723 l 408 593 m 766 720 q 759 733 769 723 q 734 752 748 743 q 705 768 719 762 q 687 768 691 773 q 650 693 661 734 q 622 612 638 651 q 625 606 619 611 q 638 598 630 602 q 654 592 645 594 q 666 593 662 590 l 766 720 m 895 70 l 875 70 l 875 85 l 932 85 l 932 70 l 911 70 l 911 17 l 895 17 l 895 70 m 939 84 l 960 84 l 972 31 l 984 84 l 1004 84 l 1004 16 l 991 16 l 991 69 l 978 16 l 966 16 l 952 69 l 952 16 l 939 16 l 939 84 "},"«":{"x_min":46,"x_max":1028,"ha":1074,"o":"m 536 4 q 345 42 434 4 q 189 148 255 81 q 84 304 122 215 q 46 496 46 394 q 84 687 46 597 q 189 843 122 776 q 345 949 255 910 q 536 988 434 988 q 727 949 637 988 q 883 843 816 910 q 989 687 950 776 q 1028 496 1028 597 q 989 304 1028 394 q 883 148 950 215 q 727 42 816 81 q 536 4 637 4 m 536 71 q 702 104 625 71 q 836 196 779 137 q 926 331 893 254 q 960 496 960 408 q 926 660 960 583 q 836 795 893 737 q 702 886 779 853 q 536 920 625 920 q 371 886 448 920 q 236 795 294 853 q 144 660 177 737 q 111 496 111 583 q 144 331 111 408 q 236 196 177 254 q 371 104 294 137 q 536 71 448 71 m 536 100 q 382 131 454 100 q 256 216 311 162 q 171 341 202 269 q 140 496 140 414 q 171 648 140 576 q 256 773 202 719 q 382 857 311 826 q 536 887 454 887 q 688 857 616 887 q 814 773 761 826 q 899 648 868 719 q 930 496 930 576 q 899 341 930 414 q 814 216 868 269 q 688 131 761 162 q 536 100 616 100 m 536 161 q 611 175 576 161 q 673 211 646 190 q 723 259 701 233 q 758 309 744 286 q 537 281 647 280 q 314 309 426 281 q 348 259 327 286 q 398 211 369 233 q 460 175 426 190 q 536 161 494 161 m 300 330 q 773 330 534 276 l 848 450 l 223 450 l 300 330 m 590 496 l 537 622 l 484 496 l 590 496 m 408 593 q 418 592 411 590 q 434 598 426 594 q 448 606 443 602 q 454 612 454 611 q 422 693 434 651 q 386 768 409 734 q 368 768 381 773 q 339 752 354 762 q 313 733 325 743 q 305 720 302 723 l 408 593 m 766 720 q 759 733 769 723 q 734 752 748 743 q 705 768 719 762 q 687 768 691 773 q 650 693 661 734 q 622 612 638 651 q 625 606 619 611 q 638 598 630 602 q 654 592 645 594 q 666 593 662 590 l 766 720 m 895 70 l 875 70 l 875 85 l 932 85 l 932 70 l 911 70 l 911 17 l 895 17 l 895 70 m 939 84 l 960 84 l 972 31 l 984 84 l 1004 84 l 1004 16 l 991 16 l 991 69 l 978 16 l 966 16 l 952 69 l 952 16 l 939 16 l 939 84 "},"D":{"x_min":69.453125,"x_max":1038.9375,"ha":907,"o":"m 69 44 q 134 285 102 169 q 197 515 165 401 q 265 747 230 630 q 344 994 301 865 q 466 1028 395 1013 q 597 1044 536 1042 q 747 1035 673 1045 q 879 992 820 1024 q 980 899 938 959 q 1034 741 1022 838 q 1031 579 1044 662 q 985 419 1018 496 q 902 272 952 341 q 790 153 852 203 q 571 42 694 77 q 315 8 448 8 q 181 18 244 8 q 69 44 119 28 m 397 257 q 531 288 469 255 q 640 377 594 322 q 712 504 686 433 q 738 651 738 576 q 729 713 738 688 q 704 754 719 738 q 669 776 688 769 q 630 784 650 783 q 591 782 612 786 q 554 773 569 779 q 475 516 512 648 q 397 257 437 383 "},"ÿ":{"x_min":46,"x_max":1028,"ha":1074,"o":"m 536 4 q 345 42 434 4 q 189 148 255 81 q 84 304 122 215 q 46 496 46 394 q 84 687 46 597 q 189 843 122 776 q 345 949 255 910 q 536 988 434 988 q 727 949 637 988 q 883 843 816 910 q 989 687 950 776 q 1028 496 1028 597 q 989 304 1028 394 q 883 148 950 215 q 727 42 816 81 q 536 4 637 4 m 536 71 q 702 104 625 71 q 836 196 779 137 q 926 331 893 254 q 960 496 960 408 q 926 660 960 583 q 836 795 893 737 q 702 886 779 853 q 536 920 625 920 q 371 886 448 920 q 236 795 294 853 q 144 660 177 737 q 111 496 111 583 q 144 331 111 408 q 236 196 177 254 q 371 104 294 137 q 536 71 448 71 m 536 100 q 382 131 454 100 q 256 216 311 162 q 171 341 202 269 q 140 496 140 414 q 171 648 140 576 q 256 773 202 719 q 382 857 311 826 q 536 887 454 887 q 688 857 616 887 q 814 773 761 826 q 899 648 868 719 q 930 496 930 576 q 899 341 930 414 q 814 216 868 269 q 688 131 761 162 q 536 100 616 100 m 536 161 q 611 175 576 161 q 673 211 646 190 q 723 259 701 233 q 758 309 744 286 q 537 281 647 280 q 314 309 426 281 q 348 259 327 286 q 398 211 369 233 q 460 175 426 190 q 536 161 494 161 m 300 330 q 773 330 534 276 l 848 450 l 223 450 l 300 330 m 590 496 l 537 622 l 484 496 l 590 496 m 408 593 q 418 592 411 590 q 434 598 426 594 q 448 606 443 602 q 454 612 454 611 q 422 693 434 651 q 386 768 409 734 q 368 768 381 773 q 339 752 354 762 q 313 733 325 743 q 305 720 302 723 l 408 593 m 766 720 q 759 733 769 723 q 734 752 748 743 q 705 768 719 762 q 687 768 691 773 q 650 693 661 734 q 622 612 638 651 q 625 606 619 611 q 638 598 630 602 q 654 592 645 594 q 666 593 662 590 l 766 720 m 895 70 l 875 70 l 875 85 l 932 85 l 932 70 l 911 70 l 911 17 l 895 17 l 895 70 m 939 84 l 960 84 l 972 31 l 984 84 l 1004 84 l 1004 16 l 991 16 l 991 69 l 978 16 l 966 16 l 952 69 l 952 16 l 939 16 l 939 84 "},"í":{"x_min":46,"x_max":1028,"ha":1074,"o":"m 536 4 q 345 42 434 4 q 189 148 255 81 q 84 304 122 215 q 46 496 46 394 q 84 687 46 597 q 189 843 122 776 q 345 949 255 910 q 536 988 434 988 q 727 949 637 988 q 883 843 816 910 q 989 687 950 776 q 1028 496 1028 597 q 989 304 1028 394 q 883 148 950 215 q 727 42 816 81 q 536 4 637 4 m 536 71 q 702 104 625 71 q 836 196 779 137 q 926 331 893 254 q 960 496 960 408 q 926 660 960 583 q 836 795 893 737 q 702 886 779 853 q 536 920 625 920 q 371 886 448 920 q 236 795 294 853 q 144 660 177 737 q 111 496 111 583 q 144 331 111 408 q 236 196 177 254 q 371 104 294 137 q 536 71 448 71 m 536 100 q 382 131 454 100 q 256 216 311 162 q 171 341 202 269 q 140 496 140 414 q 171 648 140 576 q 256 773 202 719 q 382 857 311 826 q 536 887 454 887 q 688 857 616 887 q 814 773 761 826 q 899 648 868 719 q 930 496 930 576 q 899 341 930 414 q 814 216 868 269 q 688 131 761 162 q 536 100 616 100 m 536 161 q 611 175 576 161 q 673 211 646 190 q 723 259 701 233 q 758 309 744 286 q 537 281 647 280 q 314 309 426 281 q 348 259 327 286 q 398 211 369 233 q 460 175 426 190 q 536 161 494 161 m 300 330 q 773 330 534 276 l 848 450 l 223 450 l 300 330 m 590 496 l 537 622 l 484 496 l 590 496 m 408 593 q 418 592 411 590 q 434 598 426 594 q 448 606 443 602 q 454 612 454 611 q 422 693 434 651 q 386 768 409 734 q 368 768 381 773 q 339 752 354 762 q 313 733 325 743 q 305 720 302 723 l 408 593 m 766 720 q 759 733 769 723 q 734 752 748 743 q 705 768 719 762 q 687 768 691 773 q 650 693 661 734 q 622 612 638 651 q 625 606 619 611 q 638 598 630 602 q 654 592 645 594 q 666 593 662 590 l 766 720 m 895 70 l 875 70 l 875 85 l 932 85 l 932 70 l 911 70 l 911 17 l 895 17 l 895 70 m 939 84 l 960 84 l 972 31 l 984 84 l 1004 84 l 1004 16 l 991 16 l 991 69 l 978 16 l 966 16 l 952 69 l 952 16 l 939 16 l 939 84 "},"w":{"x_min":280.203125,"x_max":1508.90625,"ha":1257,"o":"m 307 999 q 446 1008 376 1005 q 594 1008 517 1011 q 575 888 583 951 q 560 761 567 825 q 547 634 553 697 q 538 514 542 571 q 665 753 601 630 q 789 992 729 876 q 876 997 828 996 q 971 997 924 999 q 963 881 967 942 q 958 760 960 821 q 955 641 956 699 q 954 533 954 583 q 1074 777 1017 653 q 1181 1017 1131 901 q 1342 1020 1258 1019 q 1508 1015 1426 1021 q 1369 767 1438 890 q 1230 519 1300 643 q 1086 269 1160 394 q 932 17 1013 143 q 819 18 869 19 q 721 13 769 17 q 722 205 721 94 q 731 439 724 315 q 672 335 704 390 q 607 225 640 281 q 541 115 574 169 q 479 13 508 60 q 428 14 451 14 q 381 14 404 14 q 334 12 358 14 q 282 7 311 10 q 283 493 277 242 q 307 999 288 744 "},"$":{"x_min":147.234375,"x_max":855.625,"ha":658,"o":"m 829 828 q 723 836 777 837 q 616 822 669 835 q 564 799 590 815 q 531 757 538 783 q 539 712 525 733 q 577 676 554 691 q 602 664 587 671 q 634 651 616 658 q 670 635 652 643 q 705 618 688 628 q 751 550 751 590 q 731 487 751 516 q 679 434 711 458 q 607 391 647 410 q 526 360 566 372 q 517 288 523 328 q 508 217 511 248 q 446 218 481 218 q 383 217 411 218 q 400 280 388 244 q 413 346 411 317 q 278 342 347 339 q 147 356 209 344 q 161 438 155 397 q 170 520 168 478 q 245 500 204 506 q 326 495 287 495 q 361 497 340 495 q 402 504 381 499 q 438 520 422 510 q 461 546 455 531 q 451 610 472 581 q 412 644 436 629 q 361 674 388 658 q 320 696 341 683 q 282 722 300 708 q 254 753 265 736 q 243 789 243 769 q 254 829 243 810 q 285 865 266 849 q 325 895 304 882 q 365 917 345 908 q 458 951 416 939 q 552 969 500 962 q 566 1052 559 1007 q 573 1135 572 1097 q 634 1133 601 1133 q 695 1135 668 1133 q 676 1057 686 1100 q 661 979 666 1014 q 758 982 702 980 q 855 980 813 983 q 829 828 838 907 "},"\\":{"x_min":46,"x_max":1028,"ha":1074,"o":"m 536 4 q 345 42 434 4 q 189 148 255 81 q 84 304 122 215 q 46 496 46 394 q 84 687 46 597 q 189 843 122 776 q 345 949 255 910 q 536 988 434 988 q 727 949 637 988 q 883 843 816 910 q 989 687 950 776 q 1028 496 1028 597 q 989 304 1028 394 q 883 148 950 215 q 727 42 816 81 q 536 4 637 4 m 536 71 q 702 104 625 71 q 836 196 779 137 q 926 331 893 254 q 960 496 960 408 q 926 660 960 583 q 836 795 893 737 q 702 886 779 853 q 536 920 625 920 q 371 886 448 920 q 236 795 294 853 q 144 660 177 737 q 111 496 111 583 q 144 331 111 408 q 236 196 177 254 q 371 104 294 137 q 536 71 448 71 m 536 100 q 382 131 454 100 q 256 216 311 162 q 171 341 202 269 q 140 496 140 414 q 171 648 140 576 q 256 773 202 719 q 382 857 311 826 q 536 887 454 887 q 688 857 616 887 q 814 773 761 826 q 899 648 868 719 q 930 496 930 576 q 899 341 930 414 q 814 216 868 269 q 688 131 761 162 q 536 100 616 100 m 536 161 q 611 175 576 161 q 673 211 646 190 q 723 259 701 233 q 758 309 744 286 q 537 281 647 280 q 314 309 426 281 q 348 259 327 286 q 398 211 369 233 q 460 175 426 190 q 536 161 494 161 m 300 330 q 773 330 534 276 l 848 450 l 223 450 l 300 330 m 590 496 l 537 622 l 484 496 l 590 496 m 408 593 q 418 592 411 590 q 434 598 426 594 q 448 606 443 602 q 454 612 454 611 q 422 693 434 651 q 386 768 409 734 q 368 768 381 773 q 339 752 354 762 q 313 733 325 743 q 305 720 302 723 l 408 593 m 766 720 q 759 733 769 723 q 734 752 748 743 q 705 768 719 762 q 687 768 691 773 q 650 693 661 734 q 622 612 638 651 q 625 606 619 611 q 638 598 630 602 q 654 592 645 594 q 666 593 662 590 l 766 720 m 895 70 l 875 70 l 875 85 l 932 85 l 932 70 l 911 70 l 911 17 l 895 17 l 895 70 m 939 84 l 960 84 l 972 31 l 984 84 l 1004 84 l 1004 16 l 991 16 l 991 69 l 978 16 l 966 16 l 952 69 l 952 16 l 939 16 l 939 84 "},"Ì":{"x_min":46,"x_max":1028,"ha":1074,"o":"m 536 4 q 345 42 434 4 q 189 148 255 81 q 84 304 122 215 q 46 496 46 394 q 84 687 46 597 q 189 843 122 776 q 345 949 255 910 q 536 988 434 988 q 727 949 637 988 q 883 843 816 910 q 989 687 950 776 q 1028 496 1028 597 q 989 304 1028 394 q 883 148 950 215 q 727 42 816 81 q 536 4 637 4 m 536 71 q 702 104 625 71 q 836 196 779 137 q 926 331 893 254 q 960 496 960 408 q 926 660 960 583 q 836 795 893 737 q 702 886 779 853 q 536 920 625 920 q 371 886 448 920 q 236 795 294 853 q 144 660 177 737 q 111 496 111 583 q 144 331 111 408 q 236 196 177 254 q 371 104 294 137 q 536 71 448 71 m 536 100 q 382 131 454 100 q 256 216 311 162 q 171 341 202 269 q 140 496 140 414 q 171 648 140 576 q 256 773 202 719 q 382 857 311 826 q 536 887 454 887 q 688 857 616 887 q 814 773 761 826 q 899 648 868 719 q 930 496 930 576 q 899 341 930 414 q 814 216 868 269 q 688 131 761 162 q 536 100 616 100 m 536 161 q 611 175 576 161 q 673 211 646 190 q 723 259 701 233 q 758 309 744 286 q 537 281 647 280 q 314 309 426 281 q 348 259 327 286 q 398 211 369 233 q 460 175 426 190 q 536 161 494 161 m 300 330 q 773 330 534 276 l 848 450 l 223 450 l 300 330 m 590 496 l 537 622 l 484 496 l 590 496 m 408 593 q 418 592 411 590 q 434 598 426 594 q 448 606 443 602 q 454 612 454 611 q 422 693 434 651 q 386 768 409 734 q 368 768 381 773 q 339 752 354 762 q 313 733 325 743 q 305 720 302 723 l 408 593 m 766 720 q 759 733 769 723 q 734 752 748 743 q 705 768 719 762 q 687 768 691 773 q 650 693 661 734 q 622 612 638 651 q 625 606 619 611 q 638 598 630 602 q 654 592 645 594 q 666 593 662 590 l 766 720 m 895 70 l 875 70 l 875 85 l 932 85 l 932 70 l 911 70 l 911 17 l 895 17 l 895 70 m 939 84 l 960 84 l 972 31 l 984 84 l 1004 84 l 1004 16 l 991 16 l 991 69 l 978 16 l 966 16 l 952 69 l 952 16 l 939 16 l 939 84 "},"µ":{"x_min":46,"x_max":1028,"ha":1074,"o":"m 536 4 q 345 42 434 4 q 189 148 255 81 q 84 304 122 215 q 46 496 46 394 q 84 687 46 597 q 189 843 122 776 q 345 949 255 910 q 536 988 434 988 q 727 949 637 988 q 883 843 816 910 q 989 687 950 776 q 1028 496 1028 597 q 989 304 1028 394 q 883 148 950 215 q 727 42 816 81 q 536 4 637 4 m 536 71 q 702 104 625 71 q 836 196 779 137 q 926 331 893 254 q 960 496 960 408 q 926 660 960 583 q 836 795 893 737 q 702 886 779 853 q 536 920 625 920 q 371 886 448 920 q 236 795 294 853 q 144 660 177 737 q 111 496 111 583 q 144 331 111 408 q 236 196 177 254 q 371 104 294 137 q 536 71 448 71 m 536 100 q 382 131 454 100 q 256 216 311 162 q 171 341 202 269 q 140 496 140 414 q 171 648 140 576 q 256 773 202 719 q 382 857 311 826 q 536 887 454 887 q 688 857 616 887 q 814 773 761 826 q 899 648 868 719 q 930 496 930 576 q 899 341 930 414 q 814 216 868 269 q 688 131 761 162 q 536 100 616 100 m 536 161 q 611 175 576 161 q 673 211 646 190 q 723 259 701 233 q 758 309 744 286 q 537 281 647 280 q 314 309 426 281 q 348 259 327 286 q 398 211 369 233 q 460 175 426 190 q 536 161 494 161 m 300 330 q 773 330 534 276 l 848 450 l 223 450 l 300 330 m 590 496 l 537 622 l 484 496 l 590 496 m 408 593 q 418 592 411 590 q 434 598 426 594 q 448 606 443 602 q 454 612 454 611 q 422 693 434 651 q 386 768 409 734 q 368 768 381 773 q 339 752 354 762 q 313 733 325 743 q 305 720 302 723 l 408 593 m 766 720 q 759 733 769 723 q 734 752 748 743 q 705 768 719 762 q 687 768 691 773 q 650 693 661 734 q 622 612 638 651 q 625 606 619 611 q 638 598 630 602 q 654 592 645 594 q 666 593 662 590 l 766 720 m 895 70 l 875 70 l 875 85 l 932 85 l 932 70 l 911 70 l 911 17 l 895 17 l 895 70 m 939 84 l 960 84 l 972 31 l 984 84 l 1004 84 l 1004 16 l 991 16 l 991 69 l 978 16 l 966 16 l 952 69 l 952 16 l 939 16 l 939 84 "},"Ç":{"x_min":46,"x_max":1028,"ha":1074,"o":"m 536 4 q 345 42 434 4 q 189 148 255 81 q 84 304 122 215 q 46 496 46 394 q 84 687 46 597 q 189 843 122 776 q 345 949 255 910 q 536 988 434 988 q 727 949 637 988 q 883 843 816 910 q 989 687 950 776 q 1028 496 1028 597 q 989 304 1028 394 q 883 148 950 215 q 727 42 816 81 q 536 4 637 4 m 536 71 q 702 104 625 71 q 836 196 779 137 q 926 331 893 254 q 960 496 960 408 q 926 660 960 583 q 836 795 893 737 q 702 886 779 853 q 536 920 625 920 q 371 886 448 920 q 236 795 294 853 q 144 660 177 737 q 111 496 111 583 q 144 331 111 408 q 236 196 177 254 q 371 104 294 137 q 536 71 448 71 m 536 100 q 382 131 454 100 q 256 216 311 162 q 171 341 202 269 q 140 496 140 414 q 171 648 140 576 q 256 773 202 719 q 382 857 311 826 q 536 887 454 887 q 688 857 616 887 q 814 773 761 826 q 899 648 868 719 q 930 496 930 576 q 899 341 930 414 q 814 216 868 269 q 688 131 761 162 q 536 100 616 100 m 536 161 q 611 175 576 161 q 673 211 646 190 q 723 259 701 233 q 758 309 744 286 q 537 281 647 280 q 314 309 426 281 q 348 259 327 286 q 398 211 369 233 q 460 175 426 190 q 536 161 494 161 m 300 330 q 773 330 534 276 l 848 450 l 223 450 l 300 330 m 590 496 l 537 622 l 484 496 l 590 496 m 408 593 q 418 592 411 590 q 434 598 426 594 q 448 606 443 602 q 454 612 454 611 q 422 693 434 651 q 386 768 409 734 q 368 768 381 773 q 339 752 354 762 q 313 733 325 743 q 305 720 302 723 l 408 593 m 766 720 q 759 733 769 723 q 734 752 748 743 q 705 768 719 762 q 687 768 691 773 q 650 693 661 734 q 622 612 638 651 q 625 606 619 611 q 638 598 630 602 q 654 592 645 594 q 666 593 662 590 l 766 720 m 895 70 l 875 70 l 875 85 l 932 85 l 932 70 l 911 70 l 911 17 l 895 17 l 895 70 m 939 84 l 960 84 l 972 31 l 984 84 l 1004 84 l 1004 16 l 991 16 l 991 69 l 978 16 l 966 16 l 952 69 l 952 16 l 939 16 l 939 84 "},"-":{"x_min":166.6875,"x_max":648.65625,"ha":586,"o":"m 233 592 q 450 601 348 599 q 648 602 552 603 q 622 490 637 546 q 588 381 607 435 q 381 382 484 381 q 166 379 279 383 q 193 481 177 429 q 233 592 209 533 "},"Q":{"x_min":161.34375,"x_max":1196.65625,"ha":1118,"o":"m 1020 205 q 1071 119 1044 170 q 1119 27 1098 69 q 1059 -7 1091 10 q 993 -43 1027 -25 q 922 -76 958 -61 q 854 -103 887 -91 q 842 -68 850 -89 q 825 -24 834 -47 q 806 21 816 -1 q 787 62 795 44 q 656 22 725 37 q 520 9 587 8 q 357 44 429 10 q 240 137 286 78 q 174 275 194 195 q 165 449 154 355 q 248 712 184 599 q 402 899 312 824 q 598 1011 491 973 q 812 1050 705 1048 q 1086 952 990 1038 q 1194 719 1183 866 q 1191 577 1200 648 q 1160 440 1182 506 q 1103 313 1138 373 q 1020 205 1068 252 m 730 725 q 635 705 682 725 q 550 653 588 686 q 482 576 511 620 q 441 481 454 531 q 438 367 426 418 q 484 285 451 316 q 568 245 518 254 q 680 256 619 236 q 573 393 632 327 q 619 417 600 406 q 656 437 638 427 q 695 457 675 447 q 745 480 716 468 q 801 431 773 455 q 854 381 829 406 q 901 481 888 424 q 907 575 913 531 q 876 652 900 619 q 815 705 852 686 q 730 725 777 725 "},"M":{"x_min":62.5,"x_max":1294.546875,"ha":1222,"o":"m 62 17 q 154 274 109 149 q 243 522 198 399 q 338 764 288 644 q 444 1008 387 884 q 588 1015 522 1015 q 730 1009 654 1015 q 736 905 733 960 q 744 792 740 849 q 753 679 748 734 q 763 573 758 623 q 887 787 826 673 q 1011 1001 948 901 q 1086 1009 1052 1006 q 1152 1013 1119 1012 q 1218 1012 1184 1013 q 1294 1008 1252 1010 q 1264 763 1279 888 q 1235 510 1250 637 q 1207 259 1220 383 q 1180 22 1193 135 q 1055 22 1113 24 q 930 17 997 19 q 936 134 933 71 q 941 262 938 197 q 947 389 944 326 q 955 505 951 451 q 822 262 888 386 q 686 21 757 137 q 641 23 659 22 q 607 23 623 23 q 575 22 591 23 q 534 19 558 21 q 525 137 529 75 q 517 260 520 198 q 512 384 513 323 q 511 502 511 445 q 404 247 445 367 q 318 15 362 127 q 190 21 251 22 q 62 17 129 21 "},"C":{"x_min":147.6875,"x_max":1072.3125,"ha":882,"o":"m 955 701 q 780 716 868 727 q 618 661 693 704 q 492 547 544 618 q 423 384 440 476 q 438 291 416 337 q 520 230 461 245 q 590 222 554 223 q 670 228 626 220 q 768 254 713 236 q 893 308 822 273 q 863 232 876 263 q 836 173 850 201 q 804 116 822 145 q 762 48 787 87 q 651 9 711 20 q 543 -4 591 -1 q 365 27 443 -5 q 236 116 287 59 q 162 252 184 173 q 151 425 140 331 q 206 618 163 527 q 311 781 248 708 q 456 907 375 854 q 629 987 537 959 q 749 1013 688 1005 q 866 1021 809 1020 q 975 1018 923 1022 q 1072 1008 1027 1013 q 1036 915 1051 952 q 1008 845 1020 877 q 984 781 995 813 q 955 701 972 748 "},"!":{"x_min":108.515625,"x_max":688.9375,"ha":467,"o":"m 204 329 q 221 447 211 383 q 245 577 231 511 q 272 707 258 643 q 300 830 286 772 q 328 932 315 887 q 352 1005 341 978 q 523 1023 436 1023 q 688 1015 611 1022 q 600 836 643 929 q 520 652 558 743 q 452 479 483 561 q 398 335 420 397 q 297 337 341 339 q 204 329 252 336 m 301 274 q 359 262 333 274 q 401 233 384 251 q 425 189 418 214 q 425 135 431 164 q 400 80 418 105 q 358 35 383 54 q 302 6 333 16 q 238 -4 270 -4 q 136 39 172 -1 q 111 136 100 79 q 136 191 118 165 q 181 235 155 217 q 237 264 206 254 q 301 274 268 275 "},"ç":{"x_min":46,"x_max":1028,"ha":1074,"o":"m 536 4 q 345 42 434 4 q 189 148 255 81 q 84 304 122 215 q 46 496 46 394 q 84 687 46 597 q 189 843 122 776 q 345 949 255 910 q 536 988 434 988 q 727 949 637 988 q 883 843 816 910 q 989 687 950 776 q 1028 496 1028 597 q 989 304 1028 394 q 883 148 950 215 q 727 42 816 81 q 536 4 637 4 m 536 71 q 702 104 625 71 q 836 196 779 137 q 926 331 893 254 q 960 496 960 408 q 926 660 960 583 q 836 795 893 737 q 702 886 779 853 q 536 920 625 920 q 371 886 448 920 q 236 795 294 853 q 144 660 177 737 q 111 496 111 583 q 144 331 111 408 q 236 196 177 254 q 371 104 294 137 q 536 71 448 71 m 536 100 q 382 131 454 100 q 256 216 311 162 q 171 341 202 269 q 140 496 140 414 q 171 648 140 576 q 256 773 202 719 q 382 857 311 826 q 536 887 454 887 q 688 857 616 887 q 814 773 761 826 q 899 648 868 719 q 930 496 930 576 q 899 341 930 414 q 814 216 868 269 q 688 131 761 162 q 536 100 616 100 m 536 161 q 611 175 576 161 q 673 211 646 190 q 723 259 701 233 q 758 309 744 286 q 537 281 647 280 q 314 309 426 281 q 348 259 327 286 q 398 211 369 233 q 460 175 426 190 q 536 161 494 161 m 300 330 q 773 330 534 276 l 848 450 l 223 450 l 300 330 m 590 496 l 537 622 l 484 496 l 590 496 m 408 593 q 418 592 411 590 q 434 598 426 594 q 448 606 443 602 q 454 612 454 611 q 422 693 434 651 q 386 768 409 734 q 368 768 381 773 q 339 752 354 762 q 313 733 325 743 q 305 720 302 723 l 408 593 m 766 720 q 759 733 769 723 q 734 752 748 743 q 705 768 719 762 q 687 768 691 773 q 650 693 661 734 q 622 612 638 651 q 625 606 619 611 q 638 598 630 602 q 654 592 645 594 q 666 593 662 590 l 766 720 m 895 70 l 875 70 l 875 85 l 932 85 l 932 70 l 911 70 l 911 17 l 895 17 l 895 70 m 939 84 l 960 84 l 972 31 l 984 84 l 1004 84 l 1004 16 l 991 16 l 991 69 l 978 16 l 966 16 l 952 69 l 952 16 l 939 16 l 939 84 "},"È":{"x_min":46,"x_max":1028,"ha":1074,"o":"m 536 4 q 345 42 434 4 q 189 148 255 81 q 84 304 122 215 q 46 496 46 394 q 84 687 46 597 q 189 843 122 776 q 345 949 255 910 q 536 988 434 988 q 727 949 637 988 q 883 843 816 910 q 989 687 950 776 q 1028 496 1028 597 q 989 304 1028 394 q 883 148 950 215 q 727 42 816 81 q 536 4 637 4 m 536 71 q 702 104 625 71 q 836 196 779 137 q 926 331 893 254 q 960 496 960 408 q 926 660 960 583 q 836 795 893 737 q 702 886 779 853 q 536 920 625 920 q 371 886 448 920 q 236 795 294 853 q 144 660 177 737 q 111 496 111 583 q 144 331 111 408 q 236 196 177 254 q 371 104 294 137 q 536 71 448 71 m 536 100 q 382 131 454 100 q 256 216 311 162 q 171 341 202 269 q 140 496 140 414 q 171 648 140 576 q 256 773 202 719 q 382 857 311 826 q 536 887 454 887 q 688 857 616 887 q 814 773 761 826 q 899 648 868 719 q 930 496 930 576 q 899 341 930 414 q 814 216 868 269 q 688 131 761 162 q 536 100 616 100 m 536 161 q 611 175 576 161 q 673 211 646 190 q 723 259 701 233 q 758 309 744 286 q 537 281 647 280 q 314 309 426 281 q 348 259 327 286 q 398 211 369 233 q 460 175 426 190 q 536 161 494 161 m 300 330 q 773 330 534 276 l 848 450 l 223 450 l 300 330 m 590 496 l 537 622 l 484 496 l 590 496 m 408 593 q 418 592 411 590 q 434 598 426 594 q 448 606 443 602 q 454 612 454 611 q 422 693 434 651 q 386 768 409 734 q 368 768 381 773 q 339 752 354 762 q 313 733 325 743 q 305 720 302 723 l 408 593 m 766 720 q 759 733 769 723 q 734 752 748 743 q 705 768 719 762 q 687 768 691 773 q 650 693 661 734 q 622 612 638 651 q 625 606 619 611 q 638 598 630 602 q 654 592 645 594 q 666 593 662 590 l 766 720 m 895 70 l 875 70 l 875 85 l 932 85 l 932 70 l 911 70 l 911 17 l 895 17 l 895 70 m 939 84 l 960 84 l 972 31 l 984 84 l 1004 84 l 1004 16 l 991 16 l 991 69 l 978 16 l 966 16 l 952 69 l 952 16 l 939 16 l 939 84 "},"{":{"x_min":46,"x_max":1028,"ha":1074,"o":"m 536 4 q 345 42 434 4 q 189 148 255 81 q 84 304 122 215 q 46 496 46 394 q 84 687 46 597 q 189 843 122 776 q 345 949 255 910 q 536 988 434 988 q 727 949 637 988 q 883 843 816 910 q 989 687 950 776 q 1028 496 1028 597 q 989 304 1028 394 q 883 148 950 215 q 727 42 816 81 q 536 4 637 4 m 536 71 q 702 104 625 71 q 836 196 779 137 q 926 331 893 254 q 960 496 960 408 q 926 660 960 583 q 836 795 893 737 q 702 886 779 853 q 536 920 625 920 q 371 886 448 920 q 236 795 294 853 q 144 660 177 737 q 111 496 111 583 q 144 331 111 408 q 236 196 177 254 q 371 104 294 137 q 536 71 448 71 m 536 100 q 382 131 454 100 q 256 216 311 162 q 171 341 202 269 q 140 496 140 414 q 171 648 140 576 q 256 773 202 719 q 382 857 311 826 q 536 887 454 887 q 688 857 616 887 q 814 773 761 826 q 899 648 868 719 q 930 496 930 576 q 899 341 930 414 q 814 216 868 269 q 688 131 761 162 q 536 100 616 100 m 536 161 q 611 175 576 161 q 673 211 646 190 q 723 259 701 233 q 758 309 744 286 q 537 281 647 280 q 314 309 426 281 q 348 259 327 286 q 398 211 369 233 q 460 175 426 190 q 536 161 494 161 m 300 330 q 773 330 534 276 l 848 450 l 223 450 l 300 330 m 590 496 l 537 622 l 484 496 l 590 496 m 408 593 q 418 592 411 590 q 434 598 426 594 q 448 606 443 602 q 454 612 454 611 q 422 693 434 651 q 386 768 409 734 q 368 768 381 773 q 339 752 354 762 q 313 733 325 743 q 305 720 302 723 l 408 593 m 766 720 q 759 733 769 723 q 734 752 748 743 q 705 768 719 762 q 687 768 691 773 q 650 693 661 734 q 622 612 638 651 q 625 606 619 611 q 638 598 630 602 q 654 592 645 594 q 666 593 662 590 l 766 720 m 895 70 l 875 70 l 875 85 l 932 85 l 932 70 l 911 70 l 911 17 l 895 17 l 895 70 m 939 84 l 960 84 l 972 31 l 984 84 l 1004 84 l 1004 16 l 991 16 l 991 69 l 978 16 l 966 16 l 952 69 l 952 16 l 939 16 l 939 84 "},"X":{"x_min":36.109375,"x_max":1173.703125,"ha":907,"o":"m 388 526 q 367 639 380 579 q 339 759 354 698 q 309 882 325 821 q 277 1000 293 943 q 433 1012 362 1011 q 587 1005 504 1012 q 595 925 588 971 q 608 835 601 880 q 622 750 615 790 q 634 687 629 711 q 748 851 691 765 q 855 1016 805 937 q 1013 1023 933 1023 q 1173 1019 1093 1023 q 1067 886 1118 951 q 968 756 1016 821 q 870 626 919 691 q 769 493 820 561 q 790 412 776 465 q 821 293 804 358 q 857 161 838 229 q 894 39 876 94 q 816 32 852 36 q 745 23 780 27 q 672 11 709 18 q 594 -4 636 4 q 584 79 590 32 q 570 175 577 126 q 553 269 562 223 q 536 348 544 315 q 491 269 515 312 q 447 187 468 226 q 400 103 423 146 q 351 21 376 61 q 190 30 269 30 q 36 23 112 29 q 120 139 79 82 q 204 256 162 196 q 291 382 245 316 q 388 526 336 448 "},"ô":{"x_min":46,"x_max":1028,"ha":1074,"o":"m 536 4 q 345 42 434 4 q 189 148 255 81 q 84 304 122 215 q 46 496 46 394 q 84 687 46 597 q 189 843 122 776 q 345 949 255 910 q 536 988 434 988 q 727 949 637 988 q 883 843 816 910 q 989 687 950 776 q 1028 496 1028 597 q 989 304 1028 394 q 883 148 950 215 q 727 42 816 81 q 536 4 637 4 m 536 71 q 702 104 625 71 q 836 196 779 137 q 926 331 893 254 q 960 496 960 408 q 926 660 960 583 q 836 795 893 737 q 702 886 779 853 q 536 920 625 920 q 371 886 448 920 q 236 795 294 853 q 144 660 177 737 q 111 496 111 583 q 144 331 111 408 q 236 196 177 254 q 371 104 294 137 q 536 71 448 71 m 536 100 q 382 131 454 100 q 256 216 311 162 q 171 341 202 269 q 140 496 140 414 q 171 648 140 576 q 256 773 202 719 q 382 857 311 826 q 536 887 454 887 q 688 857 616 887 q 814 773 761 826 q 899 648 868 719 q 930 496 930 576 q 899 341 930 414 q 814 216 868 269 q 688 131 761 162 q 536 100 616 100 m 536 161 q 611 175 576 161 q 673 211 646 190 q 723 259 701 233 q 758 309 744 286 q 537 281 647 280 q 314 309 426 281 q 348 259 327 286 q 398 211 369 233 q 460 175 426 190 q 536 161 494 161 m 300 330 q 773 330 534 276 l 848 450 l 223 450 l 300 330 m 590 496 l 537 622 l 484 496 l 590 496 m 408 593 q 418 592 411 590 q 434 598 426 594 q 448 606 443 602 q 454 612 454 611 q 422 693 434 651 q 386 768 409 734 q 368 768 381 773 q 339 752 354 762 q 313 733 325 743 q 305 720 302 723 l 408 593 m 766 720 q 759 733 769 723 q 734 752 748 743 q 705 768 719 762 q 687 768 691 773 q 650 693 661 734 q 622 612 638 651 q 625 606 619 611 q 638 598 630 602 q 654 592 645 594 q 666 593 662 590 l 766 720 m 895 70 l 875 70 l 875 85 l 932 85 l 932 70 l 911 70 l 911 17 l 895 17 l 895 70 m 939 84 l 960 84 l 972 31 l 984 84 l 1004 84 l 1004 16 l 991 16 l 991 69 l 978 16 l 966 16 l 952 69 l 952 16 l 939 16 l 939 84 "},"¼":{"x_min":46,"x_max":1028,"ha":1074,"o":"m 536 4 q 345 42 434 4 q 189 148 255 81 q 84 304 122 215 q 46 496 46 394 q 84 687 46 597 q 189 843 122 776 q 345 949 255 910 q 536 988 434 988 q 727 949 637 988 q 883 843 816 910 q 989 687 950 776 q 1028 496 1028 597 q 989 304 1028 394 q 883 148 950 215 q 727 42 816 81 q 536 4 637 4 m 536 71 q 702 104 625 71 q 836 196 779 137 q 926 331 893 254 q 960 496 960 408 q 926 660 960 583 q 836 795 893 737 q 702 886 779 853 q 536 920 625 920 q 371 886 448 920 q 236 795 294 853 q 144 660 177 737 q 111 496 111 583 q 144 331 111 408 q 236 196 177 254 q 371 104 294 137 q 536 71 448 71 m 536 100 q 382 131 454 100 q 256 216 311 162 q 171 341 202 269 q 140 496 140 414 q 171 648 140 576 q 256 773 202 719 q 382 857 311 826 q 536 887 454 887 q 688 857 616 887 q 814 773 761 826 q 899 648 868 719 q 930 496 930 576 q 899 341 930 414 q 814 216 868 269 q 688 131 761 162 q 536 100 616 100 m 536 161 q 611 175 576 161 q 673 211 646 190 q 723 259 701 233 q 758 309 744 286 q 537 281 647 280 q 314 309 426 281 q 348 259 327 286 q 398 211 369 233 q 460 175 426 190 q 536 161 494 161 m 300 330 q 773 330 534 276 l 848 450 l 223 450 l 300 330 m 590 496 l 537 622 l 484 496 l 590 496 m 408 593 q 418 592 411 590 q 434 598 426 594 q 448 606 443 602 q 454 612 454 611 q 422 693 434 651 q 386 768 409 734 q 368 768 381 773 q 339 752 354 762 q 313 733 325 743 q 305 720 302 723 l 408 593 m 766 720 q 759 733 769 723 q 734 752 748 743 q 705 768 719 762 q 687 768 691 773 q 650 693 661 734 q 622 612 638 651 q 625 606 619 611 q 638 598 630 602 q 654 592 645 594 q 666 593 662 590 l 766 720 m 895 70 l 875 70 l 875 85 l 932 85 l 932 70 l 911 70 l 911 17 l 895 17 l 895 70 m 939 84 l 960 84 l 972 31 l 984 84 l 1004 84 l 1004 16 l 991 16 l 991 69 l 978 16 l 966 16 l 952 69 l 952 16 l 939 16 l 939 84 "},"#":{"x_min":46,"x_max":1028,"ha":1074,"o":"m 536 4 q 345 42 434 4 q 189 148 255 81 q 84 304 122 215 q 46 496 46 394 q 84 687 46 597 q 189 843 122 776 q 345 949 255 910 q 536 988 434 988 q 727 949 637 988 q 883 843 816 910 q 989 687 950 776 q 1028 496 1028 597 q 989 304 1028 394 q 883 148 950 215 q 727 42 816 81 q 536 4 637 4 m 536 71 q 702 104 625 71 q 836 196 779 137 q 926 331 893 254 q 960 496 960 408 q 926 660 960 583 q 836 795 893 737 q 702 886 779 853 q 536 920 625 920 q 371 886 448 920 q 236 795 294 853 q 144 660 177 737 q 111 496 111 583 q 144 331 111 408 q 236 196 177 254 q 371 104 294 137 q 536 71 448 71 m 536 100 q 382 131 454 100 q 256 216 311 162 q 171 341 202 269 q 140 496 140 414 q 171 648 140 576 q 256 773 202 719 q 382 857 311 826 q 536 887 454 887 q 688 857 616 887 q 814 773 761 826 q 899 648 868 719 q 930 496 930 576 q 899 341 930 414 q 814 216 868 269 q 688 131 761 162 q 536 100 616 100 m 536 161 q 611 175 576 161 q 673 211 646 190 q 723 259 701 233 q 758 309 744 286 q 537 281 647 280 q 314 309 426 281 q 348 259 327 286 q 398 211 369 233 q 460 175 426 190 q 536 161 494 161 m 300 330 q 773 330 534 276 l 848 450 l 223 450 l 300 330 m 590 496 l 537 622 l 484 496 l 590 496 m 408 593 q 418 592 411 590 q 434 598 426 594 q 448 606 443 602 q 454 612 454 611 q 422 693 434 651 q 386 768 409 734 q 368 768 381 773 q 339 752 354 762 q 313 733 325 743 q 305 720 302 723 l 408 593 m 766 720 q 759 733 769 723 q 734 752 748 743 q 705 768 719 762 q 687 768 691 773 q 650 693 661 734 q 622 612 638 651 q 625 606 619 611 q 638 598 630 602 q 654 592 645 594 q 666 593 662 590 l 766 720 m 895 70 l 875 70 l 875 85 l 932 85 l 932 70 l 911 70 l 911 17 l 895 17 l 895 70 m 939 84 l 960 84 l 972 31 l 984 84 l 1004 84 l 1004 16 l 991 16 l 991 69 l 978 16 l 966 16 l 952 69 l 952 16 l 939 16 l 939 84 "},"Ê":{"x_min":46,"x_max":1028,"ha":1074,"o":"m 536 4 q 345 42 434 4 q 189 148 255 81 q 84 304 122 215 q 46 496 46 394 q 84 687 46 597 q 189 843 122 776 q 345 949 255 910 q 536 988 434 988 q 727 949 637 988 q 883 843 816 910 q 989 687 950 776 q 1028 496 1028 597 q 989 304 1028 394 q 883 148 950 215 q 727 42 816 81 q 536 4 637 4 m 536 71 q 702 104 625 71 q 836 196 779 137 q 926 331 893 254 q 960 496 960 408 q 926 660 960 583 q 836 795 893 737 q 702 886 779 853 q 536 920 625 920 q 371 886 448 920 q 236 795 294 853 q 144 660 177 737 q 111 496 111 583 q 144 331 111 408 q 236 196 177 254 q 371 104 294 137 q 536 71 448 71 m 536 100 q 382 131 454 100 q 256 216 311 162 q 171 341 202 269 q 140 496 140 414 q 171 648 140 576 q 256 773 202 719 q 382 857 311 826 q 536 887 454 887 q 688 857 616 887 q 814 773 761 826 q 899 648 868 719 q 930 496 930 576 q 899 341 930 414 q 814 216 868 269 q 688 131 761 162 q 536 100 616 100 m 536 161 q 611 175 576 161 q 673 211 646 190 q 723 259 701 233 q 758 309 744 286 q 537 281 647 280 q 314 309 426 281 q 348 259 327 286 q 398 211 369 233 q 460 175 426 190 q 536 161 494 161 m 300 330 q 773 330 534 276 l 848 450 l 223 450 l 300 330 m 590 496 l 537 622 l 484 496 l 590 496 m 408 593 q 418 592 411 590 q 434 598 426 594 q 448 606 443 602 q 454 612 454 611 q 422 693 434 651 q 386 768 409 734 q 368 768 381 773 q 339 752 354 762 q 313 733 325 743 q 305 720 302 723 l 408 593 m 766 720 q 759 733 769 723 q 734 752 748 743 q 705 768 719 762 q 687 768 691 773 q 650 693 661 734 q 622 612 638 651 q 625 606 619 611 q 638 598 630 602 q 654 592 645 594 q 666 593 662 590 l 766 720 m 895 70 l 875 70 l 875 85 l 932 85 l 932 70 l 911 70 l 911 17 l 895 17 l 895 70 m 939 84 l 960 84 l 972 31 l 984 84 l 1004 84 l 1004 16 l 991 16 l 991 69 l 978 16 l 966 16 l 952 69 l 952 16 l 939 16 l 939 84 "},")":{"x_min":46,"x_max":1028,"ha":1074,"o":"m 536 4 q 345 42 434 4 q 189 148 255 81 q 84 304 122 215 q 46 496 46 394 q 84 687 46 597 q 189 843 122 776 q 345 949 255 910 q 536 988 434 988 q 727 949 637 988 q 883 843 816 910 q 989 687 950 776 q 1028 496 1028 597 q 989 304 1028 394 q 883 148 950 215 q 727 42 816 81 q 536 4 637 4 m 536 71 q 702 104 625 71 q 836 196 779 137 q 926 331 893 254 q 960 496 960 408 q 926 660 960 583 q 836 795 893 737 q 702 886 779 853 q 536 920 625 920 q 371 886 448 920 q 236 795 294 853 q 144 660 177 737 q 111 496 111 583 q 144 331 111 408 q 236 196 177 254 q 371 104 294 137 q 536 71 448 71 m 536 100 q 382 131 454 100 q 256 216 311 162 q 171 341 202 269 q 140 496 140 414 q 171 648 140 576 q 256 773 202 719 q 382 857 311 826 q 536 887 454 887 q 688 857 616 887 q 814 773 761 826 q 899 648 868 719 q 930 496 930 576 q 899 341 930 414 q 814 216 868 269 q 688 131 761 162 q 536 100 616 100 m 536 161 q 611 175 576 161 q 673 211 646 190 q 723 259 701 233 q 758 309 744 286 q 537 281 647 280 q 314 309 426 281 q 348 259 327 286 q 398 211 369 233 q 460 175 426 190 q 536 161 494 161 m 300 330 q 773 330 534 276 l 848 450 l 223 450 l 300 330 m 590 496 l 537 622 l 484 496 l 590 496 m 408 593 q 418 592 411 590 q 434 598 426 594 q 448 606 443 602 q 454 612 454 611 q 422 693 434 651 q 386 768 409 734 q 368 768 381 773 q 339 752 354 762 q 313 733 325 743 q 305 720 302 723 l 408 593 m 766 720 q 759 733 769 723 q 734 752 748 743 q 705 768 719 762 q 687 768 691 773 q 650 693 661 734 q 622 612 638 651 q 625 606 619 611 q 638 598 630 602 q 654 592 645 594 q 666 593 662 590 l 766 720 m 895 70 l 875 70 l 875 85 l 932 85 l 932 70 l 911 70 l 911 17 l 895 17 l 895 70 m 939 84 l 960 84 l 972 31 l 984 84 l 1004 84 l 1004 16 l 991 16 l 991 69 l 978 16 l 966 16 l 952 69 l 952 16 l 939 16 l 939 84 "},"Å":{"x_min":46,"x_max":1028,"ha":1074,"o":"m 536 4 q 345 42 434 4 q 189 148 255 81 q 84 304 122 215 q 46 496 46 394 q 84 687 46 597 q 189 843 122 776 q 345 949 255 910 q 536 988 434 988 q 727 949 637 988 q 883 843 816 910 q 989 687 950 776 q 1028 496 1028 597 q 989 304 1028 394 q 883 148 950 215 q 727 42 816 81 q 536 4 637 4 m 536 71 q 702 104 625 71 q 836 196 779 137 q 926 331 893 254 q 960 496 960 408 q 926 660 960 583 q 836 795 893 737 q 702 886 779 853 q 536 920 625 920 q 371 886 448 920 q 236 795 294 853 q 144 660 177 737 q 111 496 111 583 q 144 331 111 408 q 236 196 177 254 q 371 104 294 137 q 536 71 448 71 m 536 100 q 382 131 454 100 q 256 216 311 162 q 171 341 202 269 q 140 496 140 414 q 171 648 140 576 q 256 773 202 719 q 382 857 311 826 q 536 887 454 887 q 688 857 616 887 q 814 773 761 826 q 899 648 868 719 q 930 496 930 576 q 899 341 930 414 q 814 216 868 269 q 688 131 761 162 q 536 100 616 100 m 536 161 q 611 175 576 161 q 673 211 646 190 q 723 259 701 233 q 758 309 744 286 q 537 281 647 280 q 314 309 426 281 q 348 259 327 286 q 398 211 369 233 q 460 175 426 190 q 536 161 494 161 m 300 330 q 773 330 534 276 l 848 450 l 223 450 l 300 330 m 590 496 l 537 622 l 484 496 l 590 496 m 408 593 q 418 592 411 590 q 434 598 426 594 q 448 606 443 602 q 454 612 454 611 q 422 693 434 651 q 386 768 409 734 q 368 768 381 773 q 339 752 354 762 q 313 733 325 743 q 305 720 302 723 l 408 593 m 766 720 q 759 733 769 723 q 734 752 748 743 q 705 768 719 762 q 687 768 691 773 q 650 693 661 734 q 622 612 638 651 q 625 606 619 611 q 638 598 630 602 q 654 592 645 594 q 666 593 662 590 l 766 720 m 895 70 l 875 70 l 875 85 l 932 85 l 932 70 l 911 70 l 911 17 l 895 17 l 895 70 m 939 84 l 960 84 l 972 31 l 984 84 l 1004 84 l 1004 16 l 991 16 l 991 69 l 978 16 l 966 16 l 952 69 l 952 16 l 939 16 l 939 84 "},"ø":{"x_min":46,"x_max":1028,"ha":1074,"o":"m 536 4 q 345 42 434 4 q 189 148 255 81 q 84 304 122 215 q 46 496 46 394 q 84 687 46 597 q 189 843 122 776 q 345 949 255 910 q 536 988 434 988 q 727 949 637 988 q 883 843 816 910 q 989 687 950 776 q 1028 496 1028 597 q 989 304 1028 394 q 883 148 950 215 q 727 42 816 81 q 536 4 637 4 m 536 71 q 702 104 625 71 q 836 196 779 137 q 926 331 893 254 q 960 496 960 408 q 926 660 960 583 q 836 795 893 737 q 702 886 779 853 q 536 920 625 920 q 371 886 448 920 q 236 795 294 853 q 144 660 177 737 q 111 496 111 583 q 144 331 111 408 q 236 196 177 254 q 371 104 294 137 q 536 71 448 71 m 536 100 q 382 131 454 100 q 256 216 311 162 q 171 341 202 269 q 140 496 140 414 q 171 648 140 576 q 256 773 202 719 q 382 857 311 826 q 536 887 454 887 q 688 857 616 887 q 814 773 761 826 q 899 648 868 719 q 930 496 930 576 q 899 341 930 414 q 814 216 868 269 q 688 131 761 162 q 536 100 616 100 m 536 161 q 611 175 576 161 q 673 211 646 190 q 723 259 701 233 q 758 309 744 286 q 537 281 647 280 q 314 309 426 281 q 348 259 327 286 q 398 211 369 233 q 460 175 426 190 q 536 161 494 161 m 300 330 q 773 330 534 276 l 848 450 l 223 450 l 300 330 m 590 496 l 537 622 l 484 496 l 590 496 m 408 593 q 418 592 411 590 q 434 598 426 594 q 448 606 443 602 q 454 612 454 611 q 422 693 434 651 q 386 768 409 734 q 368 768 381 773 q 339 752 354 762 q 313 733 325 743 q 305 720 302 723 l 408 593 m 766 720 q 759 733 769 723 q 734 752 748 743 q 705 768 719 762 q 687 768 691 773 q 650 693 661 734 q 622 612 638 651 q 625 606 619 611 q 638 598 630 602 q 654 592 645 594 q 666 593 662 590 l 766 720 m 895 70 l 875 70 l 875 85 l 932 85 l 932 70 l 911 70 l 911 17 l 895 17 l 895 70 m 939 84 l 960 84 l 972 31 l 984 84 l 1004 84 l 1004 16 l 991 16 l 991 69 l 978 16 l 966 16 l 952 69 l 952 16 l 939 16 l 939 84 "},"â":{"x_min":46,"x_max":1028,"ha":1074,"o":"m 536 4 q 345 42 434 4 q 189 148 255 81 q 84 304 122 215 q 46 496 46 394 q 84 687 46 597 q 189 843 122 776 q 345 949 255 910 q 536 988 434 988 q 727 949 637 988 q 883 843 816 910 q 989 687 950 776 q 1028 496 1028 597 q 989 304 1028 394 q 883 148 950 215 q 727 42 816 81 q 536 4 637 4 m 536 71 q 702 104 625 71 q 836 196 779 137 q 926 331 893 254 q 960 496 960 408 q 926 660 960 583 q 836 795 893 737 q 702 886 779 853 q 536 920 625 920 q 371 886 448 920 q 236 795 294 853 q 144 660 177 737 q 111 496 111 583 q 144 331 111 408 q 236 196 177 254 q 371 104 294 137 q 536 71 448 71 m 536 100 q 382 131 454 100 q 256 216 311 162 q 171 341 202 269 q 140 496 140 414 q 171 648 140 576 q 256 773 202 719 q 382 857 311 826 q 536 887 454 887 q 688 857 616 887 q 814 773 761 826 q 899 648 868 719 q 930 496 930 576 q 899 341 930 414 q 814 216 868 269 q 688 131 761 162 q 536 100 616 100 m 536 161 q 611 175 576 161 q 673 211 646 190 q 723 259 701 233 q 758 309 744 286 q 537 281 647 280 q 314 309 426 281 q 348 259 327 286 q 398 211 369 233 q 460 175 426 190 q 536 161 494 161 m 300 330 q 773 330 534 276 l 848 450 l 223 450 l 300 330 m 590 496 l 537 622 l 484 496 l 590 496 m 408 593 q 418 592 411 590 q 434 598 426 594 q 448 606 443 602 q 454 612 454 611 q 422 693 434 651 q 386 768 409 734 q 368 768 381 773 q 339 752 354 762 q 313 733 325 743 q 305 720 302 723 l 408 593 m 766 720 q 759 733 769 723 q 734 752 748 743 q 705 768 719 762 q 687 768 691 773 q 650 693 661 734 q 622 612 638 651 q 625 606 619 611 q 638 598 630 602 q 654 592 645 594 q 666 593 662 590 l 766 720 m 895 70 l 875 70 l 875 85 l 932 85 l 932 70 l 911 70 l 911 17 l 895 17 l 895 70 m 939 84 l 960 84 l 972 31 l 984 84 l 1004 84 l 1004 16 l 991 16 l 991 69 l 978 16 l 966 16 l 952 69 l 952 16 l 939 16 l 939 84 "},"}":{"x_min":46,"x_max":1028,"ha":1074,"o":"m 536 4 q 345 42 434 4 q 189 148 255 81 q 84 304 122 215 q 46 496 46 394 q 84 687 46 597 q 189 843 122 776 q 345 949 255 910 q 536 988 434 988 q 727 949 637 988 q 883 843 816 910 q 989 687 950 776 q 1028 496 1028 597 q 989 304 1028 394 q 883 148 950 215 q 727 42 816 81 q 536 4 637 4 m 536 71 q 702 104 625 71 q 836 196 779 137 q 926 331 893 254 q 960 496 960 408 q 926 660 960 583 q 836 795 893 737 q 702 886 779 853 q 536 920 625 920 q 371 886 448 920 q 236 795 294 853 q 144 660 177 737 q 111 496 111 583 q 144 331 111 408 q 236 196 177 254 q 371 104 294 137 q 536 71 448 71 m 536 100 q 382 131 454 100 q 256 216 311 162 q 171 341 202 269 q 140 496 140 414 q 171 648 140 576 q 256 773 202 719 q 382 857 311 826 q 536 887 454 887 q 688 857 616 887 q 814 773 761 826 q 899 648 868 719 q 930 496 930 576 q 899 341 930 414 q 814 216 868 269 q 688 131 761 162 q 536 100 616 100 m 536 161 q 611 175 576 161 q 673 211 646 190 q 723 259 701 233 q 758 309 744 286 q 537 281 647 280 q 314 309 426 281 q 348 259 327 286 q 398 211 369 233 q 460 175 426 190 q 536 161 494 161 m 300 330 q 773 330 534 276 l 848 450 l 223 450 l 300 330 m 590 496 l 537 622 l 484 496 l 590 496 m 408 593 q 418 592 411 590 q 434 598 426 594 q 448 606 443 602 q 454 612 454 611 q 422 693 434 651 q 386 768 409 734 q 368 768 381 773 q 339 752 354 762 q 313 733 325 743 q 305 720 302 723 l 408 593 m 766 720 q 759 733 769 723 q 734 752 748 743 q 705 768 719 762 q 687 768 691 773 q 650 693 661 734 q 622 612 638 651 q 625 606 619 611 q 638 598 630 602 q 654 592 645 594 q 666 593 662 590 l 766 720 m 895 70 l 875 70 l 875 85 l 932 85 l 932 70 l 911 70 l 911 17 l 895 17 l 895 70 m 939 84 l 960 84 l 972 31 l 984 84 l 1004 84 l 1004 16 l 991 16 l 991 69 l 978 16 l 966 16 l 952 69 l 952 16 l 939 16 l 939 84 "},"Ä":{"x_min":46,"x_max":1028,"ha":1074,"o":"m 536 4 q 345 42 434 4 q 189 148 255 81 q 84 304 122 215 q 46 496 46 394 q 84 687 46 597 q 189 843 122 776 q 345 949 255 910 q 536 988 434 988 q 727 949 637 988 q 883 843 816 910 q 989 687 950 776 q 1028 496 1028 597 q 989 304 1028 394 q 883 148 950 215 q 727 42 816 81 q 536 4 637 4 m 536 71 q 702 104 625 71 q 836 196 779 137 q 926 331 893 254 q 960 496 960 408 q 926 660 960 583 q 836 795 893 737 q 702 886 779 853 q 536 920 625 920 q 371 886 448 920 q 236 795 294 853 q 144 660 177 737 q 111 496 111 583 q 144 331 111 408 q 236 196 177 254 q 371 104 294 137 q 536 71 448 71 m 536 100 q 382 131 454 100 q 256 216 311 162 q 171 341 202 269 q 140 496 140 414 q 171 648 140 576 q 256 773 202 719 q 382 857 311 826 q 536 887 454 887 q 688 857 616 887 q 814 773 761 826 q 899 648 868 719 q 930 496 930 576 q 899 341 930 414 q 814 216 868 269 q 688 131 761 162 q 536 100 616 100 m 536 161 q 611 175 576 161 q 673 211 646 190 q 723 259 701 233 q 758 309 744 286 q 537 281 647 280 q 314 309 426 281 q 348 259 327 286 q 398 211 369 233 q 460 175 426 190 q 536 161 494 161 m 300 330 q 773 330 534 276 l 848 450 l 223 450 l 300 330 m 590 496 l 537 622 l 484 496 l 590 496 m 408 593 q 418 592 411 590 q 434 598 426 594 q 448 606 443 602 q 454 612 454 611 q 422 693 434 651 q 386 768 409 734 q 368 768 381 773 q 339 752 354 762 q 313 733 325 743 q 305 720 302 723 l 408 593 m 766 720 q 759 733 769 723 q 734 752 748 743 q 705 768 719 762 q 687 768 691 773 q 650 693 661 734 q 622 612 638 651 q 625 606 619 611 q 638 598 630 602 q 654 592 645 594 q 666 593 662 590 l 766 720 m 895 70 l 875 70 l 875 85 l 932 85 l 932 70 l 911 70 l 911 17 l 895 17 l 895 70 m 939 84 l 960 84 l 972 31 l 984 84 l 1004 84 l 1004 16 l 991 16 l 991 69 l 978 16 l 966 16 l 952 69 l 952 16 l 939 16 l 939 84 "},"¸":{"x_min":46,"x_max":1028,"ha":1074,"o":"m 536 4 q 345 42 434 4 q 189 148 255 81 q 84 304 122 215 q 46 496 46 394 q 84 687 46 597 q 189 843 122 776 q 345 949 255 910 q 536 988 434 988 q 727 949 637 988 q 883 843 816 910 q 989 687 950 776 q 1028 496 1028 597 q 989 304 1028 394 q 883 148 950 215 q 727 42 816 81 q 536 4 637 4 m 536 71 q 702 104 625 71 q 836 196 779 137 q 926 331 893 254 q 960 496 960 408 q 926 660 960 583 q 836 795 893 737 q 702 886 779 853 q 536 920 625 920 q 371 886 448 920 q 236 795 294 853 q 144 660 177 737 q 111 496 111 583 q 144 331 111 408 q 236 196 177 254 q 371 104 294 137 q 536 71 448 71 m 536 100 q 382 131 454 100 q 256 216 311 162 q 171 341 202 269 q 140 496 140 414 q 171 648 140 576 q 256 773 202 719 q 382 857 311 826 q 536 887 454 887 q 688 857 616 887 q 814 773 761 826 q 899 648 868 719 q 930 496 930 576 q 899 341 930 414 q 814 216 868 269 q 688 131 761 162 q 536 100 616 100 m 536 161 q 611 175 576 161 q 673 211 646 190 q 723 259 701 233 q 758 309 744 286 q 537 281 647 280 q 314 309 426 281 q 348 259 327 286 q 398 211 369 233 q 460 175 426 190 q 536 161 494 161 m 300 330 q 773 330 534 276 l 848 450 l 223 450 l 300 330 m 590 496 l 537 622 l 484 496 l 590 496 m 408 593 q 418 592 411 590 q 434 598 426 594 q 448 606 443 602 q 454 612 454 611 q 422 693 434 651 q 386 768 409 734 q 368 768 381 773 q 339 752 354 762 q 313 733 325 743 q 305 720 302 723 l 408 593 m 766 720 q 759 733 769 723 q 734 752 748 743 q 705 768 719 762 q 687 768 691 773 q 650 693 661 734 q 622 612 638 651 q 625 606 619 611 q 638 598 630 602 q 654 592 645 594 q 666 593 662 590 l 766 720 m 895 70 l 875 70 l 875 85 l 932 85 l 932 70 l 911 70 l 911 17 l 895 17 l 895 70 m 939 84 l 960 84 l 972 31 l 984 84 l 1004 84 l 1004 16 l 991 16 l 991 69 l 978 16 l 966 16 l 952 69 l 952 16 l 939 16 l 939 84 "},"a":{"x_min":32.40625,"x_max":875.1875,"ha":866,"o":"m 282 26 q 32 26 150 37 q 258 520 142 268 q 499 1014 374 772 q 688 1031 599 1029 q 870 1031 778 1033 q 874 520 872 776 q 866 18 876 264 q 736 20 803 20 q 606 14 668 20 q 610 101 608 57 q 613 191 611 146 q 494 187 553 188 q 364 181 435 186 q 325 104 344 143 q 282 26 306 65 m 443 428 q 546 430 496 430 q 653 425 596 430 q 650 605 654 512 q 641 786 646 697 q 539 607 588 698 q 443 428 490 515 "},"=":{"x_min":46,"x_max":1028,"ha":1074,"o":"m 536 4 q 345 42 434 4 q 189 148 255 81 q 84 304 122 215 q 46 496 46 394 q 84 687 46 597 q 189 843 122 776 q 345 949 255 910 q 536 988 434 988 q 727 949 637 988 q 883 843 816 910 q 989 687 950 776 q 1028 496 1028 597 q 989 304 1028 394 q 883 148 950 215 q 727 42 816 81 q 536 4 637 4 m 536 71 q 702 104 625 71 q 836 196 779 137 q 926 331 893 254 q 960 496 960 408 q 926 660 960 583 q 836 795 893 737 q 702 886 779 853 q 536 920 625 920 q 371 886 448 920 q 236 795 294 853 q 144 660 177 737 q 111 496 111 583 q 144 331 111 408 q 236 196 177 254 q 371 104 294 137 q 536 71 448 71 m 536 100 q 382 131 454 100 q 256 216 311 162 q 171 341 202 269 q 140 496 140 414 q 171 648 140 576 q 256 773 202 719 q 382 857 311 826 q 536 887 454 887 q 688 857 616 887 q 814 773 761 826 q 899 648 868 719 q 930 496 930 576 q 899 341 930 414 q 814 216 868 269 q 688 131 761 162 q 536 100 616 100 m 536 161 q 611 175 576 161 q 673 211 646 190 q 723 259 701 233 q 758 309 744 286 q 537 281 647 280 q 314 309 426 281 q 348 259 327 286 q 398 211 369 233 q 460 175 426 190 q 536 161 494 161 m 300 330 q 773 330 534 276 l 848 450 l 223 450 l 300 330 m 590 496 l 537 622 l 484 496 l 590 496 m 408 593 q 418 592 411 590 q 434 598 426 594 q 448 606 443 602 q 454 612 454 611 q 422 693 434 651 q 386 768 409 734 q 368 768 381 773 q 339 752 354 762 q 313 733 325 743 q 305 720 302 723 l 408 593 m 766 720 q 759 733 769 723 q 734 752 748 743 q 705 768 719 762 q 687 768 691 773 q 650 693 661 734 q 622 612 638 651 q 625 606 619 611 q 638 598 630 602 q 654 592 645 594 q 666 593 662 590 l 766 720 m 895 70 l 875 70 l 875 85 l 932 85 l 932 70 l 911 70 l 911 17 l 895 17 l 895 70 m 939 84 l 960 84 l 972 31 l 984 84 l 1004 84 l 1004 16 l 991 16 l 991 69 l 978 16 l 966 16 l 952 69 l 952 16 l 939 16 l 939 84 "},"N":{"x_min":86.125,"x_max":1138.984375,"ha":913,"o":"m 336 994 q 499 1007 426 1005 q 650 1007 572 1008 q 656 878 651 948 q 667 735 661 808 q 679 592 673 662 q 690 465 686 522 q 758 741 719 602 q 840 1018 797 879 q 908 1025 870 1022 q 985 1030 945 1029 q 1064 1031 1025 1032 q 1138 1026 1104 1030 q 973 524 1050 776 q 834 26 897 272 q 677 25 762 29 q 522 11 593 20 q 511 118 518 58 q 498 243 505 177 q 484 374 491 308 q 472 499 477 440 q 400 255 431 373 q 340 18 369 137 q 212 18 270 19 q 86 14 154 18 q 139 252 111 129 q 199 501 168 376 q 264 750 230 626 q 336 994 298 875 "},"ú":{"x_min":46,"x_max":1028,"ha":1074,"o":"m 536 4 q 345 42 434 4 q 189 148 255 81 q 84 304 122 215 q 46 496 46 394 q 84 687 46 597 q 189 843 122 776 q 345 949 255 910 q 536 988 434 988 q 727 949 637 988 q 883 843 816 910 q 989 687 950 776 q 1028 496 1028 597 q 989 304 1028 394 q 883 148 950 215 q 727 42 816 81 q 536 4 637 4 m 536 71 q 702 104 625 71 q 836 196 779 137 q 926 331 893 254 q 960 496 960 408 q 926 660 960 583 q 836 795 893 737 q 702 886 779 853 q 536 920 625 920 q 371 886 448 920 q 236 795 294 853 q 144 660 177 737 q 111 496 111 583 q 144 331 111 408 q 236 196 177 254 q 371 104 294 137 q 536 71 448 71 m 536 100 q 382 131 454 100 q 256 216 311 162 q 171 341 202 269 q 140 496 140 414 q 171 648 140 576 q 256 773 202 719 q 382 857 311 826 q 536 887 454 887 q 688 857 616 887 q 814 773 761 826 q 899 648 868 719 q 930 496 930 576 q 899 341 930 414 q 814 216 868 269 q 688 131 761 162 q 536 100 616 100 m 536 161 q 611 175 576 161 q 673 211 646 190 q 723 259 701 233 q 758 309 744 286 q 537 281 647 280 q 314 309 426 281 q 348 259 327 286 q 398 211 369 233 q 460 175 426 190 q 536 161 494 161 m 300 330 q 773 330 534 276 l 848 450 l 223 450 l 300 330 m 590 496 l 537 622 l 484 496 l 590 496 m 408 593 q 418 592 411 590 q 434 598 426 594 q 448 606 443 602 q 454 612 454 611 q 422 693 434 651 q 386 768 409 734 q 368 768 381 773 q 339 752 354 762 q 313 733 325 743 q 305 720 302 723 l 408 593 m 766 720 q 759 733 769 723 q 734 752 748 743 q 705 768 719 762 q 687 768 691 773 q 650 693 661 734 q 622 612 638 651 q 625 606 619 611 q 638 598 630 602 q 654 592 645 594 q 666 593 662 590 l 766 720 m 895 70 l 875 70 l 875 85 l 932 85 l 932 70 l 911 70 l 911 17 l 895 17 l 895 70 m 939 84 l 960 84 l 972 31 l 984 84 l 1004 84 l 1004 16 l 991 16 l 991 69 l 978 16 l 966 16 l 952 69 l 952 16 l 939 16 l 939 84 "},"2":{"x_min":81.953125,"x_max":933.15625,"ha":790,"o":"m 333 986 q 486 1030 406 1015 q 644 1042 565 1044 q 759 1028 704 1042 q 854 985 813 1014 q 916 910 894 955 q 932 800 937 864 q 903 697 926 750 q 845 591 880 644 q 768 488 811 539 q 681 393 725 437 q 595 313 637 350 q 522 253 554 276 q 590 253 551 253 q 670 254 629 253 q 750 259 711 255 q 819 268 790 262 q 771 132 800 198 q 715 13 743 65 q 395 15 548 18 q 81 13 241 13 q 123 120 105 71 q 169 228 141 169 q 296 315 227 264 q 426 425 365 366 q 534 548 487 484 q 598 675 581 612 q 588 751 612 719 q 501 782 563 783 q 387 759 452 782 q 258 695 322 736 q 291 841 273 773 q 333 986 308 908 "},"ü":{"x_min":46,"x_max":1028,"ha":1074,"o":"m 536 4 q 345 42 434 4 q 189 148 255 81 q 84 304 122 215 q 46 496 46 394 q 84 687 46 597 q 189 843 122 776 q 345 949 255 910 q 536 988 434 988 q 727 949 637 988 q 883 843 816 910 q 989 687 950 776 q 1028 496 1028 597 q 989 304 1028 394 q 883 148 950 215 q 727 42 816 81 q 536 4 637 4 m 536 71 q 702 104 625 71 q 836 196 779 137 q 926 331 893 254 q 960 496 960 408 q 926 660 960 583 q 836 795 893 737 q 702 886 779 853 q 536 920 625 920 q 371 886 448 920 q 236 795 294 853 q 144 660 177 737 q 111 496 111 583 q 144 331 111 408 q 236 196 177 254 q 371 104 294 137 q 536 71 448 71 m 536 100 q 382 131 454 100 q 256 216 311 162 q 171 341 202 269 q 140 496 140 414 q 171 648 140 576 q 256 773 202 719 q 382 857 311 826 q 536 887 454 887 q 688 857 616 887 q 814 773 761 826 q 899 648 868 719 q 930 496 930 576 q 899 341 930 414 q 814 216 868 269 q 688 131 761 162 q 536 100 616 100 m 536 161 q 611 175 576 161 q 673 211 646 190 q 723 259 701 233 q 758 309 744 286 q 537 281 647 280 q 314 309 426 281 q 348 259 327 286 q 398 211 369 233 q 460 175 426 190 q 536 161 494 161 m 300 330 q 773 330 534 276 l 848 450 l 223 450 l 300 330 m 590 496 l 537 622 l 484 496 l 590 496 m 408 593 q 418 592 411 590 q 434 598 426 594 q 448 606 443 602 q 454 612 454 611 q 422 693 434 651 q 386 768 409 734 q 368 768 381 773 q 339 752 354 762 q 313 733 325 743 q 305 720 302 723 l 408 593 m 766 720 q 759 733 769 723 q 734 752 748 743 q 705 768 719 762 q 687 768 691 773 q 650 693 661 734 q 622 612 638 651 q 625 606 619 611 q 638 598 630 602 q 654 592 645 594 q 666 593 662 590 l 766 720 m 895 70 l 875 70 l 875 85 l 932 85 l 932 70 l 911 70 l 911 17 l 895 17 l 895 70 m 939 84 l 960 84 l 972 31 l 984 84 l 1004 84 l 1004 16 l 991 16 l 991 69 l 978 16 l 966 16 l 952 69 l 952 16 l 939 16 l 939 84 "},"¯":{"x_min":46,"x_max":1028,"ha":1074,"o":"m 536 4 q 345 42 434 4 q 189 148 255 81 q 84 304 122 215 q 46 496 46 394 q 84 687 46 597 q 189 843 122 776 q 345 949 255 910 q 536 988 434 988 q 727 949 637 988 q 883 843 816 910 q 989 687 950 776 q 1028 496 1028 597 q 989 304 1028 394 q 883 148 950 215 q 727 42 816 81 q 536 4 637 4 m 536 71 q 702 104 625 71 q 836 196 779 137 q 926 331 893 254 q 960 496 960 408 q 926 660 960 583 q 836 795 893 737 q 702 886 779 853 q 536 920 625 920 q 371 886 448 920 q 236 795 294 853 q 144 660 177 737 q 111 496 111 583 q 144 331 111 408 q 236 196 177 254 q 371 104 294 137 q 536 71 448 71 m 536 100 q 382 131 454 100 q 256 216 311 162 q 171 341 202 269 q 140 496 140 414 q 171 648 140 576 q 256 773 202 719 q 382 857 311 826 q 536 887 454 887 q 688 857 616 887 q 814 773 761 826 q 899 648 868 719 q 930 496 930 576 q 899 341 930 414 q 814 216 868 269 q 688 131 761 162 q 536 100 616 100 m 536 161 q 611 175 576 161 q 673 211 646 190 q 723 259 701 233 q 758 309 744 286 q 537 281 647 280 q 314 309 426 281 q 348 259 327 286 q 398 211 369 233 q 460 175 426 190 q 536 161 494 161 m 300 330 q 773 330 534 276 l 848 450 l 223 450 l 300 330 m 590 496 l 537 622 l 484 496 l 590 496 m 408 593 q 418 592 411 590 q 434 598 426 594 q 448 606 443 602 q 454 612 454 611 q 422 693 434 651 q 386 768 409 734 q 368 768 381 773 q 339 752 354 762 q 313 733 325 743 q 305 720 302 723 l 408 593 m 766 720 q 759 733 769 723 q 734 752 748 743 q 705 768 719 762 q 687 768 691 773 q 650 693 661 734 q 622 612 638 651 q 625 606 619 611 q 638 598 630 602 q 654 592 645 594 q 666 593 662 590 l 766 720 m 895 70 l 875 70 l 875 85 l 932 85 l 932 70 l 911 70 l 911 17 l 895 17 l 895 70 m 939 84 l 960 84 l 972 31 l 984 84 l 1004 84 l 1004 16 l 991 16 l 991 69 l 978 16 l 966 16 l 952 69 l 952 16 l 939 16 l 939 84 "},"Z":{"x_min":69.453125,"x_max":997.296875,"ha":811,"o":"m 331 1020 q 497 1027 412 1025 q 667 1030 581 1030 q 836 1027 752 1030 q 997 1021 919 1025 q 985 934 990 976 q 969 851 980 891 q 910 780 947 823 q 827 682 873 736 q 731 570 782 629 q 631 452 680 511 q 538 341 581 394 q 463 246 494 287 q 629 255 551 248 q 797 276 708 262 q 782 215 790 248 q 766 147 775 182 q 747 80 757 112 q 727 21 737 47 q 550 18 629 19 q 397 16 472 18 q 245 15 323 15 q 69 15 166 15 q 77 71 72 41 q 91 127 81 101 q 206 288 144 202 q 334 459 269 373 q 465 627 400 546 q 588 774 530 708 q 511 774 554 775 q 423 771 468 774 q 336 764 379 768 q 258 757 293 761 q 286 883 268 818 q 331 1020 304 949 "},"u":{"x_min":164.59375,"x_max":1143.140625,"ha":958,"o":"m 643 997 q 591 836 619 924 q 535 656 562 748 q 484 476 508 565 q 443 315 459 387 q 442 270 436 286 q 461 246 448 254 q 490 237 473 238 q 522 236 506 236 q 572 241 551 237 q 611 256 594 245 q 639 286 627 267 q 661 334 651 305 q 710 490 684 402 q 759 671 736 579 q 804 852 783 763 q 840 1013 825 941 q 1000 1020 930 1020 q 1143 1012 1069 1019 q 1100 848 1122 936 q 1053 670 1077 761 q 1003 489 1029 579 q 951 320 977 399 q 872 147 916 212 q 770 48 829 83 q 634 4 711 14 q 459 -6 558 -6 q 338 6 391 -6 q 247 42 284 19 q 186 110 204 70 q 165 194 168 149 q 170 288 162 240 q 188 381 179 336 q 229 545 206 461 q 276 711 252 630 q 322 865 300 793 q 362 994 345 937 q 512 1002 440 1001 q 643 997 584 1002 "},"Ó":{"x_min":46,"x_max":1028,"ha":1074,"o":"m 536 4 q 345 42 434 4 q 189 148 255 81 q 84 304 122 215 q 46 496 46 394 q 84 687 46 597 q 189 843 122 776 q 345 949 255 910 q 536 988 434 988 q 727 949 637 988 q 883 843 816 910 q 989 687 950 776 q 1028 496 1028 597 q 989 304 1028 394 q 883 148 950 215 q 727 42 816 81 q 536 4 637 4 m 536 71 q 702 104 625 71 q 836 196 779 137 q 926 331 893 254 q 960 496 960 408 q 926 660 960 583 q 836 795 893 737 q 702 886 779 853 q 536 920 625 920 q 371 886 448 920 q 236 795 294 853 q 144 660 177 737 q 111 496 111 583 q 144 331 111 408 q 236 196 177 254 q 371 104 294 137 q 536 71 448 71 m 536 100 q 382 131 454 100 q 256 216 311 162 q 171 341 202 269 q 140 496 140 414 q 171 648 140 576 q 256 773 202 719 q 382 857 311 826 q 536 887 454 887 q 688 857 616 887 q 814 773 761 826 q 899 648 868 719 q 930 496 930 576 q 899 341 930 414 q 814 216 868 269 q 688 131 761 162 q 536 100 616 100 m 536 161 q 611 175 576 161 q 673 211 646 190 q 723 259 701 233 q 758 309 744 286 q 537 281 647 280 q 314 309 426 281 q 348 259 327 286 q 398 211 369 233 q 460 175 426 190 q 536 161 494 161 m 300 330 q 773 330 534 276 l 848 450 l 223 450 l 300 330 m 590 496 l 537 622 l 484 496 l 590 496 m 408 593 q 418 592 411 590 q 434 598 426 594 q 448 606 443 602 q 454 612 454 611 q 422 693 434 651 q 386 768 409 734 q 368 768 381 773 q 339 752 354 762 q 313 733 325 743 q 305 720 302 723 l 408 593 m 766 720 q 759 733 769 723 q 734 752 748 743 q 705 768 719 762 q 687 768 691 773 q 650 693 661 734 q 622 612 638 651 q 625 606 619 611 q 638 598 630 602 q 654 592 645 594 q 666 593 662 590 l 766 720 m 895 70 l 875 70 l 875 85 l 932 85 l 932 70 l 911 70 l 911 17 l 895 17 l 895 70 m 939 84 l 960 84 l 972 31 l 984 84 l 1004 84 l 1004 16 l 991 16 l 991 69 l 978 16 l 966 16 l 952 69 l 952 16 l 939 16 l 939 84 "},"k":{"x_min":66.671875,"x_max":1134.8125,"ha":933,"o":"m 520 648 q 717 861 619 764 q 922 1046 815 958 q 1041 977 987 1021 q 1134 887 1094 933 q 907 708 1012 801 q 705 525 801 615 q 810 303 754 419 q 943 50 866 187 q 800 21 876 39 q 658 -15 725 4 q 555 193 605 82 q 458 416 505 304 q 420 316 438 371 q 386 208 402 262 q 354 103 369 154 q 326 14 338 53 q 200 19 269 19 q 66 16 130 19 q 195 512 130 269 q 336 1007 261 755 q 419 1011 380 1009 q 495 1014 458 1014 q 571 1014 533 1014 q 651 1012 609 1014 q 581 818 615 907 q 520 648 548 730 "},"Ù":{"x_min":46,"x_max":1028,"ha":1074,"o":"m 536 4 q 345 42 434 4 q 189 148 255 81 q 84 304 122 215 q 46 496 46 394 q 84 687 46 597 q 189 843 122 776 q 345 949 255 910 q 536 988 434 988 q 727 949 637 988 q 883 843 816 910 q 989 687 950 776 q 1028 496 1028 597 q 989 304 1028 394 q 883 148 950 215 q 727 42 816 81 q 536 4 637 4 m 536 71 q 702 104 625 71 q 836 196 779 137 q 926 331 893 254 q 960 496 960 408 q 926 660 960 583 q 836 795 893 737 q 702 886 779 853 q 536 920 625 920 q 371 886 448 920 q 236 795 294 853 q 144 660 177 737 q 111 496 111 583 q 144 331 111 408 q 236 196 177 254 q 371 104 294 137 q 536 71 448 71 m 536 100 q 382 131 454 100 q 256 216 311 162 q 171 341 202 269 q 140 496 140 414 q 171 648 140 576 q 256 773 202 719 q 382 857 311 826 q 536 887 454 887 q 688 857 616 887 q 814 773 761 826 q 899 648 868 719 q 930 496 930 576 q 899 341 930 414 q 814 216 868 269 q 688 131 761 162 q 536 100 616 100 m 536 161 q 611 175 576 161 q 673 211 646 190 q 723 259 701 233 q 758 309 744 286 q 537 281 647 280 q 314 309 426 281 q 348 259 327 286 q 398 211 369 233 q 460 175 426 190 q 536 161 494 161 m 300 330 q 773 330 534 276 l 848 450 l 223 450 l 300 330 m 590 496 l 537 622 l 484 496 l 590 496 m 408 593 q 418 592 411 590 q 434 598 426 594 q 448 606 443 602 q 454 612 454 611 q 422 693 434 651 q 386 768 409 734 q 368 768 381 773 q 339 752 354 762 q 313 733 325 743 q 305 720 302 723 l 408 593 m 766 720 q 759 733 769 723 q 734 752 748 743 q 705 768 719 762 q 687 768 691 773 q 650 693 661 734 q 622 612 638 651 q 625 606 619 611 q 638 598 630 602 q 654 592 645 594 q 666 593 662 590 l 766 720 m 895 70 l 875 70 l 875 85 l 932 85 l 932 70 l 911 70 l 911 17 l 895 17 l 895 70 m 939 84 l 960 84 l 972 31 l 984 84 l 1004 84 l 1004 16 l 991 16 l 991 69 l 978 16 l 966 16 l 952 69 l 952 16 l 939 16 l 939 84 "},"€":{"x_min":46,"x_max":1028,"ha":1074,"o":"m 536 4 q 345 42 434 4 q 189 148 255 81 q 84 304 122 215 q 46 496 46 394 q 84 687 46 597 q 189 843 122 776 q 345 949 255 910 q 536 988 434 988 q 727 949 637 988 q 883 843 816 910 q 989 687 950 776 q 1028 496 1028 597 q 989 304 1028 394 q 883 148 950 215 q 727 42 816 81 q 536 4 637 4 m 536 71 q 702 104 625 71 q 836 196 779 137 q 926 331 893 254 q 960 496 960 408 q 926 660 960 583 q 836 795 893 737 q 702 886 779 853 q 536 920 625 920 q 371 886 448 920 q 236 795 294 853 q 144 660 177 737 q 111 496 111 583 q 144 331 111 408 q 236 196 177 254 q 371 104 294 137 q 536 71 448 71 m 536 100 q 382 131 454 100 q 256 216 311 162 q 171 341 202 269 q 140 496 140 414 q 171 648 140 576 q 256 773 202 719 q 382 857 311 826 q 536 887 454 887 q 688 857 616 887 q 814 773 761 826 q 899 648 868 719 q 930 496 930 576 q 899 341 930 414 q 814 216 868 269 q 688 131 761 162 q 536 100 616 100 m 536 161 q 611 175 576 161 q 673 211 646 190 q 723 259 701 233 q 758 309 744 286 q 537 281 647 280 q 314 309 426 281 q 348 259 327 286 q 398 211 369 233 q 460 175 426 190 q 536 161 494 161 m 300 330 q 773 330 534 276 l 848 450 l 223 450 l 300 330 m 590 496 l 537 622 l 484 496 l 590 496 m 408 593 q 418 592 411 590 q 434 598 426 594 q 448 606 443 602 q 454 612 454 611 q 422 693 434 651 q 386 768 409 734 q 368 768 381 773 q 339 752 354 762 q 313 733 325 743 q 305 720 302 723 l 408 593 m 766 720 q 759 733 769 723 q 734 752 748 743 q 705 768 719 762 q 687 768 691 773 q 650 693 661 734 q 622 612 638 651 q 625 606 619 611 q 638 598 630 602 q 654 592 645 594 q 666 593 662 590 l 766 720 m 895 70 l 875 70 l 875 85 l 932 85 l 932 70 l 911 70 l 911 17 l 895 17 l 895 70 m 939 84 l 960 84 l 972 31 l 984 84 l 1004 84 l 1004 16 l 991 16 l 991 69 l 978 16 l 966 16 l 952 69 l 952 16 l 939 16 l 939 84 "},"¢":{"x_min":217.609375,"x_max":862.5625,"ha":699,"o":"m 819 817 q 724 837 779 828 q 620 841 669 845 q 560 830 593 838 q 498 807 527 823 q 449 766 469 791 q 426 703 429 741 q 437 664 425 682 q 470 633 450 646 q 514 612 490 620 q 561 605 538 605 q 669 617 616 603 q 782 659 722 631 q 766 570 770 614 q 757 482 761 525 q 714 469 733 474 q 678 460 695 463 q 642 455 661 457 q 598 451 623 452 q 593 411 594 427 q 590 382 591 395 q 589 356 588 369 q 590 325 590 343 q 492 327 537 327 q 393 322 447 326 q 418 389 408 355 q 437 454 429 423 q 345 482 386 463 q 276 530 304 501 q 229 608 243 565 q 218 696 215 651 q 238 786 220 741 q 284 868 255 830 q 401 957 331 926 q 554 1002 470 989 q 562 1067 561 1040 q 565 1128 563 1094 q 651 1125 607 1125 q 744 1129 695 1125 q 725 1065 733 1099 q 709 1001 716 1030 q 786 994 745 999 q 862 985 827 990 q 838 902 850 942 q 819 817 826 862 "},"ß":{"x_min":46,"x_max":1028,"ha":1074,"o":"m 536 4 q 345 42 434 4 q 189 148 255 81 q 84 304 122 215 q 46 496 46 394 q 84 687 46 597 q 189 843 122 776 q 345 949 255 910 q 536 988 434 988 q 727 949 637 988 q 883 843 816 910 q 989 687 950 776 q 1028 496 1028 597 q 989 304 1028 394 q 883 148 950 215 q 727 42 816 81 q 536 4 637 4 m 536 71 q 702 104 625 71 q 836 196 779 137 q 926 331 893 254 q 960 496 960 408 q 926 660 960 583 q 836 795 893 737 q 702 886 779 853 q 536 920 625 920 q 371 886 448 920 q 236 795 294 853 q 144 660 177 737 q 111 496 111 583 q 144 331 111 408 q 236 196 177 254 q 371 104 294 137 q 536 71 448 71 m 536 100 q 382 131 454 100 q 256 216 311 162 q 171 341 202 269 q 140 496 140 414 q 171 648 140 576 q 256 773 202 719 q 382 857 311 826 q 536 887 454 887 q 688 857 616 887 q 814 773 761 826 q 899 648 868 719 q 930 496 930 576 q 899 341 930 414 q 814 216 868 269 q 688 131 761 162 q 536 100 616 100 m 536 161 q 611 175 576 161 q 673 211 646 190 q 723 259 701 233 q 758 309 744 286 q 537 281 647 280 q 314 309 426 281 q 348 259 327 286 q 398 211 369 233 q 460 175 426 190 q 536 161 494 161 m 300 330 q 773 330 534 276 l 848 450 l 223 450 l 300 330 m 590 496 l 537 622 l 484 496 l 590 496 m 408 593 q 418 592 411 590 q 434 598 426 594 q 448 606 443 602 q 454 612 454 611 q 422 693 434 651 q 386 768 409 734 q 368 768 381 773 q 339 752 354 762 q 313 733 325 743 q 305 720 302 723 l 408 593 m 766 720 q 759 733 769 723 q 734 752 748 743 q 705 768 719 762 q 687 768 691 773 q 650 693 661 734 q 622 612 638 651 q 625 606 619 611 q 638 598 630 602 q 654 592 645 594 q 666 593 662 590 l 766 720 m 895 70 l 875 70 l 875 85 l 932 85 l 932 70 l 911 70 l 911 17 l 895 17 l 895 70 m 939 84 l 960 84 l 972 31 l 984 84 l 1004 84 l 1004 16 l 991 16 l 991 69 l 978 16 l 966 16 l 952 69 l 952 16 l 939 16 l 939 84 "},"é":{"x_min":46,"x_max":1028,"ha":1074,"o":"m 536 4 q 345 42 434 4 q 189 148 255 81 q 84 304 122 215 q 46 496 46 394 q 84 687 46 597 q 189 843 122 776 q 345 949 255 910 q 536 988 434 988 q 727 949 637 988 q 883 843 816 910 q 989 687 950 776 q 1028 496 1028 597 q 989 304 1028 394 q 883 148 950 215 q 727 42 816 81 q 536 4 637 4 m 536 71 q 702 104 625 71 q 836 196 779 137 q 926 331 893 254 q 960 496 960 408 q 926 660 960 583 q 836 795 893 737 q 702 886 779 853 q 536 920 625 920 q 371 886 448 920 q 236 795 294 853 q 144 660 177 737 q 111 496 111 583 q 144 331 111 408 q 236 196 177 254 q 371 104 294 137 q 536 71 448 71 m 536 100 q 382 131 454 100 q 256 216 311 162 q 171 341 202 269 q 140 496 140 414 q 171 648 140 576 q 256 773 202 719 q 382 857 311 826 q 536 887 454 887 q 688 857 616 887 q 814 773 761 826 q 899 648 868 719 q 930 496 930 576 q 899 341 930 414 q 814 216 868 269 q 688 131 761 162 q 536 100 616 100 m 536 161 q 611 175 576 161 q 673 211 646 190 q 723 259 701 233 q 758 309 744 286 q 537 281 647 280 q 314 309 426 281 q 348 259 327 286 q 398 211 369 233 q 460 175 426 190 q 536 161 494 161 m 300 330 q 773 330 534 276 l 848 450 l 223 450 l 300 330 m 590 496 l 537 622 l 484 496 l 590 496 m 408 593 q 418 592 411 590 q 434 598 426 594 q 448 606 443 602 q 454 612 454 611 q 422 693 434 651 q 386 768 409 734 q 368 768 381 773 q 339 752 354 762 q 313 733 325 743 q 305 720 302 723 l 408 593 m 766 720 q 759 733 769 723 q 734 752 748 743 q 705 768 719 762 q 687 768 691 773 q 650 693 661 734 q 622 612 638 651 q 625 606 619 611 q 638 598 630 602 q 654 592 645 594 q 666 593 662 590 l 766 720 m 895 70 l 875 70 l 875 85 l 932 85 l 932 70 l 911 70 l 911 17 l 895 17 l 895 70 m 939 84 l 960 84 l 972 31 l 984 84 l 1004 84 l 1004 16 l 991 16 l 991 69 l 978 16 l 966 16 l 952 69 l 952 16 l 939 16 l 939 84 "},"s":{"x_min":51.390625,"x_max":955.625,"ha":772,"o":"m 88 254 q 140 245 111 250 q 200 239 169 241 q 260 237 230 237 q 315 238 290 237 q 409 260 373 243 q 453 303 444 277 q 441 361 462 329 q 362 425 419 393 q 239 519 283 469 q 188 651 195 569 q 195 731 184 690 q 226 804 206 772 q 308 897 256 858 q 422 963 359 937 q 552 1004 484 990 q 682 1025 620 1019 q 818 1029 754 1032 q 955 1019 883 1026 l 883 736 q 824 745 859 741 q 751 747 788 748 q 678 740 713 745 q 619 723 643 734 q 552 670 581 704 q 523 591 522 636 q 543 547 523 566 q 591 511 563 527 q 647 481 619 494 q 693 455 676 468 q 738 422 715 438 q 781 385 762 405 q 809 340 800 365 q 815 283 819 315 q 802 237 812 261 q 780 194 793 213 q 635 75 723 118 q 446 16 547 33 q 242 3 345 0 q 51 23 138 6 l 88 254 "},"B":{"x_min":72.234375,"x_max":1005.53125,"ha":890,"o":"m 498 613 q 659 639 601 607 q 733 729 716 672 q 736 774 741 754 q 712 806 732 794 q 655 818 693 818 q 562 804 618 818 q 529 709 545 755 q 498 613 513 662 m 359 222 q 466 218 419 213 q 547 238 513 223 q 603 278 581 254 q 633 331 625 302 q 595 412 648 384 q 420 420 543 440 q 390 321 405 368 q 359 222 375 275 m 72 38 q 138 277 105 159 q 205 511 170 394 q 277 748 240 629 q 358 994 315 868 q 504 1026 423 1014 q 657 1042 586 1039 q 741 1039 697 1042 q 825 1025 784 1036 q 902 994 866 1014 q 962 944 937 973 q 998 873 987 914 q 1002 782 1009 833 q 974 700 997 740 q 916 625 951 659 q 835 562 880 590 q 740 521 790 534 q 819 499 782 515 q 884 456 857 483 q 925 391 912 429 q 930 304 938 352 q 857 152 915 216 q 708 51 800 87 q 627 26 670 36 q 542 11 584 16 q 461 2 500 5 q 391 0 422 0 q 202 11 279 -2 q 72 38 125 25 "},"?":{"x_min":166.875,"x_max":1052.609375,"ha":907,"o":"m 526 440 q 512 413 518 425 q 501 391 506 402 q 490 365 495 379 q 477 331 484 351 q 377 338 433 337 q 251 326 322 338 q 280 452 265 391 q 319 577 295 512 q 378 570 343 573 q 453 567 413 566 q 533 573 493 568 q 605 593 573 579 q 659 631 637 607 q 682 693 680 655 q 659 755 683 733 q 597 786 636 777 q 511 793 559 795 q 414 780 462 790 q 325 756 366 770 q 261 727 284 741 q 274 803 266 763 q 290 880 281 843 q 308 950 298 918 q 326 1001 318 982 q 439 1031 380 1019 q 559 1048 498 1043 q 678 1050 619 1052 q 793 1038 737 1047 q 921 993 869 1023 q 1003 923 973 962 q 1044 840 1033 884 q 1051 752 1055 795 q 1013 629 1044 691 q 920 520 983 566 q 761 449 858 473 q 526 440 665 425 m 356 274 q 293 264 323 275 q 237 235 262 254 q 194 191 212 217 q 169 136 176 165 q 195 39 158 79 q 298 -4 231 -1 q 361 6 330 -4 q 416 35 391 16 q 459 80 441 54 q 483 135 476 105 q 481 189 488 164 q 457 233 475 214 q 414 262 440 251 q 356 274 388 274 "},"H":{"x_min":69.453125,"x_max":1116.75,"ha":908,"o":"m 613 1019 q 552 816 581 919 q 493 614 522 714 q 613 620 551 618 q 725 625 675 623 q 776 814 750 720 q 832 1005 802 908 q 973 1016 904 1016 q 1116 1011 1043 1016 q 969 517 1036 759 q 836 24 902 275 q 707 28 772 30 q 580 24 643 26 q 615 180 598 100 q 651 337 632 260 q 533 338 597 339 q 413 336 469 337 q 372 176 393 255 q 329 18 351 97 q 197 21 263 23 q 69 15 130 19 q 181 503 122 254 q 311 1009 240 752 q 461 1022 383 1020 q 613 1019 540 1023 "},"î":{"x_min":46,"x_max":1028,"ha":1074,"o":"m 536 4 q 345 42 434 4 q 189 148 255 81 q 84 304 122 215 q 46 496 46 394 q 84 687 46 597 q 189 843 122 776 q 345 949 255 910 q 536 988 434 988 q 727 949 637 988 q 883 843 816 910 q 989 687 950 776 q 1028 496 1028 597 q 989 304 1028 394 q 883 148 950 215 q 727 42 816 81 q 536 4 637 4 m 536 71 q 702 104 625 71 q 836 196 779 137 q 926 331 893 254 q 960 496 960 408 q 926 660 960 583 q 836 795 893 737 q 702 886 779 853 q 536 920 625 920 q 371 886 448 920 q 236 795 294 853 q 144 660 177 737 q 111 496 111 583 q 144 331 111 408 q 236 196 177 254 q 371 104 294 137 q 536 71 448 71 m 536 100 q 382 131 454 100 q 256 216 311 162 q 171 341 202 269 q 140 496 140 414 q 171 648 140 576 q 256 773 202 719 q 382 857 311 826 q 536 887 454 887 q 688 857 616 887 q 814 773 761 826 q 899 648 868 719 q 930 496 930 576 q 899 341 930 414 q 814 216 868 269 q 688 131 761 162 q 536 100 616 100 m 536 161 q 611 175 576 161 q 673 211 646 190 q 723 259 701 233 q 758 309 744 286 q 537 281 647 280 q 314 309 426 281 q 348 259 327 286 q 398 211 369 233 q 460 175 426 190 q 536 161 494 161 m 300 330 q 773 330 534 276 l 848 450 l 223 450 l 300 330 m 590 496 l 537 622 l 484 496 l 590 496 m 408 593 q 418 592 411 590 q 434 598 426 594 q 448 606 443 602 q 454 612 454 611 q 422 693 434 651 q 386 768 409 734 q 368 768 381 773 q 339 752 354 762 q 313 733 325 743 q 305 720 302 723 l 408 593 m 766 720 q 759 733 769 723 q 734 752 748 743 q 705 768 719 762 q 687 768 691 773 q 650 693 661 734 q 622 612 638 651 q 625 606 619 611 q 638 598 630 602 q 654 592 645 594 q 666 593 662 590 l 766 720 m 895 70 l 875 70 l 875 85 l 932 85 l 932 70 l 911 70 l 911 17 l 895 17 l 895 70 m 939 84 l 960 84 l 972 31 l 984 84 l 1004 84 l 1004 16 l 991 16 l 991 69 l 978 16 l 966 16 l 952 69 l 952 16 l 939 16 l 939 84 "},"c":{"x_min":147.6875,"x_max":1072.3125,"ha":882,"o":"m 955 701 q 780 716 868 727 q 618 661 693 704 q 492 547 544 618 q 423 384 440 476 q 438 291 416 337 q 520 230 461 245 q 590 222 554 223 q 670 228 626 220 q 768 254 713 236 q 893 308 822 273 q 863 232 876 263 q 836 173 850 201 q 804 116 822 145 q 762 48 787 87 q 651 9 711 20 q 543 -4 591 -1 q 365 27 443 -5 q 236 116 287 59 q 162 252 184 173 q 151 425 140 331 q 206 618 163 527 q 311 781 248 708 q 456 907 375 854 q 629 987 537 959 q 749 1013 688 1005 q 866 1021 809 1020 q 975 1018 923 1022 q 1072 1008 1027 1013 q 1036 915 1051 952 q 1008 845 1020 877 q 984 781 995 813 q 955 701 972 748 "},"¶":{"x_min":46,"x_max":1028,"ha":1074,"o":"m 536 4 q 345 42 434 4 q 189 148 255 81 q 84 304 122 215 q 46 496 46 394 q 84 687 46 597 q 189 843 122 776 q 345 949 255 910 q 536 988 434 988 q 727 949 637 988 q 883 843 816 910 q 989 687 950 776 q 1028 496 1028 597 q 989 304 1028 394 q 883 148 950 215 q 727 42 816 81 q 536 4 637 4 m 536 71 q 702 104 625 71 q 836 196 779 137 q 926 331 893 254 q 960 496 960 408 q 926 660 960 583 q 836 795 893 737 q 702 886 779 853 q 536 920 625 920 q 371 886 448 920 q 236 795 294 853 q 144 660 177 737 q 111 496 111 583 q 144 331 111 408 q 236 196 177 254 q 371 104 294 137 q 536 71 448 71 m 536 100 q 382 131 454 100 q 256 216 311 162 q 171 341 202 269 q 140 496 140 414 q 171 648 140 576 q 256 773 202 719 q 382 857 311 826 q 536 887 454 887 q 688 857 616 887 q 814 773 761 826 q 899 648 868 719 q 930 496 930 576 q 899 341 930 414 q 814 216 868 269 q 688 131 761 162 q 536 100 616 100 m 536 161 q 611 175 576 161 q 673 211 646 190 q 723 259 701 233 q 758 309 744 286 q 537 281 647 280 q 314 309 426 281 q 348 259 327 286 q 398 211 369 233 q 460 175 426 190 q 536 161 494 161 m 300 330 q 773 330 534 276 l 848 450 l 223 450 l 300 330 m 590 496 l 537 622 l 484 496 l 590 496 m 408 593 q 418 592 411 590 q 434 598 426 594 q 448 606 443 602 q 454 612 454 611 q 422 693 434 651 q 386 768 409 734 q 368 768 381 773 q 339 752 354 762 q 313 733 325 743 q 305 720 302 723 l 408 593 m 766 720 q 759 733 769 723 q 734 752 748 743 q 705 768 719 762 q 687 768 691 773 q 650 693 661 734 q 622 612 638 651 q 625 606 619 611 q 638 598 630 602 q 654 592 645 594 q 666 593 662 590 l 766 720 m 895 70 l 875 70 l 875 85 l 932 85 l 932 70 l 911 70 l 911 17 l 895 17 l 895 70 m 939 84 l 960 84 l 972 31 l 984 84 l 1004 84 l 1004 16 l 991 16 l 991 69 l 978 16 l 966 16 l 952 69 l 952 16 l 939 16 l 939 84 "},"¥":{"x_min":46,"x_max":1028,"ha":1074,"o":"m 536 4 q 345 42 434 4 q 189 148 255 81 q 84 304 122 215 q 46 496 46 394 q 84 687 46 597 q 189 843 122 776 q 345 949 255 910 q 536 988 434 988 q 727 949 637 988 q 883 843 816 910 q 989 687 950 776 q 1028 496 1028 597 q 989 304 1028 394 q 883 148 950 215 q 727 42 816 81 q 536 4 637 4 m 536 71 q 702 104 625 71 q 836 196 779 137 q 926 331 893 254 q 960 496 960 408 q 926 660 960 583 q 836 795 893 737 q 702 886 779 853 q 536 920 625 920 q 371 886 448 920 q 236 795 294 853 q 144 660 177 737 q 111 496 111 583 q 144 331 111 408 q 236 196 177 254 q 371 104 294 137 q 536 71 448 71 m 536 100 q 382 131 454 100 q 256 216 311 162 q 171 341 202 269 q 140 496 140 414 q 171 648 140 576 q 256 773 202 719 q 382 857 311 826 q 536 887 454 887 q 688 857 616 887 q 814 773 761 826 q 899 648 868 719 q 930 496 930 576 q 899 341 930 414 q 814 216 868 269 q 688 131 761 162 q 536 100 616 100 m 536 161 q 611 175 576 161 q 673 211 646 190 q 723 259 701 233 q 758 309 744 286 q 537 281 647 280 q 314 309 426 281 q 348 259 327 286 q 398 211 369 233 q 460 175 426 190 q 536 161 494 161 m 300 330 q 773 330 534 276 l 848 450 l 223 450 l 300 330 m 590 496 l 537 622 l 484 496 l 590 496 m 408 593 q 418 592 411 590 q 434 598 426 594 q 448 606 443 602 q 454 612 454 611 q 422 693 434 651 q 386 768 409 734 q 368 768 381 773 q 339 752 354 762 q 313 733 325 743 q 305 720 302 723 l 408 593 m 766 720 q 759 733 769 723 q 734 752 748 743 q 705 768 719 762 q 687 768 691 773 q 650 693 661 734 q 622 612 638 651 q 625 606 619 611 q 638 598 630 602 q 654 592 645 594 q 666 593 662 590 l 766 720 m 895 70 l 875 70 l 875 85 l 932 85 l 932 70 l 911 70 l 911 17 l 895 17 l 895 70 m 939 84 l 960 84 l 972 31 l 984 84 l 1004 84 l 1004 16 l 991 16 l 991 69 l 978 16 l 966 16 l 952 69 l 952 16 l 939 16 l 939 84 "},"(":{"x_min":46,"x_max":1028,"ha":1074,"o":"m 536 4 q 345 42 434 4 q 189 148 255 81 q 84 304 122 215 q 46 496 46 394 q 84 687 46 597 q 189 843 122 776 q 345 949 255 910 q 536 988 434 988 q 727 949 637 988 q 883 843 816 910 q 989 687 950 776 q 1028 496 1028 597 q 989 304 1028 394 q 883 148 950 215 q 727 42 816 81 q 536 4 637 4 m 536 71 q 702 104 625 71 q 836 196 779 137 q 926 331 893 254 q 960 496 960 408 q 926 660 960 583 q 836 795 893 737 q 702 886 779 853 q 536 920 625 920 q 371 886 448 920 q 236 795 294 853 q 144 660 177 737 q 111 496 111 583 q 144 331 111 408 q 236 196 177 254 q 371 104 294 137 q 536 71 448 71 m 536 100 q 382 131 454 100 q 256 216 311 162 q 171 341 202 269 q 140 496 140 414 q 171 648 140 576 q 256 773 202 719 q 382 857 311 826 q 536 887 454 887 q 688 857 616 887 q 814 773 761 826 q 899 648 868 719 q 930 496 930 576 q 899 341 930 414 q 814 216 868 269 q 688 131 761 162 q 536 100 616 100 m 536 161 q 611 175 576 161 q 673 211 646 190 q 723 259 701 233 q 758 309 744 286 q 537 281 647 280 q 314 309 426 281 q 348 259 327 286 q 398 211 369 233 q 460 175 426 190 q 536 161 494 161 m 300 330 q 773 330 534 276 l 848 450 l 223 450 l 300 330 m 590 496 l 537 622 l 484 496 l 590 496 m 408 593 q 418 592 411 590 q 434 598 426 594 q 448 606 443 602 q 454 612 454 611 q 422 693 434 651 q 386 768 409 734 q 368 768 381 773 q 339 752 354 762 q 313 733 325 743 q 305 720 302 723 l 408 593 m 766 720 q 759 733 769 723 q 734 752 748 743 q 705 768 719 762 q 687 768 691 773 q 650 693 661 734 q 622 612 638 651 q 625 606 619 611 q 638 598 630 602 q 654 592 645 594 q 666 593 662 590 l 766 720 m 895 70 l 875 70 l 875 85 l 932 85 l 932 70 l 911 70 l 911 17 l 895 17 l 895 70 m 939 84 l 960 84 l 972 31 l 984 84 l 1004 84 l 1004 16 l 991 16 l 991 69 l 978 16 l 966 16 l 952 69 l 952 16 l 939 16 l 939 84 "},"U":{"x_min":164.59375,"x_max":1143.140625,"ha":958,"o":"m 643 997 q 591 836 619 924 q 535 656 562 748 q 484 476 508 565 q 443 315 459 387 q 442 270 436 286 q 461 246 448 254 q 490 237 473 238 q 522 236 506 236 q 572 241 551 237 q 611 256 594 245 q 639 286 627 267 q 661 334 651 305 q 710 490 684 402 q 759 671 736 579 q 804 852 783 763 q 840 1013 825 941 q 1000 1020 930 1020 q 1143 1012 1069 1019 q 1100 848 1122 936 q 1053 670 1077 761 q 1003 489 1029 579 q 951 320 977 399 q 872 147 916 212 q 770 48 829 83 q 634 4 711 14 q 459 -6 558 -6 q 338 6 391 -6 q 247 42 284 19 q 186 110 204 70 q 165 194 168 149 q 170 288 162 240 q 188 381 179 336 q 229 545 206 461 q 276 711 252 630 q 322 865 300 793 q 362 994 345 937 q 512 1002 440 1001 q 643 997 584 1002 "},"Ñ":{"x_min":46,"x_max":1028,"ha":1074,"o":"m 536 4 q 345 42 434 4 q 189 148 255 81 q 84 304 122 215 q 46 496 46 394 q 84 687 46 597 q 189 843 122 776 q 345 949 255 910 q 536 988 434 988 q 727 949 637 988 q 883 843 816 910 q 989 687 950 776 q 1028 496 1028 597 q 989 304 1028 394 q 883 148 950 215 q 727 42 816 81 q 536 4 637 4 m 536 71 q 702 104 625 71 q 836 196 779 137 q 926 331 893 254 q 960 496 960 408 q 926 660 960 583 q 836 795 893 737 q 702 886 779 853 q 536 920 625 920 q 371 886 448 920 q 236 795 294 853 q 144 660 177 737 q 111 496 111 583 q 144 331 111 408 q 236 196 177 254 q 371 104 294 137 q 536 71 448 71 m 536 100 q 382 131 454 100 q 256 216 311 162 q 171 341 202 269 q 140 496 140 414 q 171 648 140 576 q 256 773 202 719 q 382 857 311 826 q 536 887 454 887 q 688 857 616 887 q 814 773 761 826 q 899 648 868 719 q 930 496 930 576 q 899 341 930 414 q 814 216 868 269 q 688 131 761 162 q 536 100 616 100 m 536 161 q 611 175 576 161 q 673 211 646 190 q 723 259 701 233 q 758 309 744 286 q 537 281 647 280 q 314 309 426 281 q 348 259 327 286 q 398 211 369 233 q 460 175 426 190 q 536 161 494 161 m 300 330 q 773 330 534 276 l 848 450 l 223 450 l 300 330 m 590 496 l 537 622 l 484 496 l 590 496 m 408 593 q 418 592 411 590 q 434 598 426 594 q 448 606 443 602 q 454 612 454 611 q 422 693 434 651 q 386 768 409 734 q 368 768 381 773 q 339 752 354 762 q 313 733 325 743 q 305 720 302 723 l 408 593 m 766 720 q 759 733 769 723 q 734 752 748 743 q 705 768 719 762 q 687 768 691 773 q 650 693 661 734 q 622 612 638 651 q 625 606 619 611 q 638 598 630 602 q 654 592 645 594 q 666 593 662 590 l 766 720 m 895 70 l 875 70 l 875 85 l 932 85 l 932 70 l 911 70 l 911 17 l 895 17 l 895 70 m 939 84 l 960 84 l 972 31 l 984 84 l 1004 84 l 1004 16 l 991 16 l 991 69 l 978 16 l 966 16 l 952 69 l 952 16 l 939 16 l 939 84 "},"F":{"x_min":68.0625,"x_max":991.75,"ha":770,"o":"m 481 571 q 560 579 516 576 q 648 583 604 582 q 735 585 693 585 q 809 585 777 585 q 778 474 794 532 q 741 363 762 415 q 670 365 712 364 q 582 365 627 365 q 495 362 537 364 q 422 357 452 360 q 363 199 391 279 q 306 26 336 119 q 197 16 250 16 q 68 16 144 16 q 126 260 97 140 q 186 501 155 380 q 252 745 216 622 q 329 997 287 868 q 485 1014 400 1008 q 659 1024 570 1020 q 834 1027 748 1027 q 991 1025 919 1026 q 941 886 968 956 q 887 747 913 815 q 806 747 852 748 q 711 745 759 747 q 614 741 662 744 q 529 737 566 738 q 506 652 518 697 q 481 571 494 608 "},"­":{"x_min":46,"x_max":1028,"ha":1074,"o":"m 536 4 q 345 42 434 4 q 189 148 255 81 q 84 304 122 215 q 46 496 46 394 q 84 687 46 597 q 189 843 122 776 q 345 949 255 910 q 536 988 434 988 q 727 949 637 988 q 883 843 816 910 q 989 687 950 776 q 1028 496 1028 597 q 989 304 1028 394 q 883 148 950 215 q 727 42 816 81 q 536 4 637 4 m 536 71 q 702 104 625 71 q 836 196 779 137 q 926 331 893 254 q 960 496 960 408 q 926 660 960 583 q 836 795 893 737 q 702 886 779 853 q 536 920 625 920 q 371 886 448 920 q 236 795 294 853 q 144 660 177 737 q 111 496 111 583 q 144 331 111 408 q 236 196 177 254 q 371 104 294 137 q 536 71 448 71 m 536 100 q 382 131 454 100 q 256 216 311 162 q 171 341 202 269 q 140 496 140 414 q 171 648 140 576 q 256 773 202 719 q 382 857 311 826 q 536 887 454 887 q 688 857 616 887 q 814 773 761 826 q 899 648 868 719 q 930 496 930 576 q 899 341 930 414 q 814 216 868 269 q 688 131 761 162 q 536 100 616 100 m 536 161 q 611 175 576 161 q 673 211 646 190 q 723 259 701 233 q 758 309 744 286 q 537 281 647 280 q 314 309 426 281 q 348 259 327 286 q 398 211 369 233 q 460 175 426 190 q 536 161 494 161 m 300 330 q 773 330 534 276 l 848 450 l 223 450 l 300 330 m 590 496 l 537 622 l 484 496 l 590 496 m 408 593 q 418 592 411 590 q 434 598 426 594 q 448 606 443 602 q 454 612 454 611 q 422 693 434 651 q 386 768 409 734 q 368 768 381 773 q 339 752 354 762 q 313 733 325 743 q 305 720 302 723 l 408 593 m 766 720 q 759 733 769 723 q 734 752 748 743 q 705 768 719 762 q 687 768 691 773 q 650 693 661 734 q 622 612 638 651 q 625 606 619 611 q 638 598 630 602 q 654 592 645 594 q 666 593 662 590 l 766 720 m 895 70 l 875 70 l 875 85 l 932 85 l 932 70 l 911 70 l 911 17 l 895 17 l 895 70 m 939 84 l 960 84 l 972 31 l 984 84 l 1004 84 l 1004 16 l 991 16 l 991 69 l 978 16 l 966 16 l 952 69 l 952 16 l 939 16 l 939 84 "},":":{"x_min":65.59375,"x_max":532.6875,"ha":417,"o":"m 402 763 q 461 751 434 763 q 504 721 487 740 q 529 676 522 703 q 529 621 536 650 q 504 565 522 592 q 459 519 486 539 q 402 489 433 500 q 337 478 370 478 q 277 491 304 479 q 233 523 251 503 q 208 568 215 543 q 206 622 201 593 q 234 678 215 651 q 279 723 252 704 q 337 753 305 742 q 402 763 369 764 m 263 281 q 322 269 295 281 q 366 239 348 258 q 390 194 383 221 q 390 139 397 168 q 365 83 383 110 q 320 37 347 57 q 263 7 294 18 q 198 -4 231 -4 q 138 9 165 -2 q 94 41 112 21 q 69 86 76 61 q 68 140 62 111 q 95 196 76 169 q 140 241 113 222 q 198 271 166 260 q 263 281 230 282 "},"Û":{"x_min":46,"x_max":1028,"ha":1074,"o":"m 536 4 q 345 42 434 4 q 189 148 255 81 q 84 304 122 215 q 46 496 46 394 q 84 687 46 597 q 189 843 122 776 q 345 949 255 910 q 536 988 434 988 q 727 949 637 988 q 883 843 816 910 q 989 687 950 776 q 1028 496 1028 597 q 989 304 1028 394 q 883 148 950 215 q 727 42 816 81 q 536 4 637 4 m 536 71 q 702 104 625 71 q 836 196 779 137 q 926 331 893 254 q 960 496 960 408 q 926 660 960 583 q 836 795 893 737 q 702 886 779 853 q 536 920 625 920 q 371 886 448 920 q 236 795 294 853 q 144 660 177 737 q 111 496 111 583 q 144 331 111 408 q 236 196 177 254 q 371 104 294 137 q 536 71 448 71 m 536 100 q 382 131 454 100 q 256 216 311 162 q 171 341 202 269 q 140 496 140 414 q 171 648 140 576 q 256 773 202 719 q 382 857 311 826 q 536 887 454 887 q 688 857 616 887 q 814 773 761 826 q 899 648 868 719 q 930 496 930 576 q 899 341 930 414 q 814 216 868 269 q 688 131 761 162 q 536 100 616 100 m 536 161 q 611 175 576 161 q 673 211 646 190 q 723 259 701 233 q 758 309 744 286 q 537 281 647 280 q 314 309 426 281 q 348 259 327 286 q 398 211 369 233 q 460 175 426 190 q 536 161 494 161 m 300 330 q 773 330 534 276 l 848 450 l 223 450 l 300 330 m 590 496 l 537 622 l 484 496 l 590 496 m 408 593 q 418 592 411 590 q 434 598 426 594 q 448 606 443 602 q 454 612 454 611 q 422 693 434 651 q 386 768 409 734 q 368 768 381 773 q 339 752 354 762 q 313 733 325 743 q 305 720 302 723 l 408 593 m 766 720 q 759 733 769 723 q 734 752 748 743 q 705 768 719 762 q 687 768 691 773 q 650 693 661 734 q 622 612 638 651 q 625 606 619 611 q 638 598 630 602 q 654 592 645 594 q 666 593 662 590 l 766 720 m 895 70 l 875 70 l 875 85 l 932 85 l 932 70 l 911 70 l 911 17 l 895 17 l 895 70 m 939 84 l 960 84 l 972 31 l 984 84 l 1004 84 l 1004 16 l 991 16 l 991 69 l 978 16 l 966 16 l 952 69 l 952 16 l 939 16 l 939 84 "},"*":{"x_min":46,"x_max":1028,"ha":1074,"o":"m 536 4 q 345 42 434 4 q 189 148 255 81 q 84 304 122 215 q 46 496 46 394 q 84 687 46 597 q 189 843 122 776 q 345 949 255 910 q 536 988 434 988 q 727 949 637 988 q 883 843 816 910 q 989 687 950 776 q 1028 496 1028 597 q 989 304 1028 394 q 883 148 950 215 q 727 42 816 81 q 536 4 637 4 m 536 71 q 702 104 625 71 q 836 196 779 137 q 926 331 893 254 q 960 496 960 408 q 926 660 960 583 q 836 795 893 737 q 702 886 779 853 q 536 920 625 920 q 371 886 448 920 q 236 795 294 853 q 144 660 177 737 q 111 496 111 583 q 144 331 111 408 q 236 196 177 254 q 371 104 294 137 q 536 71 448 71 m 536 100 q 382 131 454 100 q 256 216 311 162 q 171 341 202 269 q 140 496 140 414 q 171 648 140 576 q 256 773 202 719 q 382 857 311 826 q 536 887 454 887 q 688 857 616 887 q 814 773 761 826 q 899 648 868 719 q 930 496 930 576 q 899 341 930 414 q 814 216 868 269 q 688 131 761 162 q 536 100 616 100 m 536 161 q 611 175 576 161 q 673 211 646 190 q 723 259 701 233 q 758 309 744 286 q 537 281 647 280 q 314 309 426 281 q 348 259 327 286 q 398 211 369 233 q 460 175 426 190 q 536 161 494 161 m 300 330 q 773 330 534 276 l 848 450 l 223 450 l 300 330 m 590 496 l 537 622 l 484 496 l 590 496 m 408 593 q 418 592 411 590 q 434 598 426 594 q 448 606 443 602 q 454 612 454 611 q 422 693 434 651 q 386 768 409 734 q 368 768 381 773 q 339 752 354 762 q 313 733 325 743 q 305 720 302 723 l 408 593 m 766 720 q 759 733 769 723 q 734 752 748 743 q 705 768 719 762 q 687 768 691 773 q 650 693 661 734 q 622 612 638 651 q 625 606 619 611 q 638 598 630 602 q 654 592 645 594 q 666 593 662 590 l 766 720 m 895 70 l 875 70 l 875 85 l 932 85 l 932 70 l 911 70 l 911 17 l 895 17 l 895 70 m 939 84 l 960 84 l 972 31 l 984 84 l 1004 84 l 1004 16 l 991 16 l 991 69 l 978 16 l 966 16 l 952 69 l 952 16 l 939 16 l 939 84 "},"°":{"x_min":46,"x_max":1028,"ha":1074,"o":"m 536 4 q 345 42 434 4 q 189 148 255 81 q 84 304 122 215 q 46 496 46 394 q 84 687 46 597 q 189 843 122 776 q 345 949 255 910 q 536 988 434 988 q 727 949 637 988 q 883 843 816 910 q 989 687 950 776 q 1028 496 1028 597 q 989 304 1028 394 q 883 148 950 215 q 727 42 816 81 q 536 4 637 4 m 536 71 q 702 104 625 71 q 836 196 779 137 q 926 331 893 254 q 960 496 960 408 q 926 660 960 583 q 836 795 893 737 q 702 886 779 853 q 536 920 625 920 q 371 886 448 920 q 236 795 294 853 q 144 660 177 737 q 111 496 111 583 q 144 331 111 408 q 236 196 177 254 q 371 104 294 137 q 536 71 448 71 m 536 100 q 382 131 454 100 q 256 216 311 162 q 171 341 202 269 q 140 496 140 414 q 171 648 140 576 q 256 773 202 719 q 382 857 311 826 q 536 887 454 887 q 688 857 616 887 q 814 773 761 826 q 899 648 868 719 q 930 496 930 576 q 899 341 930 414 q 814 216 868 269 q 688 131 761 162 q 536 100 616 100 m 536 161 q 611 175 576 161 q 673 211 646 190 q 723 259 701 233 q 758 309 744 286 q 537 281 647 280 q 314 309 426 281 q 348 259 327 286 q 398 211 369 233 q 460 175 426 190 q 536 161 494 161 m 300 330 q 773 330 534 276 l 848 450 l 223 450 l 300 330 m 590 496 l 537 622 l 484 496 l 590 496 m 408 593 q 418 592 411 590 q 434 598 426 594 q 448 606 443 602 q 454 612 454 611 q 422 693 434 651 q 386 768 409 734 q 368 768 381 773 q 339 752 354 762 q 313 733 325 743 q 305 720 302 723 l 408 593 m 766 720 q 759 733 769 723 q 734 752 748 743 q 705 768 719 762 q 687 768 691 773 q 650 693 661 734 q 622 612 638 651 q 625 606 619 611 q 638 598 630 602 q 654 592 645 594 q 666 593 662 590 l 766 720 m 895 70 l 875 70 l 875 85 l 932 85 l 932 70 l 911 70 l 911 17 l 895 17 l 895 70 m 939 84 l 960 84 l 972 31 l 984 84 l 1004 84 l 1004 16 l 991 16 l 991 69 l 978 16 l 966 16 l 952 69 l 952 16 l 939 16 l 939 84 "},"V":{"x_min":260.203125,"x_max":1126.484375,"ha":906,"o":"m 580 1008 q 556 866 568 943 q 536 711 545 789 q 518 557 526 633 q 505 418 511 482 q 648 720 570 568 q 808 1012 726 872 q 968 1021 890 1021 q 1126 1018 1045 1021 q 966 764 1044 896 q 815 501 887 632 q 679 248 743 371 q 561 21 615 125 q 419 25 490 23 q 261 15 348 26 q 260 255 259 125 q 263 517 261 384 q 272 775 266 650 q 287 1003 279 900 q 358 1009 319 1007 q 436 1012 397 1011 q 513 1011 476 1012 q 580 1008 551 1009 "},"å":{"x_min":46,"x_max":1028,"ha":1074,"o":"m 536 4 q 345 42 434 4 q 189 148 255 81 q 84 304 122 215 q 46 496 46 394 q 84 687 46 597 q 189 843 122 776 q 345 949 255 910 q 536 988 434 988 q 727 949 637 988 q 883 843 816 910 q 989 687 950 776 q 1028 496 1028 597 q 989 304 1028 394 q 883 148 950 215 q 727 42 816 81 q 536 4 637 4 m 536 71 q 702 104 625 71 q 836 196 779 137 q 926 331 893 254 q 960 496 960 408 q 926 660 960 583 q 836 795 893 737 q 702 886 779 853 q 536 920 625 920 q 371 886 448 920 q 236 795 294 853 q 144 660 177 737 q 111 496 111 583 q 144 331 111 408 q 236 196 177 254 q 371 104 294 137 q 536 71 448 71 m 536 100 q 382 131 454 100 q 256 216 311 162 q 171 341 202 269 q 140 496 140 414 q 171 648 140 576 q 256 773 202 719 q 382 857 311 826 q 536 887 454 887 q 688 857 616 887 q 814 773 761 826 q 899 648 868 719 q 930 496 930 576 q 899 341 930 414 q 814 216 868 269 q 688 131 761 162 q 536 100 616 100 m 536 161 q 611 175 576 161 q 673 211 646 190 q 723 259 701 233 q 758 309 744 286 q 537 281 647 280 q 314 309 426 281 q 348 259 327 286 q 398 211 369 233 q 460 175 426 190 q 536 161 494 161 m 300 330 q 773 330 534 276 l 848 450 l 223 450 l 300 330 m 590 496 l 537 622 l 484 496 l 590 496 m 408 593 q 418 592 411 590 q 434 598 426 594 q 448 606 443 602 q 454 612 454 611 q 422 693 434 651 q 386 768 409 734 q 368 768 381 773 q 339 752 354 762 q 313 733 325 743 q 305 720 302 723 l 408 593 m 766 720 q 759 733 769 723 q 734 752 748 743 q 705 768 719 762 q 687 768 691 773 q 650 693 661 734 q 622 612 638 651 q 625 606 619 611 q 638 598 630 602 q 654 592 645 594 q 666 593 662 590 l 766 720 m 895 70 l 875 70 l 875 85 l 932 85 l 932 70 l 911 70 l 911 17 l 895 17 l 895 70 m 939 84 l 960 84 l 972 31 l 984 84 l 1004 84 l 1004 16 l 991 16 l 991 69 l 978 16 l 966 16 l 952 69 l 952 16 l 939 16 l 939 84 "}," ":{"x_min":0,"x_max":0,"ha":695},"0":{"x_min":185.3125,"x_max":1111.515625,"ha":1021,"o":"m 712 757 q 630 737 666 758 q 566 682 594 716 q 518 602 538 647 q 484 511 498 558 q 470 420 472 468 q 478 334 469 373 q 507 268 487 294 q 561 238 527 241 q 639 255 602 234 q 706 312 676 276 q 759 396 736 348 q 798 497 782 444 q 814 590 811 544 q 809 672 818 636 q 777 732 800 708 q 712 757 754 755 m 780 1039 q 966 987 894 1036 q 1073 861 1037 939 q 1111 688 1108 784 q 1091 495 1113 593 q 1013 287 1066 383 q 884 124 961 191 q 709 22 808 56 q 488 -2 609 -12 q 327 58 394 4 q 223 195 259 112 q 185 384 187 279 q 219 600 183 490 q 435 936 294 827 q 780 1039 576 1045 "},"¾":{"x_min":46,"x_max":1028,"ha":1074,"o":"m 536 4 q 345 42 434 4 q 189 148 255 81 q 84 304 122 215 q 46 496 46 394 q 84 687 46 597 q 189 843 122 776 q 345 949 255 910 q 536 988 434 988 q 727 949 637 988 q 883 843 816 910 q 989 687 950 776 q 1028 496 1028 597 q 989 304 1028 394 q 883 148 950 215 q 727 42 816 81 q 536 4 637 4 m 536 71 q 702 104 625 71 q 836 196 779 137 q 926 331 893 254 q 960 496 960 408 q 926 660 960 583 q 836 795 893 737 q 702 886 779 853 q 536 920 625 920 q 371 886 448 920 q 236 795 294 853 q 144 660 177 737 q 111 496 111 583 q 144 331 111 408 q 236 196 177 254 q 371 104 294 137 q 536 71 448 71 m 536 100 q 382 131 454 100 q 256 216 311 162 q 171 341 202 269 q 140 496 140 414 q 171 648 140 576 q 256 773 202 719 q 382 857 311 826 q 536 887 454 887 q 688 857 616 887 q 814 773 761 826 q 899 648 868 719 q 930 496 930 576 q 899 341 930 414 q 814 216 868 269 q 688 131 761 162 q 536 100 616 100 m 536 161 q 611 175 576 161 q 673 211 646 190 q 723 259 701 233 q 758 309 744 286 q 537 281 647 280 q 314 309 426 281 q 348 259 327 286 q 398 211 369 233 q 460 175 426 190 q 536 161 494 161 m 300 330 q 773 330 534 276 l 848 450 l 223 450 l 300 330 m 590 496 l 537 622 l 484 496 l 590 496 m 408 593 q 418 592 411 590 q 434 598 426 594 q 448 606 443 602 q 454 612 454 611 q 422 693 434 651 q 386 768 409 734 q 368 768 381 773 q 339 752 354 762 q 313 733 325 743 q 305 720 302 723 l 408 593 m 766 720 q 759 733 769 723 q 734 752 748 743 q 705 768 719 762 q 687 768 691 773 q 650 693 661 734 q 622 612 638 651 q 625 606 619 611 q 638 598 630 602 q 654 592 645 594 q 666 593 662 590 l 766 720 m 895 70 l 875 70 l 875 85 l 932 85 l 932 70 l 911 70 l 911 17 l 895 17 l 895 70 m 939 84 l 960 84 l 972 31 l 984 84 l 1004 84 l 1004 16 l 991 16 l 991 69 l 978 16 l 966 16 l 952 69 l 952 16 l 939 16 l 939 84 "},"@":{"x_min":176.328125,"x_max":1313.71875,"ha":1183,"o":"m 900 185 q 829 212 851 185 q 815 278 808 238 q 722 198 779 223 q 613 174 665 174 q 500 212 538 174 q 451 308 461 250 q 456 434 441 366 q 502 563 470 502 q 645 728 562 675 q 812 779 729 781 q 872 766 845 779 q 911 727 900 753 l 926 769 l 1083 752 l 926 332 q 922 294 915 305 q 946 287 930 284 q 984 301 962 289 q 1023 330 1005 313 q 1100 419 1068 367 q 1148 529 1132 471 q 1162 643 1163 587 q 1139 748 1161 700 q 1075 830 1118 797 q 968 873 1033 863 q 745 861 852 890 q 554 768 638 833 q 416 607 470 703 q 348 395 361 512 q 361 241 338 302 q 431 139 384 180 q 565 81 483 95 q 735 77 647 67 q 907 119 823 88 q 1045 198 991 150 l 1045 123 q 956 59 1005 87 q 850 14 907 32 q 734 -12 794 -3 q 616 -22 675 -21 q 418 3 504 -24 q 279 89 331 31 q 176 373 173 200 q 234 637 177 516 q 384 846 290 757 q 604 985 479 934 q 870 1038 730 1035 q 1120 995 1016 1041 q 1273 866 1223 949 q 1311 667 1322 783 q 1220 416 1301 552 q 1161 336 1197 377 q 1081 262 1125 295 q 990 207 1037 228 q 900 185 943 185 m 650 502 q 640 473 645 491 q 630 434 634 455 q 623 391 626 413 q 623 352 620 370 q 643 318 626 330 q 680 307 659 307 q 722 315 701 306 q 758 341 744 324 q 777 366 769 352 q 791 400 784 381 l 875 630 q 858 660 872 652 q 825 669 844 669 q 771 654 797 669 q 722 616 745 639 q 681 563 700 593 q 650 502 662 532 "},"ö":{"x_min":46,"x_max":1028,"ha":1074,"o":"m 536 4 q 345 42 434 4 q 189 148 255 81 q 84 304 122 215 q 46 496 46 394 q 84 687 46 597 q 189 843 122 776 q 345 949 255 910 q 536 988 434 988 q 727 949 637 988 q 883 843 816 910 q 989 687 950 776 q 1028 496 1028 597 q 989 304 1028 394 q 883 148 950 215 q 727 42 816 81 q 536 4 637 4 m 536 71 q 702 104 625 71 q 836 196 779 137 q 926 331 893 254 q 960 496 960 408 q 926 660 960 583 q 836 795 893 737 q 702 886 779 853 q 536 920 625 920 q 371 886 448 920 q 236 795 294 853 q 144 660 177 737 q 111 496 111 583 q 144 331 111 408 q 236 196 177 254 q 371 104 294 137 q 536 71 448 71 m 536 100 q 382 131 454 100 q 256 216 311 162 q 171 341 202 269 q 140 496 140 414 q 171 648 140 576 q 256 773 202 719 q 382 857 311 826 q 536 887 454 887 q 688 857 616 887 q 814 773 761 826 q 899 648 868 719 q 930 496 930 576 q 899 341 930 414 q 814 216 868 269 q 688 131 761 162 q 536 100 616 100 m 536 161 q 611 175 576 161 q 673 211 646 190 q 723 259 701 233 q 758 309 744 286 q 537 281 647 280 q 314 309 426 281 q 348 259 327 286 q 398 211 369 233 q 460 175 426 190 q 536 161 494 161 m 300 330 q 773 330 534 276 l 848 450 l 223 450 l 300 330 m 590 496 l 537 622 l 484 496 l 590 496 m 408 593 q 418 592 411 590 q 434 598 426 594 q 448 606 443 602 q 454 612 454 611 q 422 693 434 651 q 386 768 409 734 q 368 768 381 773 q 339 752 354 762 q 313 733 325 743 q 305 720 302 723 l 408 593 m 766 720 q 759 733 769 723 q 734 752 748 743 q 705 768 719 762 q 687 768 691 773 q 650 693 661 734 q 622 612 638 651 q 625 606 619 611 q 638 598 630 602 q 654 592 645 594 q 666 593 662 590 l 766 720 m 895 70 l 875 70 l 875 85 l 932 85 l 932 70 l 911 70 l 911 17 l 895 17 l 895 70 m 939 84 l 960 84 l 972 31 l 984 84 l 1004 84 l 1004 16 l 991 16 l 991 69 l 978 16 l 966 16 l 952 69 l 952 16 l 939 16 l 939 84 "},"i":{"x_min":54.171875,"x_max":627.828125,"ha":392,"o":"m 627 1019 q 545 765 584 890 q 470 517 506 640 q 399 270 434 394 q 326 17 363 146 q 190 23 259 23 q 54 17 120 23 q 111 262 81 142 q 172 505 140 383 q 240 751 204 628 q 319 1005 276 875 q 473 1021 394 1021 q 627 1019 552 1022 "},"Õ":{"x_min":46,"x_max":1028,"ha":1074,"o":"m 536 4 q 345 42 434 4 q 189 148 255 81 q 84 304 122 215 q 46 496 46 394 q 84 687 46 597 q 189 843 122 776 q 345 949 255 910 q 536 988 434 988 q 727 949 637 988 q 883 843 816 910 q 989 687 950 776 q 1028 496 1028 597 q 989 304 1028 394 q 883 148 950 215 q 727 42 816 81 q 536 4 637 4 m 536 71 q 702 104 625 71 q 836 196 779 137 q 926 331 893 254 q 960 496 960 408 q 926 660 960 583 q 836 795 893 737 q 702 886 779 853 q 536 920 625 920 q 371 886 448 920 q 236 795 294 853 q 144 660 177 737 q 111 496 111 583 q 144 331 111 408 q 236 196 177 254 q 371 104 294 137 q 536 71 448 71 m 536 100 q 382 131 454 100 q 256 216 311 162 q 171 341 202 269 q 140 496 140 414 q 171 648 140 576 q 256 773 202 719 q 382 857 311 826 q 536 887 454 887 q 688 857 616 887 q 814 773 761 826 q 899 648 868 719 q 930 496 930 576 q 899 341 930 414 q 814 216 868 269 q 688 131 761 162 q 536 100 616 100 m 536 161 q 611 175 576 161 q 673 211 646 190 q 723 259 701 233 q 758 309 744 286 q 537 281 647 280 q 314 309 426 281 q 348 259 327 286 q 398 211 369 233 q 460 175 426 190 q 536 161 494 161 m 300 330 q 773 330 534 276 l 848 450 l 223 450 l 300 330 m 590 496 l 537 622 l 484 496 l 590 496 m 408 593 q 418 592 411 590 q 434 598 426 594 q 448 606 443 602 q 454 612 454 611 q 422 693 434 651 q 386 768 409 734 q 368 768 381 773 q 339 752 354 762 q 313 733 325 743 q 305 720 302 723 l 408 593 m 766 720 q 759 733 769 723 q 734 752 748 743 q 705 768 719 762 q 687 768 691 773 q 650 693 661 734 q 622 612 638 651 q 625 606 619 611 q 638 598 630 602 q 654 592 645 594 q 666 593 662 590 l 766 720 m 895 70 l 875 70 l 875 85 l 932 85 l 932 70 l 911 70 l 911 17 l 895 17 l 895 70 m 939 84 l 960 84 l 972 31 l 984 84 l 1004 84 l 1004 16 l 991 16 l 991 69 l 978 16 l 966 16 l 952 69 l 952 16 l 939 16 l 939 84 "},"þ":{"x_min":46,"x_max":1028,"ha":1074,"o":"m 536 4 q 345 42 434 4 q 189 148 255 81 q 84 304 122 215 q 46 496 46 394 q 84 687 46 597 q 189 843 122 776 q 345 949 255 910 q 536 988 434 988 q 727 949 637 988 q 883 843 816 910 q 989 687 950 776 q 1028 496 1028 597 q 989 304 1028 394 q 883 148 950 215 q 727 42 816 81 q 536 4 637 4 m 536 71 q 702 104 625 71 q 836 196 779 137 q 926 331 893 254 q 960 496 960 408 q 926 660 960 583 q 836 795 893 737 q 702 886 779 853 q 536 920 625 920 q 371 886 448 920 q 236 795 294 853 q 144 660 177 737 q 111 496 111 583 q 144 331 111 408 q 236 196 177 254 q 371 104 294 137 q 536 71 448 71 m 536 100 q 382 131 454 100 q 256 216 311 162 q 171 341 202 269 q 140 496 140 414 q 171 648 140 576 q 256 773 202 719 q 382 857 311 826 q 536 887 454 887 q 688 857 616 887 q 814 773 761 826 q 899 648 868 719 q 930 496 930 576 q 899 341 930 414 q 814 216 868 269 q 688 131 761 162 q 536 100 616 100 m 536 161 q 611 175 576 161 q 673 211 646 190 q 723 259 701 233 q 758 309 744 286 q 537 281 647 280 q 314 309 426 281 q 348 259 327 286 q 398 211 369 233 q 460 175 426 190 q 536 161 494 161 m 300 330 q 773 330 534 276 l 848 450 l 223 450 l 300 330 m 590 496 l 537 622 l 484 496 l 590 496 m 408 593 q 418 592 411 590 q 434 598 426 594 q 448 606 443 602 q 454 612 454 611 q 422 693 434 651 q 386 768 409 734 q 368 768 381 773 q 339 752 354 762 q 313 733 325 743 q 305 720 302 723 l 408 593 m 766 720 q 759 733 769 723 q 734 752 748 743 q 705 768 719 762 q 687 768 691 773 q 650 693 661 734 q 622 612 638 651 q 625 606 619 611 q 638 598 630 602 q 654 592 645 594 q 666 593 662 590 l 766 720 m 895 70 l 875 70 l 875 85 l 932 85 l 932 70 l 911 70 l 911 17 l 895 17 l 895 70 m 939 84 l 960 84 l 972 31 l 984 84 l 1004 84 l 1004 16 l 991 16 l 991 69 l 978 16 l 966 16 l 952 69 l 952 16 l 939 16 l 939 84 "},"]":{"x_min":46,"x_max":1028,"ha":1074,"o":"m 536 4 q 345 42 434 4 q 189 148 255 81 q 84 304 122 215 q 46 496 46 394 q 84 687 46 597 q 189 843 122 776 q 345 949 255 910 q 536 988 434 988 q 727 949 637 988 q 883 843 816 910 q 989 687 950 776 q 1028 496 1028 597 q 989 304 1028 394 q 883 148 950 215 q 727 42 816 81 q 536 4 637 4 m 536 71 q 702 104 625 71 q 836 196 779 137 q 926 331 893 254 q 960 496 960 408 q 926 660 960 583 q 836 795 893 737 q 702 886 779 853 q 536 920 625 920 q 371 886 448 920 q 236 795 294 853 q 144 660 177 737 q 111 496 111 583 q 144 331 111 408 q 236 196 177 254 q 371 104 294 137 q 536 71 448 71 m 536 100 q 382 131 454 100 q 256 216 311 162 q 171 341 202 269 q 140 496 140 414 q 171 648 140 576 q 256 773 202 719 q 382 857 311 826 q 536 887 454 887 q 688 857 616 887 q 814 773 761 826 q 899 648 868 719 q 930 496 930 576 q 899 341 930 414 q 814 216 868 269 q 688 131 761 162 q 536 100 616 100 m 536 161 q 611 175 576 161 q 673 211 646 190 q 723 259 701 233 q 758 309 744 286 q 537 281 647 280 q 314 309 426 281 q 348 259 327 286 q 398 211 369 233 q 460 175 426 190 q 536 161 494 161 m 300 330 q 773 330 534 276 l 848 450 l 223 450 l 300 330 m 590 496 l 537 622 l 484 496 l 590 496 m 408 593 q 418 592 411 590 q 434 598 426 594 q 448 606 443 602 q 454 612 454 611 q 422 693 434 651 q 386 768 409 734 q 368 768 381 773 q 339 752 354 762 q 313 733 325 743 q 305 720 302 723 l 408 593 m 766 720 q 759 733 769 723 q 734 752 748 743 q 705 768 719 762 q 687 768 691 773 q 650 693 661 734 q 622 612 638 651 q 625 606 619 611 q 638 598 630 602 q 654 592 645 594 q 666 593 662 590 l 766 720 m 895 70 l 875 70 l 875 85 l 932 85 l 932 70 l 911 70 l 911 17 l 895 17 l 895 70 m 939 84 l 960 84 l 972 31 l 984 84 l 1004 84 l 1004 16 l 991 16 l 991 69 l 978 16 l 966 16 l 952 69 l 952 16 l 939 16 l 939 84 "},"m":{"x_min":62.5,"x_max":1294.546875,"ha":1222,"o":"m 62 17 q 154 274 109 149 q 243 522 198 399 q 338 764 288 644 q 444 1008 387 884 q 588 1015 522 1015 q 730 1009 654 1015 q 736 905 733 960 q 744 792 740 849 q 753 679 748 734 q 763 573 758 623 q 887 787 826 673 q 1011 1001 948 901 q 1086 1009 1052 1006 q 1152 1013 1119 1012 q 1218 1012 1184 1013 q 1294 1008 1252 1010 q 1264 763 1279 888 q 1235 510 1250 637 q 1207 259 1220 383 q 1180 22 1193 135 q 1055 22 1113 24 q 930 17 997 19 q 936 134 933 71 q 941 262 938 197 q 947 389 944 326 q 955 505 951 451 q 822 262 888 386 q 686 21 757 137 q 641 23 659 22 q 607 23 623 23 q 575 22 591 23 q 534 19 558 21 q 525 137 529 75 q 517 260 520 198 q 512 384 513 323 q 511 502 511 445 q 404 247 445 367 q 318 15 362 127 q 190 21 251 22 q 62 17 129 21 "},"8":{"x_min":135.4375,"x_max":1037.78125,"ha":935,"o":"m 665 832 q 565 803 609 834 q 509 726 520 772 q 531 644 498 677 q 620 610 563 611 q 672 616 647 608 q 720 638 698 623 q 757 673 741 653 q 777 716 772 693 q 754 795 786 762 q 665 832 722 829 m 538 209 q 592 215 566 207 q 638 237 618 222 q 673 271 659 251 q 691 314 687 290 q 691 357 697 336 q 671 393 686 377 q 634 419 657 409 q 586 429 612 429 q 483 402 527 431 q 427 325 438 372 q 450 244 418 278 q 538 209 483 211 m 1037 777 q 986 624 1034 691 q 851 529 937 557 q 913 472 888 508 q 948 394 937 436 q 957 309 959 352 q 941 227 955 265 q 886 128 922 172 q 802 53 850 83 q 667 2 744 16 q 511 -15 590 -12 q 346 2 422 -17 q 219 66 270 22 q 142 189 158 121 q 147 323 126 257 q 220 446 168 390 q 347 532 272 502 q 293 588 312 554 q 266 659 273 622 q 263 736 259 697 q 281 811 268 776 q 345 918 305 875 q 438 991 386 962 q 555 1034 491 1019 q 691 1053 619 1048 q 802 1043 741 1054 q 916 1002 863 1033 q 1004 916 969 971 q 1037 777 1040 862 "},"R":{"x_min":69.453125,"x_max":1070.96875,"ha":938,"o":"m 69 14 q 207 498 140 253 q 356 993 275 743 q 426 1010 384 1001 q 515 1027 468 1019 q 611 1039 562 1035 q 705 1042 661 1043 q 759 1039 730 1040 q 820 1033 788 1037 q 882 1021 851 1029 q 941 999 913 1012 q 1034 910 997 969 q 1070 754 1072 851 q 1052 635 1070 696 q 997 521 1034 575 q 900 422 959 467 q 761 350 841 378 q 784 286 770 324 q 813 205 797 249 q 847 114 829 161 q 882 24 865 68 q 806 24 841 24 q 736 22 770 24 q 665 19 701 21 q 590 14 629 16 q 560 84 576 47 q 529 161 544 122 q 499 237 513 199 q 473 306 484 274 q 457 307 468 306 q 444 309 447 308 q 409 222 425 261 q 379 149 393 183 q 353 83 366 115 q 326 18 340 52 q 267 19 300 19 q 200 18 234 19 q 132 16 166 18 q 69 14 98 15 m 501 522 q 619 527 563 515 q 708 570 675 538 q 753 632 734 595 q 775 705 772 669 q 763 769 779 741 q 704 802 747 797 q 645 802 679 807 q 577 783 611 798 q 539 652 558 716 q 501 522 520 588 "},"á":{"x_min":46,"x_max":1028,"ha":1074,"o":"m 536 4 q 345 42 434 4 q 189 148 255 81 q 84 304 122 215 q 46 496 46 394 q 84 687 46 597 q 189 843 122 776 q 345 949 255 910 q 536 988 434 988 q 727 949 637 988 q 883 843 816 910 q 989 687 950 776 q 1028 496 1028 597 q 989 304 1028 394 q 883 148 950 215 q 727 42 816 81 q 536 4 637 4 m 536 71 q 702 104 625 71 q 836 196 779 137 q 926 331 893 254 q 960 496 960 408 q 926 660 960 583 q 836 795 893 737 q 702 886 779 853 q 536 920 625 920 q 371 886 448 920 q 236 795 294 853 q 144 660 177 737 q 111 496 111 583 q 144 331 111 408 q 236 196 177 254 q 371 104 294 137 q 536 71 448 71 m 536 100 q 382 131 454 100 q 256 216 311 162 q 171 341 202 269 q 140 496 140 414 q 171 648 140 576 q 256 773 202 719 q 382 857 311 826 q 536 887 454 887 q 688 857 616 887 q 814 773 761 826 q 899 648 868 719 q 930 496 930 576 q 899 341 930 414 q 814 216 868 269 q 688 131 761 162 q 536 100 616 100 m 536 161 q 611 175 576 161 q 673 211 646 190 q 723 259 701 233 q 758 309 744 286 q 537 281 647 280 q 314 309 426 281 q 348 259 327 286 q 398 211 369 233 q 460 175 426 190 q 536 161 494 161 m 300 330 q 773 330 534 276 l 848 450 l 223 450 l 300 330 m 590 496 l 537 622 l 484 496 l 590 496 m 408 593 q 418 592 411 590 q 434 598 426 594 q 448 606 443 602 q 454 612 454 611 q 422 693 434 651 q 386 768 409 734 q 368 768 381 773 q 339 752 354 762 q 313 733 325 743 q 305 720 302 723 l 408 593 m 766 720 q 759 733 769 723 q 734 752 748 743 q 705 768 719 762 q 687 768 691 773 q 650 693 661 734 q 622 612 638 651 q 625 606 619 611 q 638 598 630 602 q 654 592 645 594 q 666 593 662 590 l 766 720 m 895 70 l 875 70 l 875 85 l 932 85 l 932 70 l 911 70 l 911 17 l 895 17 l 895 70 m 939 84 l 960 84 l 972 31 l 984 84 l 1004 84 l 1004 16 l 991 16 l 991 69 l 978 16 l 966 16 l 952 69 l 952 16 l 939 16 l 939 84 "},"×":{"x_min":46,"x_max":1028,"ha":1074,"o":"m 536 4 q 345 42 434 4 q 189 148 255 81 q 84 304 122 215 q 46 496 46 394 q 84 687 46 597 q 189 843 122 776 q 345 949 255 910 q 536 988 434 988 q 727 949 637 988 q 883 843 816 910 q 989 687 950 776 q 1028 496 1028 597 q 989 304 1028 394 q 883 148 950 215 q 727 42 816 81 q 536 4 637 4 m 536 71 q 702 104 625 71 q 836 196 779 137 q 926 331 893 254 q 960 496 960 408 q 926 660 960 583 q 836 795 893 737 q 702 886 779 853 q 536 920 625 920 q 371 886 448 920 q 236 795 294 853 q 144 660 177 737 q 111 496 111 583 q 144 331 111 408 q 236 196 177 254 q 371 104 294 137 q 536 71 448 71 m 536 100 q 382 131 454 100 q 256 216 311 162 q 171 341 202 269 q 140 496 140 414 q 171 648 140 576 q 256 773 202 719 q 382 857 311 826 q 536 887 454 887 q 688 857 616 887 q 814 773 761 826 q 899 648 868 719 q 930 496 930 576 q 899 341 930 414 q 814 216 868 269 q 688 131 761 162 q 536 100 616 100 m 536 161 q 611 175 576 161 q 673 211 646 190 q 723 259 701 233 q 758 309 744 286 q 537 281 647 280 q 314 309 426 281 q 348 259 327 286 q 398 211 369 233 q 460 175 426 190 q 536 161 494 161 m 300 330 q 773 330 534 276 l 848 450 l 223 450 l 300 330 m 590 496 l 537 622 l 484 496 l 590 496 m 408 593 q 418 592 411 590 q 434 598 426 594 q 448 606 443 602 q 454 612 454 611 q 422 693 434 651 q 386 768 409 734 q 368 768 381 773 q 339 752 354 762 q 313 733 325 743 q 305 720 302 723 l 408 593 m 766 720 q 759 733 769 723 q 734 752 748 743 q 705 768 719 762 q 687 768 691 773 q 650 693 661 734 q 622 612 638 651 q 625 606 619 611 q 638 598 630 602 q 654 592 645 594 q 666 593 662 590 l 766 720 m 895 70 l 875 70 l 875 85 l 932 85 l 932 70 l 911 70 l 911 17 l 895 17 l 895 70 m 939 84 l 960 84 l 972 31 l 984 84 l 1004 84 l 1004 16 l 991 16 l 991 69 l 978 16 l 966 16 l 952 69 l 952 16 l 939 16 l 939 84 "},"o":{"x_min":175.828125,"x_max":1165.03125,"ha":1081,"o":"m 697 689 q 612 668 652 687 q 538 618 572 650 q 483 546 505 587 q 452 459 461 505 q 453 372 444 412 q 484 304 462 333 q 541 260 506 276 q 619 247 575 245 q 707 265 663 248 q 784 313 750 283 q 842 384 818 344 q 873 470 866 424 q 872 556 882 516 q 838 627 862 597 q 777 673 813 657 q 697 689 741 690 m 762 1028 q 957 989 875 1026 q 1090 885 1040 951 q 1157 727 1140 819 q 1155 522 1173 634 q 1086 314 1137 409 q 959 148 1034 218 q 786 39 883 79 q 581 -4 690 -1 q 406 26 483 -4 q 276 112 329 57 q 197 246 223 168 q 176 416 172 323 q 236 677 183 565 q 372 866 290 790 q 556 983 454 943 q 762 1028 658 1023 "},"5":{"x_min":50,"x_max":937.578125,"ha":763,"o":"m 50 33 q 72 99 62 72 q 93 151 83 126 q 117 204 104 176 q 148 269 130 232 q 285 235 215 240 q 411 245 355 230 q 502 293 468 259 q 530 375 536 326 q 502 432 526 409 q 443 462 477 454 q 368 466 408 471 q 293 443 327 461 q 234 448 265 444 q 177 458 204 451 q 212 584 193 516 q 254 721 231 651 q 304 862 277 791 q 361 997 330 932 q 499 1011 422 1006 q 655 1019 576 1017 q 809 1022 734 1022 q 937 1020 883 1022 q 906 940 918 971 q 885 883 894 908 q 867 830 876 857 q 845 767 858 804 q 675 769 763 771 q 501 760 587 767 q 475 686 486 723 q 456 615 463 648 q 500 619 481 618 q 534 621 519 621 q 565 621 550 622 q 600 618 580 621 q 714 579 669 609 q 783 503 759 548 q 811 405 807 458 q 802 297 815 351 q 759 192 788 243 q 688 105 730 141 q 550 30 630 57 q 383 -2 470 4 q 209 0 295 -9 q 50 33 122 9 "},"õ":{"x_min":46,"x_max":1028,"ha":1074,"o":"m 536 4 q 345 42 434 4 q 189 148 255 81 q 84 304 122 215 q 46 496 46 394 q 84 687 46 597 q 189 843 122 776 q 345 949 255 910 q 536 988 434 988 q 727 949 637 988 q 883 843 816 910 q 989 687 950 776 q 1028 496 1028 597 q 989 304 1028 394 q 883 148 950 215 q 727 42 816 81 q 536 4 637 4 m 536 71 q 702 104 625 71 q 836 196 779 137 q 926 331 893 254 q 960 496 960 408 q 926 660 960 583 q 836 795 893 737 q 702 886 779 853 q 536 920 625 920 q 371 886 448 920 q 236 795 294 853 q 144 660 177 737 q 111 496 111 583 q 144 331 111 408 q 236 196 177 254 q 371 104 294 137 q 536 71 448 71 m 536 100 q 382 131 454 100 q 256 216 311 162 q 171 341 202 269 q 140 496 140 414 q 171 648 140 576 q 256 773 202 719 q 382 857 311 826 q 536 887 454 887 q 688 857 616 887 q 814 773 761 826 q 899 648 868 719 q 930 496 930 576 q 899 341 930 414 q 814 216 868 269 q 688 131 761 162 q 536 100 616 100 m 536 161 q 611 175 576 161 q 673 211 646 190 q 723 259 701 233 q 758 309 744 286 q 537 281 647 280 q 314 309 426 281 q 348 259 327 286 q 398 211 369 233 q 460 175 426 190 q 536 161 494 161 m 300 330 q 773 330 534 276 l 848 450 l 223 450 l 300 330 m 590 496 l 537 622 l 484 496 l 590 496 m 408 593 q 418 592 411 590 q 434 598 426 594 q 448 606 443 602 q 454 612 454 611 q 422 693 434 651 q 386 768 409 734 q 368 768 381 773 q 339 752 354 762 q 313 733 325 743 q 305 720 302 723 l 408 593 m 766 720 q 759 733 769 723 q 734 752 748 743 q 705 768 719 762 q 687 768 691 773 q 650 693 661 734 q 622 612 638 651 q 625 606 619 611 q 638 598 630 602 q 654 592 645 594 q 666 593 662 590 l 766 720 m 895 70 l 875 70 l 875 85 l 932 85 l 932 70 l 911 70 l 911 17 l 895 17 l 895 70 m 939 84 l 960 84 l 972 31 l 984 84 l 1004 84 l 1004 16 l 991 16 l 991 69 l 978 16 l 966 16 l 952 69 l 952 16 l 939 16 l 939 84 "},"7":{"x_min":191.6875,"x_max":1065.359375,"ha":806,"o":"m 230 660 q 254 757 244 715 q 277 838 265 799 q 306 917 290 877 q 347 1003 322 956 q 711 1026 534 1027 q 1065 1015 887 1024 q 768 517 897 773 q 527 8 640 262 q 447 10 491 10 q 359 10 404 10 q 271 8 315 9 q 191 6 227 7 q 297 192 238 91 q 422 397 356 294 q 555 602 487 501 q 690 790 623 703 q 577 790 634 792 q 468 778 520 788 q 418 719 440 751 q 381 660 397 688 q 230 660 302 655 "},"K":{"x_min":66.671875,"x_max":1134.8125,"ha":933,"o":"m 520 648 q 717 861 619 764 q 922 1046 815 958 q 1041 977 987 1021 q 1134 887 1094 933 q 907 708 1012 801 q 705 525 801 615 q 810 303 754 419 q 943 50 866 187 q 800 21 876 39 q 658 -15 725 4 q 555 193 605 82 q 458 416 505 304 q 420 316 438 371 q 386 208 402 262 q 354 103 369 154 q 326 14 338 53 q 200 19 269 19 q 66 16 130 19 q 195 512 130 269 q 336 1007 261 755 q 419 1011 380 1009 q 495 1014 458 1014 q 571 1014 533 1014 q 651 1012 609 1014 q 581 818 615 907 q 520 648 548 730 "},",":{"x_min":73.171875,"x_max":393.828125,"ha":399,"o":"m 284 271 q 379 223 351 264 q 381 102 406 182 q 338 23 369 62 q 266 -49 308 -15 q 177 -111 225 -84 q 87 -154 130 -138 q 128 -111 105 -138 q 168 -58 151 -84 q 187 -13 184 -33 q 168 7 190 7 q 86 50 109 8 q 81 151 62 93 q 159 248 105 219 q 284 271 213 277 "},"d":{"x_min":69.453125,"x_max":1038.9375,"ha":907,"o":"m 69 44 q 134 285 102 169 q 197 515 165 401 q 265 747 230 630 q 344 994 301 865 q 466 1028 395 1013 q 597 1044 536 1042 q 747 1035 673 1045 q 879 992 820 1024 q 980 899 938 959 q 1034 741 1022 838 q 1031 579 1044 662 q 985 419 1018 496 q 902 272 952 341 q 790 153 852 203 q 571 42 694 77 q 315 8 448 8 q 181 18 244 8 q 69 44 119 28 m 397 257 q 531 288 469 255 q 640 377 594 322 q 712 504 686 433 q 738 651 738 576 q 729 713 738 688 q 704 754 719 738 q 669 776 688 769 q 630 784 650 783 q 591 782 612 786 q 554 773 569 779 q 475 516 512 648 q 397 257 437 383 "},"¨":{"x_min":46,"x_max":1028,"ha":1074,"o":"m 536 4 q 345 42 434 4 q 189 148 255 81 q 84 304 122 215 q 46 496 46 394 q 84 687 46 597 q 189 843 122 776 q 345 949 255 910 q 536 988 434 988 q 727 949 637 988 q 883 843 816 910 q 989 687 950 776 q 1028 496 1028 597 q 989 304 1028 394 q 883 148 950 215 q 727 42 816 81 q 536 4 637 4 m 536 71 q 702 104 625 71 q 836 196 779 137 q 926 331 893 254 q 960 496 960 408 q 926 660 960 583 q 836 795 893 737 q 702 886 779 853 q 536 920 625 920 q 371 886 448 920 q 236 795 294 853 q 144 660 177 737 q 111 496 111 583 q 144 331 111 408 q 236 196 177 254 q 371 104 294 137 q 536 71 448 71 m 536 100 q 382 131 454 100 q 256 216 311 162 q 171 341 202 269 q 140 496 140 414 q 171 648 140 576 q 256 773 202 719 q 382 857 311 826 q 536 887 454 887 q 688 857 616 887 q 814 773 761 826 q 899 648 868 719 q 930 496 930 576 q 899 341 930 414 q 814 216 868 269 q 688 131 761 162 q 536 100 616 100 m 536 161 q 611 175 576 161 q 673 211 646 190 q 723 259 701 233 q 758 309 744 286 q 537 281 647 280 q 314 309 426 281 q 348 259 327 286 q 398 211 369 233 q 460 175 426 190 q 536 161 494 161 m 300 330 q 773 330 534 276 l 848 450 l 223 450 l 300 330 m 590 496 l 537 622 l 484 496 l 590 496 m 408 593 q 418 592 411 590 q 434 598 426 594 q 448 606 443 602 q 454 612 454 611 q 422 693 434 651 q 386 768 409 734 q 368 768 381 773 q 339 752 354 762 q 313 733 325 743 q 305 720 302 723 l 408 593 m 766 720 q 759 733 769 723 q 734 752 748 743 q 705 768 719 762 q 687 768 691 773 q 650 693 661 734 q 622 612 638 651 q 625 606 619 611 q 638 598 630 602 q 654 592 645 594 q 666 593 662 590 l 766 720 m 895 70 l 875 70 l 875 85 l 932 85 l 932 70 l 911 70 l 911 17 l 895 17 l 895 70 m 939 84 l 960 84 l 972 31 l 984 84 l 1004 84 l 1004 16 l 991 16 l 991 69 l 978 16 l 966 16 l 952 69 l 952 16 l 939 16 l 939 84 "},"Ô":{"x_min":46,"x_max":1028,"ha":1074,"o":"m 536 4 q 345 42 434 4 q 189 148 255 81 q 84 304 122 215 q 46 496 46 394 q 84 687 46 597 q 189 843 122 776 q 345 949 255 910 q 536 988 434 988 q 727 949 637 988 q 883 843 816 910 q 989 687 950 776 q 1028 496 1028 597 q 989 304 1028 394 q 883 148 950 215 q 727 42 816 81 q 536 4 637 4 m 536 71 q 702 104 625 71 q 836 196 779 137 q 926 331 893 254 q 960 496 960 408 q 926 660 960 583 q 836 795 893 737 q 702 886 779 853 q 536 920 625 920 q 371 886 448 920 q 236 795 294 853 q 144 660 177 737 q 111 496 111 583 q 144 331 111 408 q 236 196 177 254 q 371 104 294 137 q 536 71 448 71 m 536 100 q 382 131 454 100 q 256 216 311 162 q 171 341 202 269 q 140 496 140 414 q 171 648 140 576 q 256 773 202 719 q 382 857 311 826 q 536 887 454 887 q 688 857 616 887 q 814 773 761 826 q 899 648 868 719 q 930 496 930 576 q 899 341 930 414 q 814 216 868 269 q 688 131 761 162 q 536 100 616 100 m 536 161 q 611 175 576 161 q 673 211 646 190 q 723 259 701 233 q 758 309 744 286 q 537 281 647 280 q 314 309 426 281 q 348 259 327 286 q 398 211 369 233 q 460 175 426 190 q 536 161 494 161 m 300 330 q 773 330 534 276 l 848 450 l 223 450 l 300 330 m 590 496 l 537 622 l 484 496 l 590 496 m 408 593 q 418 592 411 590 q 434 598 426 594 q 448 606 443 602 q 454 612 454 611 q 422 693 434 651 q 386 768 409 734 q 368 768 381 773 q 339 752 354 762 q 313 733 325 743 q 305 720 302 723 l 408 593 m 766 720 q 759 733 769 723 q 734 752 748 743 q 705 768 719 762 q 687 768 691 773 q 650 693 661 734 q 622 612 638 651 q 625 606 619 611 q 638 598 630 602 q 654 592 645 594 q 666 593 662 590 l 766 720 m 895 70 l 875 70 l 875 85 l 932 85 l 932 70 l 911 70 l 911 17 l 895 17 l 895 70 m 939 84 l 960 84 l 972 31 l 984 84 l 1004 84 l 1004 16 l 991 16 l 991 69 l 978 16 l 966 16 l 952 69 l 952 16 l 939 16 l 939 84 "},"E":{"x_min":69.453125,"x_max":993.140625,"ha":770,"o":"m 483 580 q 561 587 518 585 q 650 591 605 590 q 736 592 694 592 q 809 590 777 591 q 781 493 794 537 q 748 396 768 448 q 675 398 718 397 q 586 399 632 400 q 499 397 541 398 q 426 395 456 396 q 404 324 415 358 q 381 253 393 289 q 461 254 415 253 q 555 257 506 255 q 652 263 604 259 q 738 271 700 266 q 686 145 713 205 q 626 21 659 84 q 479 15 556 16 q 327 13 402 14 q 185 13 252 12 q 69 14 118 14 q 129 257 100 136 q 189 500 158 377 q 256 745 220 622 q 333 998 291 869 q 491 1015 405 1009 q 663 1025 576 1022 q 836 1027 751 1027 q 993 1025 922 1026 q 938 886 965 956 q 884 746 911 815 q 804 747 850 747 q 711 745 759 747 q 616 742 662 744 q 531 736 569 740 q 506 658 519 698 q 483 580 494 619 "},"Y":{"x_min":291.6875,"x_max":1125.09375,"ha":885,"o":"m 1125 1014 q 989 769 1055 888 q 857 530 923 650 q 722 283 791 410 q 577 13 654 156 q 437 16 502 17 q 308 10 372 15 q 366 131 334 64 q 433 271 397 197 q 396 269 419 268 q 361 268 373 271 q 343 390 354 310 q 323 573 333 471 q 304 790 313 675 q 291 1014 295 906 q 366 1020 326 1018 q 445 1022 405 1022 q 525 1020 486 1022 q 597 1014 563 1018 q 589 904 591 961 q 587 788 587 846 q 589 672 587 729 q 595 564 591 615 q 652 679 622 620 q 710 796 682 738 q 766 908 738 854 q 816 1006 793 961 q 973 1017 898 1017 q 1125 1014 1047 1018 "},"\"":{"x_min":241.6875,"x_max":918.125,"ha":710,"o":"m 547 623 q 618 864 583 737 q 686 1104 654 991 q 811 1088 752 1098 q 918 1058 869 1077 q 808 818 866 942 q 687 582 750 693 q 612 596 644 587 q 547 623 580 605 m 241 623 q 277 741 259 680 q 312 865 294 802 q 347 988 330 927 q 380 1104 363 1048 q 500 1085 447 1098 q 612 1058 554 1073 q 498 815 555 940 q 381 582 441 691 q 343 588 361 584 q 310 597 326 591 q 277 609 294 602 q 241 623 261 615 "},"ê":{"x_min":46,"x_max":1028,"ha":1074,"o":"m 536 4 q 345 42 434 4 q 189 148 255 81 q 84 304 122 215 q 46 496 46 394 q 84 687 46 597 q 189 843 122 776 q 345 949 255 910 q 536 988 434 988 q 727 949 637 988 q 883 843 816 910 q 989 687 950 776 q 1028 496 1028 597 q 989 304 1028 394 q 883 148 950 215 q 727 42 816 81 q 536 4 637 4 m 536 71 q 702 104 625 71 q 836 196 779 137 q 926 331 893 254 q 960 496 960 408 q 926 660 960 583 q 836 795 893 737 q 702 886 779 853 q 536 920 625 920 q 371 886 448 920 q 236 795 294 853 q 144 660 177 737 q 111 496 111 583 q 144 331 111 408 q 236 196 177 254 q 371 104 294 137 q 536 71 448 71 m 536 100 q 382 131 454 100 q 256 216 311 162 q 171 341 202 269 q 140 496 140 414 q 171 648 140 576 q 256 773 202 719 q 382 857 311 826 q 536 887 454 887 q 688 857 616 887 q 814 773 761 826 q 899 648 868 719 q 930 496 930 576 q 899 341 930 414 q 814 216 868 269 q 688 131 761 162 q 536 100 616 100 m 536 161 q 611 175 576 161 q 673 211 646 190 q 723 259 701 233 q 758 309 744 286 q 537 281 647 280 q 314 309 426 281 q 348 259 327 286 q 398 211 369 233 q 460 175 426 190 q 536 161 494 161 m 300 330 q 773 330 534 276 l 848 450 l 223 450 l 300 330 m 590 496 l 537 622 l 484 496 l 590 496 m 408 593 q 418 592 411 590 q 434 598 426 594 q 448 606 443 602 q 454 612 454 611 q 422 693 434 651 q 386 768 409 734 q 368 768 381 773 q 339 752 354 762 q 313 733 325 743 q 305 720 302 723 l 408 593 m 766 720 q 759 733 769 723 q 734 752 748 743 q 705 768 719 762 q 687 768 691 773 q 650 693 661 734 q 622 612 638 651 q 625 606 619 611 q 638 598 630 602 q 654 592 645 594 q 666 593 662 590 l 766 720 m 895 70 l 875 70 l 875 85 l 932 85 l 932 70 l 911 70 l 911 17 l 895 17 l 895 70 m 939 84 l 960 84 l 972 31 l 984 84 l 1004 84 l 1004 16 l 991 16 l 991 69 l 978 16 l 966 16 l 952 69 l 952 16 l 939 16 l 939 84 "},"Ï":{"x_min":46,"x_max":1028,"ha":1074,"o":"m 536 4 q 345 42 434 4 q 189 148 255 81 q 84 304 122 215 q 46 496 46 394 q 84 687 46 597 q 189 843 122 776 q 345 949 255 910 q 536 988 434 988 q 727 949 637 988 q 883 843 816 910 q 989 687 950 776 q 1028 496 1028 597 q 989 304 1028 394 q 883 148 950 215 q 727 42 816 81 q 536 4 637 4 m 536 71 q 702 104 625 71 q 836 196 779 137 q 926 331 893 254 q 960 496 960 408 q 926 660 960 583 q 836 795 893 737 q 702 886 779 853 q 536 920 625 920 q 371 886 448 920 q 236 795 294 853 q 144 660 177 737 q 111 496 111 583 q 144 331 111 408 q 236 196 177 254 q 371 104 294 137 q 536 71 448 71 m 536 100 q 382 131 454 100 q 256 216 311 162 q 171 341 202 269 q 140 496 140 414 q 171 648 140 576 q 256 773 202 719 q 382 857 311 826 q 536 887 454 887 q 688 857 616 887 q 814 773 761 826 q 899 648 868 719 q 930 496 930 576 q 899 341 930 414 q 814 216 868 269 q 688 131 761 162 q 536 100 616 100 m 536 161 q 611 175 576 161 q 673 211 646 190 q 723 259 701 233 q 758 309 744 286 q 537 281 647 280 q 314 309 426 281 q 348 259 327 286 q 398 211 369 233 q 460 175 426 190 q 536 161 494 161 m 300 330 q 773 330 534 276 l 848 450 l 223 450 l 300 330 m 590 496 l 537 622 l 484 496 l 590 496 m 408 593 q 418 592 411 590 q 434 598 426 594 q 448 606 443 602 q 454 612 454 611 q 422 693 434 651 q 386 768 409 734 q 368 768 381 773 q 339 752 354 762 q 313 733 325 743 q 305 720 302 723 l 408 593 m 766 720 q 759 733 769 723 q 734 752 748 743 q 705 768 719 762 q 687 768 691 773 q 650 693 661 734 q 622 612 638 651 q 625 606 619 611 q 638 598 630 602 q 654 592 645 594 q 666 593 662 590 l 766 720 m 895 70 l 875 70 l 875 85 l 932 85 l 932 70 l 911 70 l 911 17 l 895 17 l 895 70 m 939 84 l 960 84 l 972 31 l 984 84 l 1004 84 l 1004 16 l 991 16 l 991 69 l 978 16 l 966 16 l 952 69 l 952 16 l 939 16 l 939 84 "},"Â":{"x_min":46,"x_max":1028,"ha":1074,"o":"m 536 4 q 345 42 434 4 q 189 148 255 81 q 84 304 122 215 q 46 496 46 394 q 84 687 46 597 q 189 843 122 776 q 345 949 255 910 q 536 988 434 988 q 727 949 637 988 q 883 843 816 910 q 989 687 950 776 q 1028 496 1028 597 q 989 304 1028 394 q 883 148 950 215 q 727 42 816 81 q 536 4 637 4 m 536 71 q 702 104 625 71 q 836 196 779 137 q 926 331 893 254 q 960 496 960 408 q 926 660 960 583 q 836 795 893 737 q 702 886 779 853 q 536 920 625 920 q 371 886 448 920 q 236 795 294 853 q 144 660 177 737 q 111 496 111 583 q 144 331 111 408 q 236 196 177 254 q 371 104 294 137 q 536 71 448 71 m 536 100 q 382 131 454 100 q 256 216 311 162 q 171 341 202 269 q 140 496 140 414 q 171 648 140 576 q 256 773 202 719 q 382 857 311 826 q 536 887 454 887 q 688 857 616 887 q 814 773 761 826 q 899 648 868 719 q 930 496 930 576 q 899 341 930 414 q 814 216 868 269 q 688 131 761 162 q 536 100 616 100 m 536 161 q 611 175 576 161 q 673 211 646 190 q 723 259 701 233 q 758 309 744 286 q 537 281 647 280 q 314 309 426 281 q 348 259 327 286 q 398 211 369 233 q 460 175 426 190 q 536 161 494 161 m 300 330 q 773 330 534 276 l 848 450 l 223 450 l 300 330 m 590 496 l 537 622 l 484 496 l 590 496 m 408 593 q 418 592 411 590 q 434 598 426 594 q 448 606 443 602 q 454 612 454 611 q 422 693 434 651 q 386 768 409 734 q 368 768 381 773 q 339 752 354 762 q 313 733 325 743 q 305 720 302 723 l 408 593 m 766 720 q 759 733 769 723 q 734 752 748 743 q 705 768 719 762 q 687 768 691 773 q 650 693 661 734 q 622 612 638 651 q 625 606 619 611 q 638 598 630 602 q 654 592 645 594 q 666 593 662 590 l 766 720 m 895 70 l 875 70 l 875 85 l 932 85 l 932 70 l 911 70 l 911 17 l 895 17 l 895 70 m 939 84 l 960 84 l 972 31 l 984 84 l 1004 84 l 1004 16 l 991 16 l 991 69 l 978 16 l 966 16 l 952 69 l 952 16 l 939 16 l 939 84 "},"Í":{"x_min":46,"x_max":1028,"ha":1074,"o":"m 536 4 q 345 42 434 4 q 189 148 255 81 q 84 304 122 215 q 46 496 46 394 q 84 687 46 597 q 189 843 122 776 q 345 949 255 910 q 536 988 434 988 q 727 949 637 988 q 883 843 816 910 q 989 687 950 776 q 1028 496 1028 597 q 989 304 1028 394 q 883 148 950 215 q 727 42 816 81 q 536 4 637 4 m 536 71 q 702 104 625 71 q 836 196 779 137 q 926 331 893 254 q 960 496 960 408 q 926 660 960 583 q 836 795 893 737 q 702 886 779 853 q 536 920 625 920 q 371 886 448 920 q 236 795 294 853 q 144 660 177 737 q 111 496 111 583 q 144 331 111 408 q 236 196 177 254 q 371 104 294 137 q 536 71 448 71 m 536 100 q 382 131 454 100 q 256 216 311 162 q 171 341 202 269 q 140 496 140 414 q 171 648 140 576 q 256 773 202 719 q 382 857 311 826 q 536 887 454 887 q 688 857 616 887 q 814 773 761 826 q 899 648 868 719 q 930 496 930 576 q 899 341 930 414 q 814 216 868 269 q 688 131 761 162 q 536 100 616 100 m 536 161 q 611 175 576 161 q 673 211 646 190 q 723 259 701 233 q 758 309 744 286 q 537 281 647 280 q 314 309 426 281 q 348 259 327 286 q 398 211 369 233 q 460 175 426 190 q 536 161 494 161 m 300 330 q 773 330 534 276 l 848 450 l 223 450 l 300 330 m 590 496 l 537 622 l 484 496 l 590 496 m 408 593 q 418 592 411 590 q 434 598 426 594 q 448 606 443 602 q 454 612 454 611 q 422 693 434 651 q 386 768 409 734 q 368 768 381 773 q 339 752 354 762 q 313 733 325 743 q 305 720 302 723 l 408 593 m 766 720 q 759 733 769 723 q 734 752 748 743 q 705 768 719 762 q 687 768 691 773 q 650 693 661 734 q 622 612 638 651 q 625 606 619 611 q 638 598 630 602 q 654 592 645 594 q 666 593 662 590 l 766 720 m 895 70 l 875 70 l 875 85 l 932 85 l 932 70 l 911 70 l 911 17 l 895 17 l 895 70 m 939 84 l 960 84 l 972 31 l 984 84 l 1004 84 l 1004 16 l 991 16 l 991 69 l 978 16 l 966 16 l 952 69 l 952 16 l 939 16 l 939 84 "},"´":{"x_min":46,"x_max":1028,"ha":1074,"o":"m 536 4 q 345 42 434 4 q 189 148 255 81 q 84 304 122 215 q 46 496 46 394 q 84 687 46 597 q 189 843 122 776 q 345 949 255 910 q 536 988 434 988 q 727 949 637 988 q 883 843 816 910 q 989 687 950 776 q 1028 496 1028 597 q 989 304 1028 394 q 883 148 950 215 q 727 42 816 81 q 536 4 637 4 m 536 71 q 702 104 625 71 q 836 196 779 137 q 926 331 893 254 q 960 496 960 408 q 926 660 960 583 q 836 795 893 737 q 702 886 779 853 q 536 920 625 920 q 371 886 448 920 q 236 795 294 853 q 144 660 177 737 q 111 496 111 583 q 144 331 111 408 q 236 196 177 254 q 371 104 294 137 q 536 71 448 71 m 536 100 q 382 131 454 100 q 256 216 311 162 q 171 341 202 269 q 140 496 140 414 q 171 648 140 576 q 256 773 202 719 q 382 857 311 826 q 536 887 454 887 q 688 857 616 887 q 814 773 761 826 q 899 648 868 719 q 930 496 930 576 q 899 341 930 414 q 814 216 868 269 q 688 131 761 162 q 536 100 616 100 m 536 161 q 611 175 576 161 q 673 211 646 190 q 723 259 701 233 q 758 309 744 286 q 537 281 647 280 q 314 309 426 281 q 348 259 327 286 q 398 211 369 233 q 460 175 426 190 q 536 161 494 161 m 300 330 q 773 330 534 276 l 848 450 l 223 450 l 300 330 m 590 496 l 537 622 l 484 496 l 590 496 m 408 593 q 418 592 411 590 q 434 598 426 594 q 448 606 443 602 q 454 612 454 611 q 422 693 434 651 q 386 768 409 734 q 368 768 381 773 q 339 752 354 762 q 313 733 325 743 q 305 720 302 723 l 408 593 m 766 720 q 759 733 769 723 q 734 752 748 743 q 705 768 719 762 q 687 768 691 773 q 650 693 661 734 q 622 612 638 651 q 625 606 619 611 q 638 598 630 602 q 654 592 645 594 q 666 593 662 590 l 766 720 m 895 70 l 875 70 l 875 85 l 932 85 l 932 70 l 911 70 l 911 17 l 895 17 l 895 70 m 939 84 l 960 84 l 972 31 l 984 84 l 1004 84 l 1004 16 l 991 16 l 991 69 l 978 16 l 966 16 l 952 69 l 952 16 l 939 16 l 939 84 "},"ì":{"x_min":46,"x_max":1028,"ha":1074,"o":"m 536 4 q 345 42 434 4 q 189 148 255 81 q 84 304 122 215 q 46 496 46 394 q 84 687 46 597 q 189 843 122 776 q 345 949 255 910 q 536 988 434 988 q 727 949 637 988 q 883 843 816 910 q 989 687 950 776 q 1028 496 1028 597 q 989 304 1028 394 q 883 148 950 215 q 727 42 816 81 q 536 4 637 4 m 536 71 q 702 104 625 71 q 836 196 779 137 q 926 331 893 254 q 960 496 960 408 q 926 660 960 583 q 836 795 893 737 q 702 886 779 853 q 536 920 625 920 q 371 886 448 920 q 236 795 294 853 q 144 660 177 737 q 111 496 111 583 q 144 331 111 408 q 236 196 177 254 q 371 104 294 137 q 536 71 448 71 m 536 100 q 382 131 454 100 q 256 216 311 162 q 171 341 202 269 q 140 496 140 414 q 171 648 140 576 q 256 773 202 719 q 382 857 311 826 q 536 887 454 887 q 688 857 616 887 q 814 773 761 826 q 899 648 868 719 q 930 496 930 576 q 899 341 930 414 q 814 216 868 269 q 688 131 761 162 q 536 100 616 100 m 536 161 q 611 175 576 161 q 673 211 646 190 q 723 259 701 233 q 758 309 744 286 q 537 281 647 280 q 314 309 426 281 q 348 259 327 286 q 398 211 369 233 q 460 175 426 190 q 536 161 494 161 m 300 330 q 773 330 534 276 l 848 450 l 223 450 l 300 330 m 590 496 l 537 622 l 484 496 l 590 496 m 408 593 q 418 592 411 590 q 434 598 426 594 q 448 606 443 602 q 454 612 454 611 q 422 693 434 651 q 386 768 409 734 q 368 768 381 773 q 339 752 354 762 q 313 733 325 743 q 305 720 302 723 l 408 593 m 766 720 q 759 733 769 723 q 734 752 748 743 q 705 768 719 762 q 687 768 691 773 q 650 693 661 734 q 622 612 638 651 q 625 606 619 611 q 638 598 630 602 q 654 592 645 594 q 666 593 662 590 l 766 720 m 895 70 l 875 70 l 875 85 l 932 85 l 932 70 l 911 70 l 911 17 l 895 17 l 895 70 m 939 84 l 960 84 l 972 31 l 984 84 l 1004 84 l 1004 16 l 991 16 l 991 69 l 978 16 l 966 16 l 952 69 l 952 16 l 939 16 l 939 84 "},"±":{"x_min":46,"x_max":1028,"ha":1074,"o":"m 536 4 q 345 42 434 4 q 189 148 255 81 q 84 304 122 215 q 46 496 46 394 q 84 687 46 597 q 189 843 122 776 q 345 949 255 910 q 536 988 434 988 q 727 949 637 988 q 883 843 816 910 q 989 687 950 776 q 1028 496 1028 597 q 989 304 1028 394 q 883 148 950 215 q 727 42 816 81 q 536 4 637 4 m 536 71 q 702 104 625 71 q 836 196 779 137 q 926 331 893 254 q 960 496 960 408 q 926 660 960 583 q 836 795 893 737 q 702 886 779 853 q 536 920 625 920 q 371 886 448 920 q 236 795 294 853 q 144 660 177 737 q 111 496 111 583 q 144 331 111 408 q 236 196 177 254 q 371 104 294 137 q 536 71 448 71 m 536 100 q 382 131 454 100 q 256 216 311 162 q 171 341 202 269 q 140 496 140 414 q 171 648 140 576 q 256 773 202 719 q 382 857 311 826 q 536 887 454 887 q 688 857 616 887 q 814 773 761 826 q 899 648 868 719 q 930 496 930 576 q 899 341 930 414 q 814 216 868 269 q 688 131 761 162 q 536 100 616 100 m 536 161 q 611 175 576 161 q 673 211 646 190 q 723 259 701 233 q 758 309 744 286 q 537 281 647 280 q 314 309 426 281 q 348 259 327 286 q 398 211 369 233 q 460 175 426 190 q 536 161 494 161 m 300 330 q 773 330 534 276 l 848 450 l 223 450 l 300 330 m 590 496 l 537 622 l 484 496 l 590 496 m 408 593 q 418 592 411 590 q 434 598 426 594 q 448 606 443 602 q 454 612 454 611 q 422 693 434 651 q 386 768 409 734 q 368 768 381 773 q 339 752 354 762 q 313 733 325 743 q 305 720 302 723 l 408 593 m 766 720 q 759 733 769 723 q 734 752 748 743 q 705 768 719 762 q 687 768 691 773 q 650 693 661 734 q 622 612 638 651 q 625 606 619 611 q 638 598 630 602 q 654 592 645 594 q 666 593 662 590 l 766 720 m 895 70 l 875 70 l 875 85 l 932 85 l 932 70 l 911 70 l 911 17 l 895 17 l 895 70 m 939 84 l 960 84 l 972 31 l 984 84 l 1004 84 l 1004 16 l 991 16 l 991 69 l 978 16 l 966 16 l 952 69 l 952 16 l 939 16 l 939 84 "},"Ú":{"x_min":46,"x_max":1028,"ha":1074,"o":"m 536 4 q 345 42 434 4 q 189 148 255 81 q 84 304 122 215 q 46 496 46 394 q 84 687 46 597 q 189 843 122 776 q 345 949 255 910 q 536 988 434 988 q 727 949 637 988 q 883 843 816 910 q 989 687 950 776 q 1028 496 1028 597 q 989 304 1028 394 q 883 148 950 215 q 727 42 816 81 q 536 4 637 4 m 536 71 q 702 104 625 71 q 836 196 779 137 q 926 331 893 254 q 960 496 960 408 q 926 660 960 583 q 836 795 893 737 q 702 886 779 853 q 536 920 625 920 q 371 886 448 920 q 236 795 294 853 q 144 660 177 737 q 111 496 111 583 q 144 331 111 408 q 236 196 177 254 q 371 104 294 137 q 536 71 448 71 m 536 100 q 382 131 454 100 q 256 216 311 162 q 171 341 202 269 q 140 496 140 414 q 171 648 140 576 q 256 773 202 719 q 382 857 311 826 q 536 887 454 887 q 688 857 616 887 q 814 773 761 826 q 899 648 868 719 q 930 496 930 576 q 899 341 930 414 q 814 216 868 269 q 688 131 761 162 q 536 100 616 100 m 536 161 q 611 175 576 161 q 673 211 646 190 q 723 259 701 233 q 758 309 744 286 q 537 281 647 280 q 314 309 426 281 q 348 259 327 286 q 398 211 369 233 q 460 175 426 190 q 536 161 494 161 m 300 330 q 773 330 534 276 l 848 450 l 223 450 l 300 330 m 590 496 l 537 622 l 484 496 l 590 496 m 408 593 q 418 592 411 590 q 434 598 426 594 q 448 606 443 602 q 454 612 454 611 q 422 693 434 651 q 386 768 409 734 q 368 768 381 773 q 339 752 354 762 q 313 733 325 743 q 305 720 302 723 l 408 593 m 766 720 q 759 733 769 723 q 734 752 748 743 q 705 768 719 762 q 687 768 691 773 q 650 693 661 734 q 622 612 638 651 q 625 606 619 611 q 638 598 630 602 q 654 592 645 594 q 666 593 662 590 l 766 720 m 895 70 l 875 70 l 875 85 l 932 85 l 932 70 l 911 70 l 911 17 l 895 17 l 895 70 m 939 84 l 960 84 l 972 31 l 984 84 l 1004 84 l 1004 16 l 991 16 l 991 69 l 978 16 l 966 16 l 952 69 l 952 16 l 939 16 l 939 84 "},"|":{"x_min":46,"x_max":1028,"ha":1074,"o":"m 536 4 q 345 42 434 4 q 189 148 255 81 q 84 304 122 215 q 46 496 46 394 q 84 687 46 597 q 189 843 122 776 q 345 949 255 910 q 536 988 434 988 q 727 949 637 988 q 883 843 816 910 q 989 687 950 776 q 1028 496 1028 597 q 989 304 1028 394 q 883 148 950 215 q 727 42 816 81 q 536 4 637 4 m 536 71 q 702 104 625 71 q 836 196 779 137 q 926 331 893 254 q 960 496 960 408 q 926 660 960 583 q 836 795 893 737 q 702 886 779 853 q 536 920 625 920 q 371 886 448 920 q 236 795 294 853 q 144 660 177 737 q 111 496 111 583 q 144 331 111 408 q 236 196 177 254 q 371 104 294 137 q 536 71 448 71 m 536 100 q 382 131 454 100 q 256 216 311 162 q 171 341 202 269 q 140 496 140 414 q 171 648 140 576 q 256 773 202 719 q 382 857 311 826 q 536 887 454 887 q 688 857 616 887 q 814 773 761 826 q 899 648 868 719 q 930 496 930 576 q 899 341 930 414 q 814 216 868 269 q 688 131 761 162 q 536 100 616 100 m 536 161 q 611 175 576 161 q 673 211 646 190 q 723 259 701 233 q 758 309 744 286 q 537 281 647 280 q 314 309 426 281 q 348 259 327 286 q 398 211 369 233 q 460 175 426 190 q 536 161 494 161 m 300 330 q 773 330 534 276 l 848 450 l 223 450 l 300 330 m 590 496 l 537 622 l 484 496 l 590 496 m 408 593 q 418 592 411 590 q 434 598 426 594 q 448 606 443 602 q 454 612 454 611 q 422 693 434 651 q 386 768 409 734 q 368 768 381 773 q 339 752 354 762 q 313 733 325 743 q 305 720 302 723 l 408 593 m 766 720 q 759 733 769 723 q 734 752 748 743 q 705 768 719 762 q 687 768 691 773 q 650 693 661 734 q 622 612 638 651 q 625 606 619 611 q 638 598 630 602 q 654 592 645 594 q 666 593 662 590 l 766 720 m 895 70 l 875 70 l 875 85 l 932 85 l 932 70 l 911 70 l 911 17 l 895 17 l 895 70 m 939 84 l 960 84 l 972 31 l 984 84 l 1004 84 l 1004 16 l 991 16 l 991 69 l 978 16 l 966 16 l 952 69 l 952 16 l 939 16 l 939 84 "},"§":{"x_min":46,"x_max":1028,"ha":1074,"o":"m 536 4 q 345 42 434 4 q 189 148 255 81 q 84 304 122 215 q 46 496 46 394 q 84 687 46 597 q 189 843 122 776 q 345 949 255 910 q 536 988 434 988 q 727 949 637 988 q 883 843 816 910 q 989 687 950 776 q 1028 496 1028 597 q 989 304 1028 394 q 883 148 950 215 q 727 42 816 81 q 536 4 637 4 m 536 71 q 702 104 625 71 q 836 196 779 137 q 926 331 893 254 q 960 496 960 408 q 926 660 960 583 q 836 795 893 737 q 702 886 779 853 q 536 920 625 920 q 371 886 448 920 q 236 795 294 853 q 144 660 177 737 q 111 496 111 583 q 144 331 111 408 q 236 196 177 254 q 371 104 294 137 q 536 71 448 71 m 536 100 q 382 131 454 100 q 256 216 311 162 q 171 341 202 269 q 140 496 140 414 q 171 648 140 576 q 256 773 202 719 q 382 857 311 826 q 536 887 454 887 q 688 857 616 887 q 814 773 761 826 q 899 648 868 719 q 930 496 930 576 q 899 341 930 414 q 814 216 868 269 q 688 131 761 162 q 536 100 616 100 m 536 161 q 611 175 576 161 q 673 211 646 190 q 723 259 701 233 q 758 309 744 286 q 537 281 647 280 q 314 309 426 281 q 348 259 327 286 q 398 211 369 233 q 460 175 426 190 q 536 161 494 161 m 300 330 q 773 330 534 276 l 848 450 l 223 450 l 300 330 m 590 496 l 537 622 l 484 496 l 590 496 m 408 593 q 418 592 411 590 q 434 598 426 594 q 448 606 443 602 q 454 612 454 611 q 422 693 434 651 q 386 768 409 734 q 368 768 381 773 q 339 752 354 762 q 313 733 325 743 q 305 720 302 723 l 408 593 m 766 720 q 759 733 769 723 q 734 752 748 743 q 705 768 719 762 q 687 768 691 773 q 650 693 661 734 q 622 612 638 651 q 625 606 619 611 q 638 598 630 602 q 654 592 645 594 q 666 593 662 590 l 766 720 m 895 70 l 875 70 l 875 85 l 932 85 l 932 70 l 911 70 l 911 17 l 895 17 l 895 70 m 939 84 l 960 84 l 972 31 l 984 84 l 1004 84 l 1004 16 l 991 16 l 991 69 l 978 16 l 966 16 l 952 69 l 952 16 l 939 16 l 939 84 "},"Ý":{"x_min":46,"x_max":1028,"ha":1074,"o":"m 536 4 q 345 42 434 4 q 189 148 255 81 q 84 304 122 215 q 46 496 46 394 q 84 687 46 597 q 189 843 122 776 q 345 949 255 910 q 536 988 434 988 q 727 949 637 988 q 883 843 816 910 q 989 687 950 776 q 1028 496 1028 597 q 989 304 1028 394 q 883 148 950 215 q 727 42 816 81 q 536 4 637 4 m 536 71 q 702 104 625 71 q 836 196 779 137 q 926 331 893 254 q 960 496 960 408 q 926 660 960 583 q 836 795 893 737 q 702 886 779 853 q 536 920 625 920 q 371 886 448 920 q 236 795 294 853 q 144 660 177 737 q 111 496 111 583 q 144 331 111 408 q 236 196 177 254 q 371 104 294 137 q 536 71 448 71 m 536 100 q 382 131 454 100 q 256 216 311 162 q 171 341 202 269 q 140 496 140 414 q 171 648 140 576 q 256 773 202 719 q 382 857 311 826 q 536 887 454 887 q 688 857 616 887 q 814 773 761 826 q 899 648 868 719 q 930 496 930 576 q 899 341 930 414 q 814 216 868 269 q 688 131 761 162 q 536 100 616 100 m 536 161 q 611 175 576 161 q 673 211 646 190 q 723 259 701 233 q 758 309 744 286 q 537 281 647 280 q 314 309 426 281 q 348 259 327 286 q 398 211 369 233 q 460 175 426 190 q 536 161 494 161 m 300 330 q 773 330 534 276 l 848 450 l 223 450 l 300 330 m 590 496 l 537 622 l 484 496 l 590 496 m 408 593 q 418 592 411 590 q 434 598 426 594 q 448 606 443 602 q 454 612 454 611 q 422 693 434 651 q 386 768 409 734 q 368 768 381 773 q 339 752 354 762 q 313 733 325 743 q 305 720 302 723 l 408 593 m 766 720 q 759 733 769 723 q 734 752 748 743 q 705 768 719 762 q 687 768 691 773 q 650 693 661 734 q 622 612 638 651 q 625 606 619 611 q 638 598 630 602 q 654 592 645 594 q 666 593 662 590 l 766 720 m 895 70 l 875 70 l 875 85 l 932 85 l 932 70 l 911 70 l 911 17 l 895 17 l 895 70 m 939 84 l 960 84 l 972 31 l 984 84 l 1004 84 l 1004 16 l 991 16 l 991 69 l 978 16 l 966 16 l 952 69 l 952 16 l 939 16 l 939 84 "},"b":{"x_min":72.234375,"x_max":1005.53125,"ha":890,"o":"m 498 613 q 659 639 601 607 q 733 729 716 672 q 736 774 741 754 q 712 806 732 794 q 655 818 693 818 q 562 804 618 818 q 529 709 545 755 q 498 613 513 662 m 359 222 q 466 218 419 213 q 547 238 513 223 q 603 278 581 254 q 633 331 625 302 q 595 412 648 384 q 420 420 543 440 q 390 321 405 368 q 359 222 375 275 m 72 38 q 138 277 105 159 q 205 511 170 394 q 277 748 240 629 q 358 994 315 868 q 504 1026 423 1014 q 657 1042 586 1039 q 741 1039 697 1042 q 825 1025 784 1036 q 902 994 866 1014 q 962 944 937 973 q 998 873 987 914 q 1002 782 1009 833 q 974 700 997 740 q 916 625 951 659 q 835 562 880 590 q 740 521 790 534 q 819 499 782 515 q 884 456 857 483 q 925 391 912 429 q 930 304 938 352 q 857 152 915 216 q 708 51 800 87 q 627 26 670 36 q 542 11 584 16 q 461 2 500 5 q 391 0 422 0 q 202 11 279 -2 q 72 38 125 25 "},"q":{"x_min":161.34375,"x_max":1196.65625,"ha":1118,"o":"m 1020 205 q 1071 119 1044 170 q 1119 27 1098 69 q 1059 -7 1091 10 q 993 -43 1027 -25 q 922 -76 958 -61 q 854 -103 887 -91 q 842 -68 850 -89 q 825 -24 834 -47 q 806 21 816 -1 q 787 62 795 44 q 656 22 725 37 q 520 9 587 8 q 357 44 429 10 q 240 137 286 78 q 174 275 194 195 q 165 449 154 355 q 248 712 184 599 q 402 899 312 824 q 598 1011 491 973 q 812 1050 705 1048 q 1086 952 990 1038 q 1194 719 1183 866 q 1191 577 1200 648 q 1160 440 1182 506 q 1103 313 1138 373 q 1020 205 1068 252 m 730 725 q 635 705 682 725 q 550 653 588 686 q 482 576 511 620 q 441 481 454 531 q 438 367 426 418 q 484 285 451 316 q 568 245 518 254 q 680 256 619 236 q 573 393 632 327 q 619 417 600 406 q 656 437 638 427 q 695 457 675 447 q 745 480 716 468 q 801 431 773 455 q 854 381 829 406 q 901 481 888 424 q 907 575 913 531 q 876 652 900 619 q 815 705 852 686 q 730 725 777 725 "},"Ö":{"x_min":46,"x_max":1028,"ha":1074,"o":"m 536 4 q 345 42 434 4 q 189 148 255 81 q 84 304 122 215 q 46 496 46 394 q 84 687 46 597 q 189 843 122 776 q 345 949 255 910 q 536 988 434 988 q 727 949 637 988 q 883 843 816 910 q 989 687 950 776 q 1028 496 1028 597 q 989 304 1028 394 q 883 148 950 215 q 727 42 816 81 q 536 4 637 4 m 536 71 q 702 104 625 71 q 836 196 779 137 q 926 331 893 254 q 960 496 960 408 q 926 660 960 583 q 836 795 893 737 q 702 886 779 853 q 536 920 625 920 q 371 886 448 920 q 236 795 294 853 q 144 660 177 737 q 111 496 111 583 q 144 331 111 408 q 236 196 177 254 q 371 104 294 137 q 536 71 448 71 m 536 100 q 382 131 454 100 q 256 216 311 162 q 171 341 202 269 q 140 496 140 414 q 171 648 140 576 q 256 773 202 719 q 382 857 311 826 q 536 887 454 887 q 688 857 616 887 q 814 773 761 826 q 899 648 868 719 q 930 496 930 576 q 899 341 930 414 q 814 216 868 269 q 688 131 761 162 q 536 100 616 100 m 536 161 q 611 175 576 161 q 673 211 646 190 q 723 259 701 233 q 758 309 744 286 q 537 281 647 280 q 314 309 426 281 q 348 259 327 286 q 398 211 369 233 q 460 175 426 190 q 536 161 494 161 m 300 330 q 773 330 534 276 l 848 450 l 223 450 l 300 330 m 590 496 l 537 622 l 484 496 l 590 496 m 408 593 q 418 592 411 590 q 434 598 426 594 q 448 606 443 602 q 454 612 454 611 q 422 693 434 651 q 386 768 409 734 q 368 768 381 773 q 339 752 354 762 q 313 733 325 743 q 305 720 302 723 l 408 593 m 766 720 q 759 733 769 723 q 734 752 748 743 q 705 768 719 762 q 687 768 691 773 q 650 693 661 734 q 622 612 638 651 q 625 606 619 611 q 638 598 630 602 q 654 592 645 594 q 666 593 662 590 l 766 720 m 895 70 l 875 70 l 875 85 l 932 85 l 932 70 l 911 70 l 911 17 l 895 17 l 895 70 m 939 84 l 960 84 l 972 31 l 984 84 l 1004 84 l 1004 16 l 991 16 l 991 69 l 978 16 l 966 16 l 952 69 l 952 16 l 939 16 l 939 84 "},"z":{"x_min":18.0625,"x_max":1044.53125,"ha":821,"o":"m 237 740 q 270 816 255 783 q 301 879 286 849 q 335 939 316 909 q 380 1005 354 969 q 715 1023 544 1020 q 1044 1015 886 1026 q 894 831 969 929 q 748 632 819 733 q 611 433 677 531 q 490 247 545 334 q 567 250 525 248 q 653 255 609 252 q 737 260 697 258 q 809 266 777 263 q 743 149 776 208 q 666 21 711 91 q 513 15 595 17 q 344 11 430 13 q 174 10 258 10 q 18 9 90 10 q 141 196 72 96 q 288 399 211 297 q 447 599 365 501 q 612 779 530 697 q 428 770 526 779 q 237 740 330 762 "},"™":{"x_min":41.9375,"x_max":876,"ha":932,"o":"m 359 942 l 243 942 l 243 503 l 160 503 l 160 942 l 41 942 l 41 1010 l 359 1010 l 359 942 m 615 514 l 496 864 l 496 503 l 413 503 l 413 1010 l 525 1010 l 645 657 l 763 1010 l 876 1010 l 876 503 l 794 503 l 794 864 l 674 514 l 615 514 "},"ã":{"x_min":46,"x_max":1028,"ha":1074,"o":"m 536 4 q 345 42 434 4 q 189 148 255 81 q 84 304 122 215 q 46 496 46 394 q 84 687 46 597 q 189 843 122 776 q 345 949 255 910 q 536 988 434 988 q 727 949 637 988 q 883 843 816 910 q 989 687 950 776 q 1028 496 1028 597 q 989 304 1028 394 q 883 148 950 215 q 727 42 816 81 q 536 4 637 4 m 536 71 q 702 104 625 71 q 836 196 779 137 q 926 331 893 254 q 960 496 960 408 q 926 660 960 583 q 836 795 893 737 q 702 886 779 853 q 536 920 625 920 q 371 886 448 920 q 236 795 294 853 q 144 660 177 737 q 111 496 111 583 q 144 331 111 408 q 236 196 177 254 q 371 104 294 137 q 536 71 448 71 m 536 100 q 382 131 454 100 q 256 216 311 162 q 171 341 202 269 q 140 496 140 414 q 171 648 140 576 q 256 773 202 719 q 382 857 311 826 q 536 887 454 887 q 688 857 616 887 q 814 773 761 826 q 899 648 868 719 q 930 496 930 576 q 899 341 930 414 q 814 216 868 269 q 688 131 761 162 q 536 100 616 100 m 536 161 q 611 175 576 161 q 673 211 646 190 q 723 259 701 233 q 758 309 744 286 q 537 281 647 280 q 314 309 426 281 q 348 259 327 286 q 398 211 369 233 q 460 175 426 190 q 536 161 494 161 m 300 330 q 773 330 534 276 l 848 450 l 223 450 l 300 330 m 590 496 l 537 622 l 484 496 l 590 496 m 408 593 q 418 592 411 590 q 434 598 426 594 q 448 606 443 602 q 454 612 454 611 q 422 693 434 651 q 386 768 409 734 q 368 768 381 773 q 339 752 354 762 q 313 733 325 743 q 305 720 302 723 l 408 593 m 766 720 q 759 733 769 723 q 734 752 748 743 q 705 768 719 762 q 687 768 691 773 q 650 693 661 734 q 622 612 638 651 q 625 606 619 611 q 638 598 630 602 q 654 592 645 594 q 666 593 662 590 l 766 720 m 895 70 l 875 70 l 875 85 l 932 85 l 932 70 l 911 70 l 911 17 l 895 17 l 895 70 m 939 84 l 960 84 l 972 31 l 984 84 l 1004 84 l 1004 16 l 991 16 l 991 69 l 978 16 l 966 16 l 952 69 l 952 16 l 939 16 l 939 84 "},"æ":{"x_min":46,"x_max":1028,"ha":1074,"o":"m 536 4 q 345 42 434 4 q 189 148 255 81 q 84 304 122 215 q 46 496 46 394 q 84 687 46 597 q 189 843 122 776 q 345 949 255 910 q 536 988 434 988 q 727 949 637 988 q 883 843 816 910 q 989 687 950 776 q 1028 496 1028 597 q 989 304 1028 394 q 883 148 950 215 q 727 42 816 81 q 536 4 637 4 m 536 71 q 702 104 625 71 q 836 196 779 137 q 926 331 893 254 q 960 496 960 408 q 926 660 960 583 q 836 795 893 737 q 702 886 779 853 q 536 920 625 920 q 371 886 448 920 q 236 795 294 853 q 144 660 177 737 q 111 496 111 583 q 144 331 111 408 q 236 196 177 254 q 371 104 294 137 q 536 71 448 71 m 536 100 q 382 131 454 100 q 256 216 311 162 q 171 341 202 269 q 140 496 140 414 q 171 648 140 576 q 256 773 202 719 q 382 857 311 826 q 536 887 454 887 q 688 857 616 887 q 814 773 761 826 q 899 648 868 719 q 930 496 930 576 q 899 341 930 414 q 814 216 868 269 q 688 131 761 162 q 536 100 616 100 m 536 161 q 611 175 576 161 q 673 211 646 190 q 723 259 701 233 q 758 309 744 286 q 537 281 647 280 q 314 309 426 281 q 348 259 327 286 q 398 211 369 233 q 460 175 426 190 q 536 161 494 161 m 300 330 q 773 330 534 276 l 848 450 l 223 450 l 300 330 m 590 496 l 537 622 l 484 496 l 590 496 m 408 593 q 418 592 411 590 q 434 598 426 594 q 448 606 443 602 q 454 612 454 611 q 422 693 434 651 q 386 768 409 734 q 368 768 381 773 q 339 752 354 762 q 313 733 325 743 q 305 720 302 723 l 408 593 m 766 720 q 759 733 769 723 q 734 752 748 743 q 705 768 719 762 q 687 768 691 773 q 650 693 661 734 q 622 612 638 651 q 625 606 619 611 q 638 598 630 602 q 654 592 645 594 q 666 593 662 590 l 766 720 m 895 70 l 875 70 l 875 85 l 932 85 l 932 70 l 911 70 l 911 17 l 895 17 l 895 70 m 939 84 l 960 84 l 972 31 l 984 84 l 1004 84 l 1004 16 l 991 16 l 991 69 l 978 16 l 966 16 l 952 69 l 952 16 l 939 16 l 939 84 "},"®":{"x_min":56,"x_max":1094.96875,"ha":1150,"o":"m 578 1023 q 776 984 682 1023 q 940 877 869 945 q 1053 713 1011 808 q 1094 508 1094 619 q 1053 298 1094 394 q 940 133 1011 202 q 776 25 869 63 q 578 -13 682 -13 q 377 25 472 -13 q 210 133 282 63 q 97 298 139 202 q 56 508 56 394 q 97 713 56 619 q 210 877 139 808 q 377 984 282 945 q 578 1023 472 1023 m 578 936 q 412 903 489 936 q 280 813 336 870 q 191 678 223 757 q 160 508 160 600 q 191 334 160 413 q 280 196 223 254 q 412 106 336 138 q 578 75 489 75 q 740 106 665 75 q 871 196 815 138 q 958 334 926 254 q 990 508 990 413 q 958 678 990 600 q 871 813 926 757 q 740 903 815 870 q 578 936 665 936 m 465 206 l 377 206 l 377 805 l 604 805 q 759 764 708 805 q 811 636 811 723 q 766 516 808 555 q 659 469 725 477 l 827 206 l 727 206 l 568 466 l 465 466 l 465 206 m 576 540 q 630 543 604 540 q 677 555 657 545 q 709 585 697 565 q 722 641 722 605 q 710 688 722 670 q 679 717 698 707 q 637 731 661 727 q 591 734 613 734 l 465 734 l 465 540 l 576 540 "},"É":{"x_min":46,"x_max":1028,"ha":1074,"o":"m 536 4 q 345 42 434 4 q 189 148 255 81 q 84 304 122 215 q 46 496 46 394 q 84 687 46 597 q 189 843 122 776 q 345 949 255 910 q 536 988 434 988 q 727 949 637 988 q 883 843 816 910 q 989 687 950 776 q 1028 496 1028 597 q 989 304 1028 394 q 883 148 950 215 q 727 42 816 81 q 536 4 637 4 m 536 71 q 702 104 625 71 q 836 196 779 137 q 926 331 893 254 q 960 496 960 408 q 926 660 960 583 q 836 795 893 737 q 702 886 779 853 q 536 920 625 920 q 371 886 448 920 q 236 795 294 853 q 144 660 177 737 q 111 496 111 583 q 144 331 111 408 q 236 196 177 254 q 371 104 294 137 q 536 71 448 71 m 536 100 q 382 131 454 100 q 256 216 311 162 q 171 341 202 269 q 140 496 140 414 q 171 648 140 576 q 256 773 202 719 q 382 857 311 826 q 536 887 454 887 q 688 857 616 887 q 814 773 761 826 q 899 648 868 719 q 930 496 930 576 q 899 341 930 414 q 814 216 868 269 q 688 131 761 162 q 536 100 616 100 m 536 161 q 611 175 576 161 q 673 211 646 190 q 723 259 701 233 q 758 309 744 286 q 537 281 647 280 q 314 309 426 281 q 348 259 327 286 q 398 211 369 233 q 460 175 426 190 q 536 161 494 161 m 300 330 q 773 330 534 276 l 848 450 l 223 450 l 300 330 m 590 496 l 537 622 l 484 496 l 590 496 m 408 593 q 418 592 411 590 q 434 598 426 594 q 448 606 443 602 q 454 612 454 611 q 422 693 434 651 q 386 768 409 734 q 368 768 381 773 q 339 752 354 762 q 313 733 325 743 q 305 720 302 723 l 408 593 m 766 720 q 759 733 769 723 q 734 752 748 743 q 705 768 719 762 q 687 768 691 773 q 650 693 661 734 q 622 612 638 651 q 625 606 619 611 q 638 598 630 602 q 654 592 645 594 q 666 593 662 590 l 766 720 m 895 70 l 875 70 l 875 85 l 932 85 l 932 70 l 911 70 l 911 17 l 895 17 l 895 70 m 939 84 l 960 84 l 972 31 l 984 84 l 1004 84 l 1004 16 l 991 16 l 991 69 l 978 16 l 966 16 l 952 69 l 952 16 l 939 16 l 939 84 "},"~":{"x_min":46,"x_max":1028,"ha":1074,"o":"m 536 4 q 345 42 434 4 q 189 148 255 81 q 84 304 122 215 q 46 496 46 394 q 84 687 46 597 q 189 843 122 776 q 345 949 255 910 q 536 988 434 988 q 727 949 637 988 q 883 843 816 910 q 989 687 950 776 q 1028 496 1028 597 q 989 304 1028 394 q 883 148 950 215 q 727 42 816 81 q 536 4 637 4 m 536 71 q 702 104 625 71 q 836 196 779 137 q 926 331 893 254 q 960 496 960 408 q 926 660 960 583 q 836 795 893 737 q 702 886 779 853 q 536 920 625 920 q 371 886 448 920 q 236 795 294 853 q 144 660 177 737 q 111 496 111 583 q 144 331 111 408 q 236 196 177 254 q 371 104 294 137 q 536 71 448 71 m 536 100 q 382 131 454 100 q 256 216 311 162 q 171 341 202 269 q 140 496 140 414 q 171 648 140 576 q 256 773 202 719 q 382 857 311 826 q 536 887 454 887 q 688 857 616 887 q 814 773 761 826 q 899 648 868 719 q 930 496 930 576 q 899 341 930 414 q 814 216 868 269 q 688 131 761 162 q 536 100 616 100 m 536 161 q 611 175 576 161 q 673 211 646 190 q 723 259 701 233 q 758 309 744 286 q 537 281 647 280 q 314 309 426 281 q 348 259 327 286 q 398 211 369 233 q 460 175 426 190 q 536 161 494 161 m 300 330 q 773 330 534 276 l 848 450 l 223 450 l 300 330 m 590 496 l 537 622 l 484 496 l 590 496 m 408 593 q 418 592 411 590 q 434 598 426 594 q 448 606 443 602 q 454 612 454 611 q 422 693 434 651 q 386 768 409 734 q 368 768 381 773 q 339 752 354 762 q 313 733 325 743 q 305 720 302 723 l 408 593 m 766 720 q 759 733 769 723 q 734 752 748 743 q 705 768 719 762 q 687 768 691 773 q 650 693 661 734 q 622 612 638 651 q 625 606 619 611 q 638 598 630 602 q 654 592 645 594 q 666 593 662 590 l 766 720 m 895 70 l 875 70 l 875 85 l 932 85 l 932 70 l 911 70 l 911 17 l 895 17 l 895 70 m 939 84 l 960 84 l 972 31 l 984 84 l 1004 84 l 1004 16 l 991 16 l 991 69 l 978 16 l 966 16 l 952 69 l 952 16 l 939 16 l 939 84 "},"³":{"x_min":46,"x_max":1028,"ha":1074,"o":"m 536 4 q 345 42 434 4 q 189 148 255 81 q 84 304 122 215 q 46 496 46 394 q 84 687 46 597 q 189 843 122 776 q 345 949 255 910 q 536 988 434 988 q 727 949 637 988 q 883 843 816 910 q 989 687 950 776 q 1028 496 1028 597 q 989 304 1028 394 q 883 148 950 215 q 727 42 816 81 q 536 4 637 4 m 536 71 q 702 104 625 71 q 836 196 779 137 q 926 331 893 254 q 960 496 960 408 q 926 660 960 583 q 836 795 893 737 q 702 886 779 853 q 536 920 625 920 q 371 886 448 920 q 236 795 294 853 q 144 660 177 737 q 111 496 111 583 q 144 331 111 408 q 236 196 177 254 q 371 104 294 137 q 536 71 448 71 m 536 100 q 382 131 454 100 q 256 216 311 162 q 171 341 202 269 q 140 496 140 414 q 171 648 140 576 q 256 773 202 719 q 382 857 311 826 q 536 887 454 887 q 688 857 616 887 q 814 773 761 826 q 899 648 868 719 q 930 496 930 576 q 899 341 930 414 q 814 216 868 269 q 688 131 761 162 q 536 100 616 100 m 536 161 q 611 175 576 161 q 673 211 646 190 q 723 259 701 233 q 758 309 744 286 q 537 281 647 280 q 314 309 426 281 q 348 259 327 286 q 398 211 369 233 q 460 175 426 190 q 536 161 494 161 m 300 330 q 773 330 534 276 l 848 450 l 223 450 l 300 330 m 590 496 l 537 622 l 484 496 l 590 496 m 408 593 q 418 592 411 590 q 434 598 426 594 q 448 606 443 602 q 454 612 454 611 q 422 693 434 651 q 386 768 409 734 q 368 768 381 773 q 339 752 354 762 q 313 733 325 743 q 305 720 302 723 l 408 593 m 766 720 q 759 733 769 723 q 734 752 748 743 q 705 768 719 762 q 687 768 691 773 q 650 693 661 734 q 622 612 638 651 q 625 606 619 611 q 638 598 630 602 q 654 592 645 594 q 666 593 662 590 l 766 720 m 895 70 l 875 70 l 875 85 l 932 85 l 932 70 l 911 70 l 911 17 l 895 17 l 895 70 m 939 84 l 960 84 l 972 31 l 984 84 l 1004 84 l 1004 16 l 991 16 l 991 69 l 978 16 l 966 16 l 952 69 l 952 16 l 939 16 l 939 84 "},"¡":{"x_min":-34.71875,"x_max":545.71875,"ha":435,"o":"m 450 413 q 432 294 443 358 q 409 164 422 230 q 381 34 395 98 q 353 -88 368 -30 q 325 -190 338 -145 q 301 -263 312 -236 q 130 -281 218 -281 q -34 -273 43 -280 q 53 -94 11 -187 q 133 89 95 -1 q 201 262 170 180 q 255 407 231 344 q 356 404 312 402 q 450 413 401 405 m 352 468 q 295 478 320 468 q 252 507 269 488 q 229 552 236 526 q 229 607 222 577 q 252 661 234 636 q 295 705 270 686 q 352 734 320 723 q 415 746 383 746 q 518 702 481 743 q 543 605 554 662 q 517 550 536 576 q 472 506 498 524 q 416 477 447 487 q 352 468 386 466 "},"[":{"x_min":46,"x_max":1028,"ha":1074,"o":"m 536 4 q 345 42 434 4 q 189 148 255 81 q 84 304 122 215 q 46 496 46 394 q 84 687 46 597 q 189 843 122 776 q 345 949 255 910 q 536 988 434 988 q 727 949 637 988 q 883 843 816 910 q 989 687 950 776 q 1028 496 1028 597 q 989 304 1028 394 q 883 148 950 215 q 727 42 816 81 q 536 4 637 4 m 536 71 q 702 104 625 71 q 836 196 779 137 q 926 331 893 254 q 960 496 960 408 q 926 660 960 583 q 836 795 893 737 q 702 886 779 853 q 536 920 625 920 q 371 886 448 920 q 236 795 294 853 q 144 660 177 737 q 111 496 111 583 q 144 331 111 408 q 236 196 177 254 q 371 104 294 137 q 536 71 448 71 m 536 100 q 382 131 454 100 q 256 216 311 162 q 171 341 202 269 q 140 496 140 414 q 171 648 140 576 q 256 773 202 719 q 382 857 311 826 q 536 887 454 887 q 688 857 616 887 q 814 773 761 826 q 899 648 868 719 q 930 496 930 576 q 899 341 930 414 q 814 216 868 269 q 688 131 761 162 q 536 100 616 100 m 536 161 q 611 175 576 161 q 673 211 646 190 q 723 259 701 233 q 758 309 744 286 q 537 281 647 280 q 314 309 426 281 q 348 259 327 286 q 398 211 369 233 q 460 175 426 190 q 536 161 494 161 m 300 330 q 773 330 534 276 l 848 450 l 223 450 l 300 330 m 590 496 l 537 622 l 484 496 l 590 496 m 408 593 q 418 592 411 590 q 434 598 426 594 q 448 606 443 602 q 454 612 454 611 q 422 693 434 651 q 386 768 409 734 q 368 768 381 773 q 339 752 354 762 q 313 733 325 743 q 305 720 302 723 l 408 593 m 766 720 q 759 733 769 723 q 734 752 748 743 q 705 768 719 762 q 687 768 691 773 q 650 693 661 734 q 622 612 638 651 q 625 606 619 611 q 638 598 630 602 q 654 592 645 594 q 666 593 662 590 l 766 720 m 895 70 l 875 70 l 875 85 l 932 85 l 932 70 l 911 70 l 911 17 l 895 17 l 895 70 m 939 84 l 960 84 l 972 31 l 984 84 l 1004 84 l 1004 16 l 991 16 l 991 69 l 978 16 l 966 16 l 952 69 l 952 16 l 939 16 l 939 84 "},"L":{"x_min":73.609375,"x_max":747.28125,"ha":700,"o":"m 395 259 q 473 261 429 259 q 566 266 518 263 q 661 274 613 270 q 747 284 708 279 q 695 156 722 220 q 632 28 668 93 q 484 20 561 23 q 332 16 406 17 q 190 15 258 15 q 73 15 123 15 q 135 262 104 140 q 200 506 166 384 q 269 752 233 628 q 348 1009 305 877 q 514 1029 437 1024 q 680 1031 591 1034 q 591 810 630 910 q 520 619 552 710 q 457 441 487 528 q 395 259 427 354 "}," ":{"x_min":0,"x_max":0,"ha":278},"%":{"x_min":46,"x_max":1028,"ha":1074,"o":"m 536 4 q 345 42 434 4 q 189 148 255 81 q 84 304 122 215 q 46 496 46 394 q 84 687 46 597 q 189 843 122 776 q 345 949 255 910 q 536 988 434 988 q 727 949 637 988 q 883 843 816 910 q 989 687 950 776 q 1028 496 1028 597 q 989 304 1028 394 q 883 148 950 215 q 727 42 816 81 q 536 4 637 4 m 536 71 q 702 104 625 71 q 836 196 779 137 q 926 331 893 254 q 960 496 960 408 q 926 660 960 583 q 836 795 893 737 q 702 886 779 853 q 536 920 625 920 q 371 886 448 920 q 236 795 294 853 q 144 660 177 737 q 111 496 111 583 q 144 331 111 408 q 236 196 177 254 q 371 104 294 137 q 536 71 448 71 m 536 100 q 382 131 454 100 q 256 216 311 162 q 171 341 202 269 q 140 496 140 414 q 171 648 140 576 q 256 773 202 719 q 382 857 311 826 q 536 887 454 887 q 688 857 616 887 q 814 773 761 826 q 899 648 868 719 q 930 496 930 576 q 899 341 930 414 q 814 216 868 269 q 688 131 761 162 q 536 100 616 100 m 536 161 q 611 175 576 161 q 673 211 646 190 q 723 259 701 233 q 758 309 744 286 q 537 281 647 280 q 314 309 426 281 q 348 259 327 286 q 398 211 369 233 q 460 175 426 190 q 536 161 494 161 m 300 330 q 773 330 534 276 l 848 450 l 223 450 l 300 330 m 590 496 l 537 622 l 484 496 l 590 496 m 408 593 q 418 592 411 590 q 434 598 426 594 q 448 606 443 602 q 454 612 454 611 q 422 693 434 651 q 386 768 409 734 q 368 768 381 773 q 339 752 354 762 q 313 733 325 743 q 305 720 302 723 l 408 593 m 766 720 q 759 733 769 723 q 734 752 748 743 q 705 768 719 762 q 687 768 691 773 q 650 693 661 734 q 622 612 638 651 q 625 606 619 611 q 638 598 630 602 q 654 592 645 594 q 666 593 662 590 l 766 720 m 895 70 l 875 70 l 875 85 l 932 85 l 932 70 l 911 70 l 911 17 l 895 17 l 895 70 m 939 84 l 960 84 l 972 31 l 984 84 l 1004 84 l 1004 16 l 991 16 l 991 69 l 978 16 l 966 16 l 952 69 l 952 16 l 939 16 l 939 84 "},"P":{"x_min":76.390625,"x_max":1057.03125,"ha":933,"o":"m 76 15 q 209 500 143 257 q 362 996 276 742 q 427 1014 390 1005 q 506 1031 463 1024 q 595 1042 550 1038 q 687 1045 641 1046 q 761 1041 720 1044 q 842 1028 801 1038 q 921 998 883 1017 q 989 948 959 980 q 1037 870 1019 917 q 1057 756 1055 823 q 1013 555 1057 649 q 888 394 970 460 q 688 295 807 327 q 418 284 569 263 q 388 196 400 231 q 366 134 376 162 q 347 80 356 106 q 323 19 337 53 q 202 19 270 19 q 76 15 134 19 m 490 518 q 607 520 554 509 q 697 562 661 531 q 741 625 723 587 q 762 699 759 662 q 748 765 765 736 q 688 801 732 794 q 629 800 662 804 q 563 782 597 797 q 527 650 544 716 q 490 518 509 584 "},"À":{"x_min":46,"x_max":1028,"ha":1074,"o":"m 536 4 q 345 42 434 4 q 189 148 255 81 q 84 304 122 215 q 46 496 46 394 q 84 687 46 597 q 189 843 122 776 q 345 949 255 910 q 536 988 434 988 q 727 949 637 988 q 883 843 816 910 q 989 687 950 776 q 1028 496 1028 597 q 989 304 1028 394 q 883 148 950 215 q 727 42 816 81 q 536 4 637 4 m 536 71 q 702 104 625 71 q 836 196 779 137 q 926 331 893 254 q 960 496 960 408 q 926 660 960 583 q 836 795 893 737 q 702 886 779 853 q 536 920 625 920 q 371 886 448 920 q 236 795 294 853 q 144 660 177 737 q 111 496 111 583 q 144 331 111 408 q 236 196 177 254 q 371 104 294 137 q 536 71 448 71 m 536 100 q 382 131 454 100 q 256 216 311 162 q 171 341 202 269 q 140 496 140 414 q 171 648 140 576 q 256 773 202 719 q 382 857 311 826 q 536 887 454 887 q 688 857 616 887 q 814 773 761 826 q 899 648 868 719 q 930 496 930 576 q 899 341 930 414 q 814 216 868 269 q 688 131 761 162 q 536 100 616 100 m 536 161 q 611 175 576 161 q 673 211 646 190 q 723 259 701 233 q 758 309 744 286 q 537 281 647 280 q 314 309 426 281 q 348 259 327 286 q 398 211 369 233 q 460 175 426 190 q 536 161 494 161 m 300 330 q 773 330 534 276 l 848 450 l 223 450 l 300 330 m 590 496 l 537 622 l 484 496 l 590 496 m 408 593 q 418 592 411 590 q 434 598 426 594 q 448 606 443 602 q 454 612 454 611 q 422 693 434 651 q 386 768 409 734 q 368 768 381 773 q 339 752 354 762 q 313 733 325 743 q 305 720 302 723 l 408 593 m 766 720 q 759 733 769 723 q 734 752 748 743 q 705 768 719 762 q 687 768 691 773 q 650 693 661 734 q 622 612 638 651 q 625 606 619 611 q 638 598 630 602 q 654 592 645 594 q 666 593 662 590 l 766 720 m 895 70 l 875 70 l 875 85 l 932 85 l 932 70 l 911 70 l 911 17 l 895 17 l 895 70 m 939 84 l 960 84 l 972 31 l 984 84 l 1004 84 l 1004 16 l 991 16 l 991 69 l 978 16 l 966 16 l 952 69 l 952 16 l 939 16 l 939 84 "},"_":{"x_min":-72.234375,"x_max":609.765625,"ha":611,"o":"m -12 -26 q 74 -19 22 -21 q 186 -14 126 -16 q 309 -11 245 -12 q 429 -11 372 -10 q 534 -13 487 -12 q 609 -17 581 -15 q 586 -110 598 -67 q 555 -197 575 -152 q 475 -196 525 -197 q 367 -195 426 -195 q 245 -195 308 -195 q 122 -196 181 -195 q 11 -199 62 -198 q -72 -201 -38 -199 q -47 -115 -61 -155 q -12 -26 -34 -76 "},"ñ":{"x_min":46,"x_max":1028,"ha":1074,"o":"m 536 4 q 345 42 434 4 q 189 148 255 81 q 84 304 122 215 q 46 496 46 394 q 84 687 46 597 q 189 843 122 776 q 345 949 255 910 q 536 988 434 988 q 727 949 637 988 q 883 843 816 910 q 989 687 950 776 q 1028 496 1028 597 q 989 304 1028 394 q 883 148 950 215 q 727 42 816 81 q 536 4 637 4 m 536 71 q 702 104 625 71 q 836 196 779 137 q 926 331 893 254 q 960 496 960 408 q 926 660 960 583 q 836 795 893 737 q 702 886 779 853 q 536 920 625 920 q 371 886 448 920 q 236 795 294 853 q 144 660 177 737 q 111 496 111 583 q 144 331 111 408 q 236 196 177 254 q 371 104 294 137 q 536 71 448 71 m 536 100 q 382 131 454 100 q 256 216 311 162 q 171 341 202 269 q 140 496 140 414 q 171 648 140 576 q 256 773 202 719 q 382 857 311 826 q 536 887 454 887 q 688 857 616 887 q 814 773 761 826 q 899 648 868 719 q 930 496 930 576 q 899 341 930 414 q 814 216 868 269 q 688 131 761 162 q 536 100 616 100 m 536 161 q 611 175 576 161 q 673 211 646 190 q 723 259 701 233 q 758 309 744 286 q 537 281 647 280 q 314 309 426 281 q 348 259 327 286 q 398 211 369 233 q 460 175 426 190 q 536 161 494 161 m 300 330 q 773 330 534 276 l 848 450 l 223 450 l 300 330 m 590 496 l 537 622 l 484 496 l 590 496 m 408 593 q 418 592 411 590 q 434 598 426 594 q 448 606 443 602 q 454 612 454 611 q 422 693 434 651 q 386 768 409 734 q 368 768 381 773 q 339 752 354 762 q 313 733 325 743 q 305 720 302 723 l 408 593 m 766 720 q 759 733 769 723 q 734 752 748 743 q 705 768 719 762 q 687 768 691 773 q 650 693 661 734 q 622 612 638 651 q 625 606 619 611 q 638 598 630 602 q 654 592 645 594 q 666 593 662 590 l 766 720 m 895 70 l 875 70 l 875 85 l 932 85 l 932 70 l 911 70 l 911 17 l 895 17 l 895 70 m 939 84 l 960 84 l 972 31 l 984 84 l 1004 84 l 1004 16 l 991 16 l 991 69 l 978 16 l 966 16 l 952 69 l 952 16 l 939 16 l 939 84 "},"+":{"x_min":46,"x_max":1028,"ha":1074,"o":"m 536 4 q 345 42 434 4 q 189 148 255 81 q 84 304 122 215 q 46 496 46 394 q 84 687 46 597 q 189 843 122 776 q 345 949 255 910 q 536 988 434 988 q 727 949 637 988 q 883 843 816 910 q 989 687 950 776 q 1028 496 1028 597 q 989 304 1028 394 q 883 148 950 215 q 727 42 816 81 q 536 4 637 4 m 536 71 q 702 104 625 71 q 836 196 779 137 q 926 331 893 254 q 960 496 960 408 q 926 660 960 583 q 836 795 893 737 q 702 886 779 853 q 536 920 625 920 q 371 886 448 920 q 236 795 294 853 q 144 660 177 737 q 111 496 111 583 q 144 331 111 408 q 236 196 177 254 q 371 104 294 137 q 536 71 448 71 m 536 100 q 382 131 454 100 q 256 216 311 162 q 171 341 202 269 q 140 496 140 414 q 171 648 140 576 q 256 773 202 719 q 382 857 311 826 q 536 887 454 887 q 688 857 616 887 q 814 773 761 826 q 899 648 868 719 q 930 496 930 576 q 899 341 930 414 q 814 216 868 269 q 688 131 761 162 q 536 100 616 100 m 536 161 q 611 175 576 161 q 673 211 646 190 q 723 259 701 233 q 758 309 744 286 q 537 281 647 280 q 314 309 426 281 q 348 259 327 286 q 398 211 369 233 q 460 175 426 190 q 536 161 494 161 m 300 330 q 773 330 534 276 l 848 450 l 223 450 l 300 330 m 590 496 l 537 622 l 484 496 l 590 496 m 408 593 q 418 592 411 590 q 434 598 426 594 q 448 606 443 602 q 454 612 454 611 q 422 693 434 651 q 386 768 409 734 q 368 768 381 773 q 339 752 354 762 q 313 733 325 743 q 305 720 302 723 l 408 593 m 766 720 q 759 733 769 723 q 734 752 748 743 q 705 768 719 762 q 687 768 691 773 q 650 693 661 734 q 622 612 638 651 q 625 606 619 611 q 638 598 630 602 q 654 592 645 594 q 666 593 662 590 l 766 720 m 895 70 l 875 70 l 875 85 l 932 85 l 932 70 l 911 70 l 911 17 l 895 17 l 895 70 m 939 84 l 960 84 l 972 31 l 984 84 l 1004 84 l 1004 16 l 991 16 l 991 69 l 978 16 l 966 16 l 952 69 l 952 16 l 939 16 l 939 84 "},"½":{"x_min":46,"x_max":1028,"ha":1074,"o":"m 536 4 q 345 42 434 4 q 189 148 255 81 q 84 304 122 215 q 46 496 46 394 q 84 687 46 597 q 189 843 122 776 q 345 949 255 910 q 536 988 434 988 q 727 949 637 988 q 883 843 816 910 q 989 687 950 776 q 1028 496 1028 597 q 989 304 1028 394 q 883 148 950 215 q 727 42 816 81 q 536 4 637 4 m 536 71 q 702 104 625 71 q 836 196 779 137 q 926 331 893 254 q 960 496 960 408 q 926 660 960 583 q 836 795 893 737 q 702 886 779 853 q 536 920 625 920 q 371 886 448 920 q 236 795 294 853 q 144 660 177 737 q 111 496 111 583 q 144 331 111 408 q 236 196 177 254 q 371 104 294 137 q 536 71 448 71 m 536 100 q 382 131 454 100 q 256 216 311 162 q 171 341 202 269 q 140 496 140 414 q 171 648 140 576 q 256 773 202 719 q 382 857 311 826 q 536 887 454 887 q 688 857 616 887 q 814 773 761 826 q 899 648 868 719 q 930 496 930 576 q 899 341 930 414 q 814 216 868 269 q 688 131 761 162 q 536 100 616 100 m 536 161 q 611 175 576 161 q 673 211 646 190 q 723 259 701 233 q 758 309 744 286 q 537 281 647 280 q 314 309 426 281 q 348 259 327 286 q 398 211 369 233 q 460 175 426 190 q 536 161 494 161 m 300 330 q 773 330 534 276 l 848 450 l 223 450 l 300 330 m 590 496 l 537 622 l 484 496 l 590 496 m 408 593 q 418 592 411 590 q 434 598 426 594 q 448 606 443 602 q 454 612 454 611 q 422 693 434 651 q 386 768 409 734 q 368 768 381 773 q 339 752 354 762 q 313 733 325 743 q 305 720 302 723 l 408 593 m 766 720 q 759 733 769 723 q 734 752 748 743 q 705 768 719 762 q 687 768 691 773 q 650 693 661 734 q 622 612 638 651 q 625 606 619 611 q 638 598 630 602 q 654 592 645 594 q 666 593 662 590 l 766 720 m 895 70 l 875 70 l 875 85 l 932 85 l 932 70 l 911 70 l 911 17 l 895 17 l 895 70 m 939 84 l 960 84 l 972 31 l 984 84 l 1004 84 l 1004 16 l 991 16 l 991 69 l 978 16 l 966 16 l 952 69 l 952 16 l 939 16 l 939 84 "},"Æ":{"x_min":46,"x_max":1028,"ha":1074,"o":"m 536 4 q 345 42 434 4 q 189 148 255 81 q 84 304 122 215 q 46 496 46 394 q 84 687 46 597 q 189 843 122 776 q 345 949 255 910 q 536 988 434 988 q 727 949 637 988 q 883 843 816 910 q 989 687 950 776 q 1028 496 1028 597 q 989 304 1028 394 q 883 148 950 215 q 727 42 816 81 q 536 4 637 4 m 536 71 q 702 104 625 71 q 836 196 779 137 q 926 331 893 254 q 960 496 960 408 q 926 660 960 583 q 836 795 893 737 q 702 886 779 853 q 536 920 625 920 q 371 886 448 920 q 236 795 294 853 q 144 660 177 737 q 111 496 111 583 q 144 331 111 408 q 236 196 177 254 q 371 104 294 137 q 536 71 448 71 m 536 100 q 382 131 454 100 q 256 216 311 162 q 171 341 202 269 q 140 496 140 414 q 171 648 140 576 q 256 773 202 719 q 382 857 311 826 q 536 887 454 887 q 688 857 616 887 q 814 773 761 826 q 899 648 868 719 q 930 496 930 576 q 899 341 930 414 q 814 216 868 269 q 688 131 761 162 q 536 100 616 100 m 536 161 q 611 175 576 161 q 673 211 646 190 q 723 259 701 233 q 758 309 744 286 q 537 281 647 280 q 314 309 426 281 q 348 259 327 286 q 398 211 369 233 q 460 175 426 190 q 536 161 494 161 m 300 330 q 773 330 534 276 l 848 450 l 223 450 l 300 330 m 590 496 l 537 622 l 484 496 l 590 496 m 408 593 q 418 592 411 590 q 434 598 426 594 q 448 606 443 602 q 454 612 454 611 q 422 693 434 651 q 386 768 409 734 q 368 768 381 773 q 339 752 354 762 q 313 733 325 743 q 305 720 302 723 l 408 593 m 766 720 q 759 733 769 723 q 734 752 748 743 q 705 768 719 762 q 687 768 691 773 q 650 693 661 734 q 622 612 638 651 q 625 606 619 611 q 638 598 630 602 q 654 592 645 594 q 666 593 662 590 l 766 720 m 895 70 l 875 70 l 875 85 l 932 85 l 932 70 l 911 70 l 911 17 l 895 17 l 895 70 m 939 84 l 960 84 l 972 31 l 984 84 l 1004 84 l 1004 16 l 991 16 l 991 69 l 978 16 l 966 16 l 952 69 l 952 16 l 939 16 l 939 84 "},"":{"x_min":46,"x_max":1028,"ha":1074,"o":"m 536 4 q 345 42 434 4 q 189 148 255 81 q 84 304 122 215 q 46 496 46 394 q 84 687 46 597 q 189 843 122 776 q 345 949 255 910 q 536 988 434 988 q 727 949 637 988 q 883 843 816 910 q 989 687 950 776 q 1028 496 1028 597 q 989 304 1028 394 q 883 148 950 215 q 727 42 816 81 q 536 4 637 4 m 536 71 q 702 104 625 71 q 836 196 779 137 q 926 331 893 254 q 960 496 960 408 q 926 660 960 583 q 836 795 893 737 q 702 886 779 853 q 536 920 625 920 q 371 886 448 920 q 236 795 294 853 q 144 660 177 737 q 111 496 111 583 q 144 331 111 408 q 236 196 177 254 q 371 104 294 137 q 536 71 448 71 m 536 100 q 382 131 454 100 q 256 216 311 162 q 171 341 202 269 q 140 496 140 414 q 171 648 140 576 q 256 773 202 719 q 382 857 311 826 q 536 887 454 887 q 688 857 616 887 q 814 773 761 826 q 899 648 868 719 q 930 496 930 576 q 899 341 930 414 q 814 216 868 269 q 688 131 761 162 q 536 100 616 100 m 536 161 q 611 175 576 161 q 673 211 646 190 q 723 259 701 233 q 758 309 744 286 q 537 281 647 280 q 314 309 426 281 q 348 259 327 286 q 398 211 369 233 q 460 175 426 190 q 536 161 494 161 m 300 330 q 773 330 534 276 l 848 450 l 223 450 l 300 330 m 590 496 l 537 622 l 484 496 l 590 496 m 408 593 q 418 592 411 590 q 434 598 426 594 q 448 606 443 602 q 454 612 454 611 q 422 693 434 651 q 386 768 409 734 q 368 768 381 773 q 339 752 354 762 q 313 733 325 743 q 305 720 302 723 l 408 593 m 766 720 q 759 733 769 723 q 734 752 748 743 q 705 768 719 762 q 687 768 691 773 q 650 693 661 734 q 622 612 638 651 q 625 606 619 611 q 638 598 630 602 q 654 592 645 594 q 666 593 662 590 l 766 720 m 895 70 l 875 70 l 875 85 l 932 85 l 932 70 l 911 70 l 911 17 l 895 17 l 895 70 m 939 84 l 960 84 l 972 31 l 984 84 l 1004 84 l 1004 16 l 991 16 l 991 69 l 978 16 l 966 16 l 952 69 l 952 16 l 939 16 l 939 84 "},"Ë":{"x_min":46,"x_max":1028,"ha":1074,"o":"m 536 4 q 345 42 434 4 q 189 148 255 81 q 84 304 122 215 q 46 496 46 394 q 84 687 46 597 q 189 843 122 776 q 345 949 255 910 q 536 988 434 988 q 727 949 637 988 q 883 843 816 910 q 989 687 950 776 q 1028 496 1028 597 q 989 304 1028 394 q 883 148 950 215 q 727 42 816 81 q 536 4 637 4 m 536 71 q 702 104 625 71 q 836 196 779 137 q 926 331 893 254 q 960 496 960 408 q 926 660 960 583 q 836 795 893 737 q 702 886 779 853 q 536 920 625 920 q 371 886 448 920 q 236 795 294 853 q 144 660 177 737 q 111 496 111 583 q 144 331 111 408 q 236 196 177 254 q 371 104 294 137 q 536 71 448 71 m 536 100 q 382 131 454 100 q 256 216 311 162 q 171 341 202 269 q 140 496 140 414 q 171 648 140 576 q 256 773 202 719 q 382 857 311 826 q 536 887 454 887 q 688 857 616 887 q 814 773 761 826 q 899 648 868 719 q 930 496 930 576 q 899 341 930 414 q 814 216 868 269 q 688 131 761 162 q 536 100 616 100 m 536 161 q 611 175 576 161 q 673 211 646 190 q 723 259 701 233 q 758 309 744 286 q 537 281 647 280 q 314 309 426 281 q 348 259 327 286 q 398 211 369 233 q 460 175 426 190 q 536 161 494 161 m 300 330 q 773 330 534 276 l 848 450 l 223 450 l 300 330 m 590 496 l 537 622 l 484 496 l 590 496 m 408 593 q 418 592 411 590 q 434 598 426 594 q 448 606 443 602 q 454 612 454 611 q 422 693 434 651 q 386 768 409 734 q 368 768 381 773 q 339 752 354 762 q 313 733 325 743 q 305 720 302 723 l 408 593 m 766 720 q 759 733 769 723 q 734 752 748 743 q 705 768 719 762 q 687 768 691 773 q 650 693 661 734 q 622 612 638 651 q 625 606 619 611 q 638 598 630 602 q 654 592 645 594 q 666 593 662 590 l 766 720 m 895 70 l 875 70 l 875 85 l 932 85 l 932 70 l 911 70 l 911 17 l 895 17 l 895 70 m 939 84 l 960 84 l 972 31 l 984 84 l 1004 84 l 1004 16 l 991 16 l 991 69 l 978 16 l 966 16 l 952 69 l 952 16 l 939 16 l 939 84 "},"'":{"x_min":241.6875,"x_max":612.546875,"ha":404,"o":"m 241 623 q 277 741 259 680 q 312 865 294 802 q 347 988 330 927 q 380 1104 363 1048 q 500 1085 447 1098 q 612 1058 554 1073 q 498 815 555 940 q 381 582 441 691 q 343 588 361 584 q 310 597 326 591 q 277 609 294 602 q 241 623 261 615 "},"ª":{"x_min":46,"x_max":1028,"ha":1074,"o":"m 536 4 q 345 42 434 4 q 189 148 255 81 q 84 304 122 215 q 46 496 46 394 q 84 687 46 597 q 189 843 122 776 q 345 949 255 910 q 536 988 434 988 q 727 949 637 988 q 883 843 816 910 q 989 687 950 776 q 1028 496 1028 597 q 989 304 1028 394 q 883 148 950 215 q 727 42 816 81 q 536 4 637 4 m 536 71 q 702 104 625 71 q 836 196 779 137 q 926 331 893 254 q 960 496 960 408 q 926 660 960 583 q 836 795 893 737 q 702 886 779 853 q 536 920 625 920 q 371 886 448 920 q 236 795 294 853 q 144 660 177 737 q 111 496 111 583 q 144 331 111 408 q 236 196 177 254 q 371 104 294 137 q 536 71 448 71 m 536 100 q 382 131 454 100 q 256 216 311 162 q 171 341 202 269 q 140 496 140 414 q 171 648 140 576 q 256 773 202 719 q 382 857 311 826 q 536 887 454 887 q 688 857 616 887 q 814 773 761 826 q 899 648 868 719 q 930 496 930 576 q 899 341 930 414 q 814 216 868 269 q 688 131 761 162 q 536 100 616 100 m 536 161 q 611 175 576 161 q 673 211 646 190 q 723 259 701 233 q 758 309 744 286 q 537 281 647 280 q 314 309 426 281 q 348 259 327 286 q 398 211 369 233 q 460 175 426 190 q 536 161 494 161 m 300 330 q 773 330 534 276 l 848 450 l 223 450 l 300 330 m 590 496 l 537 622 l 484 496 l 590 496 m 408 593 q 418 592 411 590 q 434 598 426 594 q 448 606 443 602 q 454 612 454 611 q 422 693 434 651 q 386 768 409 734 q 368 768 381 773 q 339 752 354 762 q 313 733 325 743 q 305 720 302 723 l 408 593 m 766 720 q 759 733 769 723 q 734 752 748 743 q 705 768 719 762 q 687 768 691 773 q 650 693 661 734 q 622 612 638 651 q 625 606 619 611 q 638 598 630 602 q 654 592 645 594 q 666 593 662 590 l 766 720 m 895 70 l 875 70 l 875 85 l 932 85 l 932 70 l 911 70 l 911 17 l 895 17 l 895 70 m 939 84 l 960 84 l 972 31 l 984 84 l 1004 84 l 1004 16 l 991 16 l 991 69 l 978 16 l 966 16 l 952 69 l 952 16 l 939 16 l 939 84 "}}}
